#N canvas 0 22 740 501 10;
#X obj 317 178 inlet;
#X obj 125 106 inlet;
#X obj 122 326 outlet;
#X obj 121 273 pix_shader blur;
#X msg 256 246 width \$1;
#X msg 401 249 image \$1;
#X obj 402 181 inlet;
#X obj 235 333 outlet;
#X connect 0 0 4 0;
#X connect 1 0 3 0;
#X connect 3 0 2 0;
#X connect 3 1 7 0;
#X connect 4 0 3 1;
#X connect 5 0 3 1;
#X connect 6 0 5 0;
