#N canvas 788 356 930 574 10;
#X obj 41 104 gemwin 50;
#X msg 56 68 destroy \, 0;
#X obj 41 207 gemframebuffer;
#X obj 41 244 translateXYZ 0 0 -4;
#X msg 41 40 reset \, create \, 1;
#X text 165 39 reset remet parametre d'usines;
#X obj 107 339 pix_texture;
#X obj 107 380 square 4;
#X text 115 399 le FB a une taille par défaut de 200x200;
#X text 470 11 frustum : pyramide tronquée correspondante à l'angle
et au point de vu;
#X obj 433 212 gemframebuffer;
#X obj 433 249 translateXYZ 0 0 -4;
#X obj 433 300 pix_texture;
#X obj 434 390 square 4;
#X obj 41 268 t a a;
#X obj 41 164 gemhead;
#X obj 433 145 gemhead;
#X obj 40 147 tgl 15 0 empty empty empty 17 7 0 10 -262144 -1 -1 1
1;
#X obj 433 126 tgl 15 0 empty empty empty 17 7 0 10 -262144 -1 -1 0
1;
#X obj 678 386 pix_texture;
#X obj 678 415 square 4;
#X obj 678 188 gemhead;
#X obj 678 169 tgl 15 0 empty empty empty 17 7 0 10 -262144 -1 -1 0
1;
#X text 575 315 on aurait aussi pu prendre la sortie droite du gemframebuffer
;
#X obj 390 422 gemmouse 1 1;
#X obj 41 421 translateXYZ 0 0 0;
#X obj 390 451 * 8;
#X obj 390 474 - 4;
#X obj 421 451 * -8;
#X obj 421 474 + 4;
#X text 216 515 videlightpainting glsl sur chaine 1 avec alpha;
#X obj 107 312 color 0 0 0;
#X msg 146 275 1 1 1;
#X msg 194 275 0 0 0;
#X msg 262 176 quality \$1;
#X obj 262 150 tgl 15 0 empty empty empty 17 7 0 10 -262144 -1 -1 1
1;
#X msg 472 184 dimen 500 500;
#X msg 480 161 dimen 200 200;
#X text 508 139 si on downsample \, effet d'effacement;
#X obj 185 130 loadbang;
#X msg 224 156 1;
#X msg 249 274 0.9 0.9 0.9;
#X text 189 308 si 0.9 s'efface progressivement;
#X text 94 291 comme si on multiplie tout par 0 ou 1 (pas d'effacement)
;
#X obj 41 446 pix_video;
#X obj 41 525 pix_texture;
#X obj 41 551 rectangle 4 4;
#X obj 41 472 pix_movement 0.2;
#X obj 41 501 alpha;
#X msg 49 384 0;
#X msg 183 76 dimen 500 500 \, format RGB32;
#X connect 1 0 0 0;
#X connect 2 0 3 0;
#X connect 2 1 12 1;
#X connect 3 0 14 0;
#X connect 4 0 0 0;
#X connect 6 0 7 0;
#X connect 10 0 11 0;
#X connect 10 1 6 1;
#X connect 11 0 12 0;
#X connect 12 0 13 0;
#X connect 12 1 19 1;
#X connect 14 0 25 0;
#X connect 14 1 31 0;
#X connect 15 0 2 0;
#X connect 16 0 10 0;
#X connect 17 0 15 0;
#X connect 18 0 16 0;
#X connect 19 0 20 0;
#X connect 21 0 19 0;
#X connect 22 0 21 0;
#X connect 24 0 26 0;
#X connect 24 1 28 0;
#X connect 25 0 44 0;
#X connect 26 0 27 0;
#X connect 27 0 25 1;
#X connect 28 0 29 0;
#X connect 29 0 25 2;
#X connect 31 0 6 0;
#X connect 32 0 31 1;
#X connect 33 0 31 1;
#X connect 34 0 6 0;
#X connect 34 0 12 0;
#X connect 35 0 34 0;
#X connect 36 0 10 0;
#X connect 37 0 10 0;
#X connect 39 0 40 0;
#X connect 40 0 35 0;
#X connect 40 0 17 0;
#X connect 41 0 31 1;
#X connect 44 0 47 0;
#X connect 45 0 46 0;
#X connect 47 0 48 0;
#X connect 48 0 45 0;
#X connect 49 0 25 1;
#X connect 49 0 25 2;
#X connect 50 0 2 0;
#X connect 50 0 10 0;
