#N canvas 776 181 930 574 10;
#X obj 41 104 gemwin 50;
#X msg 56 68 destroy \, 0;
#X obj 42 141 gemhead;
#X obj 41 207 gemframebuffer;
#X obj 41 324 teapot;
#X obj 41 244 translateXYZ 0 0 -4;
#X obj 41 295 rotateXYZ;
#X floatatom 68 267 5 0 0 0 - - -;
#X obj 392 177 gemhead;
#X obj 392 316 teapot;
#X obj 392 287 rotateXYZ;
#X floatatom 419 259 5 0 0 0 - - -;
#X obj 392 150 tgl 15 0 empty empty empty 17 7 0 10 -262144 -1 -1 1
1;
#X obj 415 212 color 1 0 0;
#X msg 137 128 dimen 200 200;
#X msg 41 40 reset \, create \, 1;
#X text 165 39 reset remet parametre d'usines;
#X connect 1 0 0 0;
#X connect 2 0 3 0;
#X connect 3 0 5 0;
#X connect 5 0 6 0;
#X connect 6 0 4 0;
#X connect 7 0 6 1;
#X connect 8 0 10 0;
#X connect 10 0 9 0;
#X connect 11 0 10 1;
#X connect 12 0 8 0;
#X connect 14 0 3 0;
#X connect 15 0 0 0;
