#N canvas 1050 300 802 631 10;
#X obj 51 146 gemwin 50;
#X msg 66 78 destroy \, 0;
#X msg 51 50 reset \, create \, 1;
#X msg 279 523 draw point;
#X msg 278 550 draw fill;
#X msg 277 603 draw default;
#X obj 356 119 gemhead;
#X obj 468 461 loadbang;
#X text 509 482 pour avoir carré;
#X text 516 506 pour avoir rectangle : + de résolution en Y et scale
derriere;
#X text 354 539 carre 100 par 100 qui laisse la possibilité d'intervenir
sur chaque point;
#X obj 356 209 glsl_vertex;
#X obj 356 262 glsl_fragment;
#X obj 358 388 glsl_program;
#X obj 438 294 t b f;
#X obj 420 333 pack f f;
#X msg 420 357 link \$1 \$2;
#X obj 518 279 change;
#X floatatom 518 307 5 0 0 0 - - -;
#X obj 475 226 change;
#X floatatom 475 253 5 0 0 0 - - -;
#X msg 469 482 3;
#X obj 444 389 t b;
#X msg 277 574 draw line;
#X text 501 358 on initialise explicitement l'index de TTex0 a l'index
5 par ex.;
#X obj 358 443 pix_texture;
#X obj 358 414 pix_video;
#X text 376 18 voir GLSL/06.rectangle_multitexture.pd;
#X obj 358 514 rectangle 5.333 4;
#X obj 356 160 alpha;
#X msg 499 148 open coordTextIMGtransp.vert;
#X msg 505 184 open coordTextIMGtransp.frag;
#X msg 131 103 color 1 0 0;
#X floatatom 51 260 9 0 0 1 X-position - -;
#X floatatom 70 232 8 0 0 1 Y-position - -;
#X text 200 230 (normalized to 0..2);
#X text 199 259 (normalized to 0..1);
#X obj 51 205 gemmouse 1 1;
#X obj 85 499 pix_data;
#X msg 85 437 bang;
#X floatatom 138 525 5 0 0 0 - - -;
#X obj 111 559 unpack 0 0 0;
#X floatatom 216 582 5 0 0 0 - - -;
#X floatatom 162 582 5 0 0 0 - - -;
#X floatatom 111 582 5 0 0 0 - - -;
#X text 192 524 gray-value;
#X text 122 542 color-list;
#X floatatom 120 456 5 0 0 0 - - -;
#X floatatom 138 479 5 0 0 0 - - -;
#X text 176 455 x-pos;
#X text 190 475 y-pos;
#X obj 72 281 - 1;
#X obj 102 281 abs;
#X floatatom 135 288 8 0 0 1 Y-position - -;
#X floatatom 85 384 2 0 0 1 left-Button - -;
#X obj 85 409 sel 1;
#X msg 236 350 mouseRGB \$1 \$2 \$3 1;
#X msg 253 159 tolbasse \$1;
#X msg 208 199 tolhaute \$1;
#X floatatom 183 169 5 0 0 0 - - -;
#X floatatom 256 130 5 0 0 0 - - -;
#X obj 66 605 print colormouse;
#X connect 1 0 0 0;
#X connect 2 0 0 0;
#X connect 3 0 28 0;
#X connect 4 0 28 0;
#X connect 5 0 28 0;
#X connect 6 0 29 0;
#X connect 7 0 21 0;
#X connect 11 0 12 0;
#X connect 11 1 15 0;
#X connect 11 1 19 0;
#X connect 12 0 13 0;
#X connect 12 1 14 0;
#X connect 12 1 17 0;
#X connect 13 0 26 0;
#X connect 13 1 22 0;
#X connect 14 0 15 0;
#X connect 14 1 15 1;
#X connect 15 0 16 0;
#X connect 16 0 13 0;
#X connect 17 0 18 0;
#X connect 19 0 20 0;
#X connect 23 0 28 0;
#X connect 25 0 28 0;
#X connect 26 0 25 0;
#X connect 26 0 38 1;
#X connect 29 0 11 0;
#X connect 30 0 11 0;
#X connect 31 0 12 0;
#X connect 32 0 0 0;
#X connect 34 0 51 0;
#X connect 37 0 33 0;
#X connect 37 1 34 0;
#X connect 37 2 54 0;
#X connect 38 1 41 0;
#X connect 38 1 56 0;
#X connect 38 1 61 0;
#X connect 38 2 40 0;
#X connect 39 0 38 0;
#X connect 41 0 44 0;
#X connect 41 1 43 0;
#X connect 41 2 42 0;
#X connect 47 0 38 2;
#X connect 48 0 38 3;
#X connect 51 0 52 0;
#X connect 52 0 53 0;
#X connect 54 0 55 0;
#X connect 55 0 39 0;
#X connect 56 0 13 0;
#X connect 57 0 13 0;
#X connect 58 0 13 0;
#X connect 59 0 58 0;
#X connect 60 0 57 0;
