#N canvas 696 25 1222 935 10;
#X obj 51 146 gemwin 50;
#X msg 66 78 destroy \, 0;
#X obj 305 98 gemhead;
#X obj 305 241 glsl_fragment;
#X obj 305 367 glsl_program;
#X obj 467 258 change;
#X floatatom 467 286 5 0 0 0 - - -;
#X obj 426 364 t b;
#X obj 305 572 pix_texture;
#X msg 114 111 color 1 0 0;
#X msg 403 533 texunit 0;
#X msg 403 502 texunit 1;
#X msg 51 50 reset \, dimen 640 480 \, create \, 1;
#X obj 456 98 loadbang;
#X obj 486 516 loadbang;
#X msg 249 377 0;
#X msg 380 320 link \$1;
#X obj 305 414 pix_video;
#X obj 305 462 t a a;
#X msg 219 299 tolerance \$1;
#X floatatom 219 272 5 0 0 0 - - -;
#X obj 348 438 pix_resize 50 50;
#X obj 219 121 vsl 15 128 0 1 0 0 empty empty empty 0 -9 0 10 -262144
-1 -1 3810 1;
#X msg 120 152 color 0 0 0;
#X obj 305 643 rectangle 5.334 4;
#X text 488 129 on mesure la distance du vecteur de couleur \, le blanc
est la plus grande distance;
#X obj 245 121 loadbang;
#X msg 245 152 0.3;
#X msg 456 162 open MosaicColor.frag;
#X msg 426 387 tex0 0;
#X connect 1 0 0 0;
#X connect 2 0 3 0;
#X connect 3 0 4 0;
#X connect 3 1 5 0;
#X connect 3 1 16 0;
#X connect 4 0 17 0;
#X connect 4 1 7 0;
#X connect 5 0 6 0;
#X connect 7 0 29 0;
#X connect 8 0 24 0;
#X connect 9 0 0 0;
#X connect 10 0 8 0;
#X connect 11 0 8 0;
#X connect 12 0 0 0;
#X connect 13 0 28 0;
#X connect 14 0 10 0;
#X connect 16 0 4 0;
#X connect 17 0 18 0;
#X connect 18 0 8 0;
#X connect 19 0 4 0;
#X connect 20 0 19 0;
#X connect 21 0 18 0;
#X connect 22 0 20 0;
#X connect 26 0 27 0;
#X connect 27 0 22 0;
#X connect 28 0 3 0;
#X connect 29 0 4 0;
