#N canvas 765 25 1051 933 10;
#X obj 51 146 gemwin 50;
#X msg 66 78 destroy \, 0;
#X obj 305 98 gemhead;
#X obj 305 188 glsl_vertex;
#X obj 305 241 glsl_fragment;
#X obj 307 367 glsl_program;
#X obj 387 273 t b f;
#X obj 369 312 pack f f;
#X msg 369 336 link \$1 \$2;
#X obj 467 258 change;
#X floatatom 467 286 5 0 0 0 - - -;
#X obj 424 205 change;
#X floatatom 424 232 5 0 0 0 - - -;
#X obj 400 369 t b;
#X obj 307 572 pix_texture;
#X msg 114 111 color 1 0 0;
#X obj 406 577 loadbang;
#X obj 308 458 rotateXYZ;
#X floatatom 361 432 5 0 0 0 - - -;
#X floatatom 325 432 5 0 0 0 - - -;
#X obj 841 523 pix_texture;
#X msg 924 411 texunit 1;
#X msg 403 533 texunit 0;
#X msg 924 458 texunit 0;
#X msg 403 502 texunit 1;
#X msg 51 50 reset \, dimen 640 480 \, create \, 1;
#X msg 406 608 4;
#X obj 68 264 gemhead;
#X obj 68 426 pix_texture;
#X msg 94 398 texunit 1;
#X msg 192 395 texunit 0;
#X obj 68 315 pix_video;
#X obj 306 643 rectangle 5.334 4;
#X obj 305 123 gemframebuffer;
#X obj 305 152 translateXYZ 0 0 -4;
#X obj 841 397 gemhead 60;
#X obj 841 625 rectangle 5.333 -4;
#X obj 627 585 pix_texture;
#X msg 724 546 texunit 0;
#X obj 625 136 gemframebuffer;
#X obj 625 165 translateXYZ 0 0 -4;
#X obj 68 345 pix_resize 512 512;
#X obj 94 369 loadbang;
#X msg 400 393 Tex0 1 \, Tex1 0;
#X text 517 394 Tex0 video;
#X text 520 411 Tex1 Feedback;
#X msg 448 127 open fantome.vert;
#X msg 456 162 open fantome.frag;
#X obj 462 20 loadbang;
#X obj 486 516 loadbang;
#X msg 463 52 dimen 512 512 \, format RGB32;
#X obj 625 111 gemhead 51;
#X msg 728 514 texunit 2;
#X obj 737 477 loadbang;
#X obj 953 498 loadbang;
#X msg 953 533 texunit 3;
#X obj 626 656 rectangle 4 4;
#X connect 1 0 0 0;
#X connect 2 0 33 0;
#X connect 3 0 4 0;
#X connect 3 1 7 0;
#X connect 3 1 11 0;
#X connect 4 0 5 0;
#X connect 4 1 6 0;
#X connect 4 1 9 0;
#X connect 5 0 17 0;
#X connect 5 1 13 0;
#X connect 6 0 7 0;
#X connect 6 1 7 1;
#X connect 7 0 8 0;
#X connect 8 0 5 0;
#X connect 9 0 10 0;
#X connect 11 0 12 0;
#X connect 13 0 43 0;
#X connect 14 0 32 0;
#X connect 14 1 20 1;
#X connect 15 0 0 0;
#X connect 16 0 26 0;
#X connect 17 0 14 0;
#X connect 18 0 17 2;
#X connect 19 0 17 1;
#X connect 20 0 36 0;
#X connect 21 0 20 0;
#X connect 22 0 14 0;
#X connect 23 0 20 0;
#X connect 24 0 14 0;
#X connect 25 0 0 0;
#X connect 26 0 32 1;
#X connect 27 0 31 0;
#X connect 29 0 28 0;
#X connect 30 0 28 0;
#X connect 31 0 41 0;
#X connect 33 0 34 0;
#X connect 33 1 37 1;
#X connect 34 0 3 0;
#X connect 35 0 20 0;
#X connect 37 0 56 0;
#X connect 38 0 37 0;
#X connect 39 0 40 0;
#X connect 39 1 14 1;
#X connect 40 0 37 0;
#X connect 41 0 28 0;
#X connect 42 0 29 0;
#X connect 43 0 5 0;
#X connect 46 0 3 0;
#X connect 47 0 4 0;
#X connect 48 0 50 0;
#X connect 49 0 22 0;
#X connect 50 0 33 0;
#X connect 50 0 39 0;
#X connect 51 0 39 0;
#X connect 52 0 37 0;
#X connect 53 0 52 0;
#X connect 54 0 55 0;
#X connect 55 0 20 0;
