#N canvas 675 25 1222 935 10;
#X obj -37 115 gemwin 50;
#X msg -22 47 destroy \, 0;
#X obj 560 126 gemhead;
#X obj 560 269 glsl_fragment;
#X obj 560 395 glsl_program;
#X obj 722 286 change;
#X floatatom 722 314 5 0 0 0 - - -;
#X obj 560 600 pix_texture;
#X msg 26 80 color 1 0 0;
#X msg -37 19 reset \, dimen 640 480 \, create \, 1;
#X obj 711 126 loadbang;
#X msg 635 348 link \$1;
#X floatatom 339 433 9 0 0 1 X-position - -;
#X floatatom 356 406 8 0 0 1 Y-position - -;
#X text 425 466 (normalized to 0..2);
#X text 424 495 (normalized to 0..1);
#X obj 339 378 gemmouse 1 1;
#X obj 310 641 pix_data;
#X floatatom 363 667 5 0 0 0 - - -;
#X obj 336 701 unpack 0 0 0;
#X floatatom 441 724 5 0 0 0 - - -;
#X floatatom 387 724 5 0 0 0 - - -;
#X floatatom 336 724 5 0 0 0 - - -;
#X text 417 666 gray-value;
#X text 347 684 color-list;
#X floatatom 339 596 5 0 0 0 - - -;
#X floatatom 355 616 5 0 0 0 - - -;
#X text 401 597 x-pos;
#X text 415 617 y-pos;
#X obj 355 453 - 1;
#X obj 355 492 abs;
#X floatatom 355 536 8 0 0 1 Y-position - -;
#X floatatom 294 512 2 0 0 1 left-Button - -;
#X obj 293 795 print colormouse;
#X obj 261 572 spigot;
#X floatatom 440 284 5 0 0 0 - - -;
#X obj 440 133 vsl 15 128 0 0.1 0 0 empty empty empty 0 -9 0 10 -262144
-1 -1 0 1;
#X msg 32 121 color 0 0 0;
#X text 612 223 on mesure la distance du vecteur de couleur \, le blanc
est la plus grande distance;
#X obj 466 133 loadbang;
#X msg 466 164 0.3;
#X msg 711 190 open coulurecouleur.frag;
#X msg -15 748 open ../bui.jpg;
#X obj -45 149 tgl 15 0 empty empty empty 17 7 0 10 -262144 -1 -1 0
1;
#X obj -44 227 translateXYZ 0 0 0;
#X obj -44 271 pix_video;
#X obj -44 586 pix_texture;
#X obj -44 562 alpha;
#X msg -36 190 0;
#X msg 46 552 texunit 1;
#X obj 46 521 loadbang;
#X obj -44 166 gemhead 45;
#X obj 560 161 gemframebuffer;
#X obj 560 198 translateXYZ 0 0 -4;
#X obj 261 539 t b a;
#X obj 624 36 loadbang;
#X obj 934 605 pix_texture;
#X obj 934 166 gemframebuffer;
#X obj 934 203 translateXYZ 0 0 -4;
#X obj 1050 433 pix_texture;
#X obj 1050 336 gemhead 52;
#X obj 935 131 gemhead 51;
#X obj 588 523 loadbang;
#X msg 588 554 texunit 2;
#X obj 934 676 square 4;
#X obj 108 800 pix_image;
#X msg 851 566 texunit 3;
#X msg 976 395 texunit 4;
#X msg 656 441 Tex0 2 \, Tex1 1;
#X msg 323 767 colorSelected \$1 \$2 \$3 1;
#X obj 1050 504 rectangle 5.334 -4;
#X obj -44 612 square 4;
#X obj 560 671 square 4;
#X msg 599 69 dimen 1024 1024 \, format RGB32;
#X obj 37 687 fps;
#X obj -44 297 pix_resize 512 512;
#X msg 440 311 multiX \$1;
#X floatatom 342 288 5 0 0 0 - - -;
#X obj 342 137 vsl 15 128 0 0.1 0 0 empty empty empty 0 -9 0 10 -262144
-1 -1 0 1;
#X msg 342 315 multiY \$1;
#X obj 629 418 t b b;
#X msg 479 284 0.01;
#X msg 378 287 0.002;
#X msg 474 258 0.002;
#X msg 475 235 -0.002;
#X obj 95 350 pix_movement 0.2;
#X obj 95 376 pix_blob 4;
#X floatatom 238 278 5 0 0 0 - - -;
#X obj 238 127 vsl 15 128 0 1 0 0 empty empty empty 0 -9 0 10 -262144
-1 -1 1300 1;
#X msg 238 305 tolerance \$1;
#X obj 118 438 maxlib/scale 0 1 0.01 -0.01;
#X obj 95 411 maxlib/scale 0 1 0.01 -0.01;
#X msg 191 257 0.1;
#X obj -44 517 pix_contrast;
#X floatatom -5 469 5 0 0 1 contrast - -;
#X floatatom 35 496 5 0 0 0 saturation - -;
#X msg 75 610 quality \$1;
#X obj 75 592 tgl 15 0 empty empty empty 17 7 0 10 -262144 -1 -1 0
1;
#X msg 974 359 quality \$1;
#X obj 974 341 tgl 15 0 empty empty empty 17 7 0 10 -262144 -1 -1 0
1;
#X connect 1 0 0 0;
#X connect 2 0 52 0;
#X connect 3 0 4 0;
#X connect 3 1 5 0;
#X connect 3 1 11 0;
#X connect 4 0 7 0;
#X connect 4 1 80 0;
#X connect 5 0 6 0;
#X connect 7 0 72 0;
#X connect 8 0 0 0;
#X connect 9 0 0 0;
#X connect 10 0 41 0;
#X connect 11 0 4 0;
#X connect 12 0 25 0;
#X connect 13 0 29 0;
#X connect 16 0 12 0;
#X connect 16 1 13 0;
#X connect 16 2 32 0;
#X connect 17 1 19 0;
#X connect 17 1 33 0;
#X connect 17 1 69 0;
#X connect 17 2 18 0;
#X connect 19 0 22 0;
#X connect 19 1 21 0;
#X connect 19 2 20 0;
#X connect 25 0 17 2;
#X connect 26 0 17 3;
#X connect 29 0 30 0;
#X connect 30 0 31 0;
#X connect 31 0 26 0;
#X connect 32 0 34 1;
#X connect 34 0 17 0;
#X connect 35 0 76 0;
#X connect 36 0 35 0;
#X connect 39 0 40 0;
#X connect 40 0 36 0;
#X connect 41 0 3 0;
#X connect 42 0 65 0;
#X connect 43 0 51 0;
#X connect 44 0 45 0;
#X connect 45 0 75 0;
#X connect 45 0 85 0;
#X connect 46 0 71 0;
#X connect 47 0 46 0;
#X connect 48 0 44 1;
#X connect 48 0 44 2;
#X connect 49 0 46 0;
#X connect 50 0 49 0;
#X connect 51 0 44 0;
#X connect 52 0 53 0;
#X connect 52 1 56 1;
#X connect 53 0 3 0;
#X connect 54 0 34 0;
#X connect 54 1 17 1;
#X connect 55 0 73 0;
#X connect 56 0 64 0;
#X connect 57 0 58 0;
#X connect 57 1 7 1;
#X connect 57 1 59 1;
#X connect 58 0 56 0;
#X connect 59 0 70 0;
#X connect 60 0 59 0;
#X connect 61 0 57 0;
#X connect 62 0 63 0;
#X connect 63 0 7 0;
#X connect 66 0 56 0;
#X connect 67 0 59 0;
#X connect 68 0 4 0;
#X connect 69 0 4 0;
#X connect 73 0 52 0;
#X connect 73 0 57 0;
#X connect 75 0 54 0;
#X connect 75 0 93 0;
#X connect 76 0 4 0;
#X connect 77 0 79 0;
#X connect 78 0 77 0;
#X connect 79 0 4 0;
#X connect 80 0 81 0;
#X connect 80 0 82 0;
#X connect 80 1 68 0;
#X connect 81 0 35 0;
#X connect 82 0 77 0;
#X connect 83 0 35 0;
#X connect 84 0 35 0;
#X connect 85 0 86 0;
#X connect 86 1 91 0;
#X connect 86 2 90 0;
#X connect 87 0 89 0;
#X connect 88 0 87 0;
#X connect 89 0 4 0;
#X connect 90 0 77 0;
#X connect 91 0 35 0;
#X connect 92 0 87 0;
#X connect 93 0 47 0;
#X connect 94 0 93 1;
#X connect 95 0 93 2;
#X connect 96 0 46 0;
#X connect 97 0 96 0;
#X connect 98 0 59 0;
#X connect 99 0 98 0;
