#N canvas 1059 275 802 631 10;
#X obj 51 146 gemwin 50;
#X msg 66 78 destroy \, 0;
#X msg 51 50 reset \, create \, 1;
#X msg 64 450 draw point;
#X msg 63 477 draw fill;
#X msg 62 530 draw default;
#X obj 356 119 gemhead;
#X obj 468 461 loadbang;
#X text 509 482 pour avoir carré;
#X text 516 506 pour avoir rectangle : + de résolution en Y et scale
derriere;
#X text 354 539 carre 100 par 100 qui laisse la possibilité d'intervenir
sur chaque point;
#X obj 356 209 glsl_vertex;
#X obj 356 262 glsl_fragment;
#X obj 358 388 glsl_program;
#X obj 438 294 t b f;
#X obj 420 333 pack f f;
#X msg 420 357 link \$1 \$2;
#X obj 518 279 change;
#X floatatom 518 307 5 0 0 0 - - -;
#X obj 475 226 change;
#X floatatom 475 253 5 0 0 0 - - -;
#X msg 469 482 3;
#X obj 419 440 t b;
#X msg 62 501 draw line;
#X text 501 358 on initialise explicitement l'index de TTex0 a l'index
5 par ex.;
#X obj 317 432 pix_video;
#X text 376 18 voir GLSL/06.rectangle_multitexture.pd;
#X obj 358 514 rectangle 5.333 4;
#X msg 131 103 color 1 0 0;
#X msg 499 148 open coordTextIMGdecal.vert;
#X msg 505 184 open coordTextIMGdecal.frag;
#X msg 277 352 TTex0 0;
#X msg 193 309 posCoord \$1;
#X floatatom 201 272 5 0 0 0 - - -;
#X msg 161 416 repeat 0;
#X msg 157 392 repeat 1;
#X obj 317 463 pix_texture;
#X obj 273 161 alpha;
#X connect 1 0 0 0;
#X connect 2 0 0 0;
#X connect 3 0 27 0;
#X connect 4 0 27 0;
#X connect 5 0 27 0;
#X connect 6 0 37 0;
#X connect 7 0 21 0;
#X connect 11 0 12 0;
#X connect 11 1 15 0;
#X connect 11 1 19 0;
#X connect 12 0 13 0;
#X connect 12 1 14 0;
#X connect 12 1 17 0;
#X connect 13 0 25 0;
#X connect 13 1 22 0;
#X connect 14 0 15 0;
#X connect 14 1 15 1;
#X connect 15 0 16 0;
#X connect 16 0 13 0;
#X connect 17 0 18 0;
#X connect 19 0 20 0;
#X connect 23 0 27 0;
#X connect 25 0 36 0;
#X connect 28 0 0 0;
#X connect 29 0 11 0;
#X connect 30 0 12 0;
#X connect 31 0 13 0;
#X connect 32 0 13 0;
#X connect 33 0 32 0;
#X connect 34 0 36 0;
#X connect 35 0 36 0;
#X connect 36 0 27 0;
#X connect 37 0 11 0;
