#N canvas 935 25 862 912 10;
#X obj 51 146 gemwin 50;
#X msg 66 78 destroy \, 0;
#X obj 520 96 gemhead;
#X obj 520 186 glsl_vertex;
#X obj 520 239 glsl_fragment;
#X obj 522 365 glsl_program;
#X obj 602 271 t b f;
#X obj 584 310 pack f f;
#X msg 584 334 link \$1 \$2;
#X obj 682 256 change;
#X floatatom 682 284 5 0 0 0 - - -;
#X obj 639 203 change;
#X floatatom 639 230 5 0 0 0 - - -;
#X obj 608 366 t b;
#X text 665 335 on initialise explicitement l'index de TTex0 a l'index
5 par ex.;
#X obj 522 570 pix_texture;
#X obj 522 513 pix_video;
#X text 376 18 voir GLSL/06.rectangle_multitexture.pd;
#X obj 520 137 alpha;
#X msg 131 103 color 1 0 0;
#X text 364 207 (normalized to 0..2);
#X text 363 236 (normalized to 0..1);
#X floatatom 347 146 5 0 0 0 - - -;
#X obj 621 575 loadbang;
#X obj 523 456 rotateXYZ;
#X floatatom 563 403 5 0 0 0 - - -;
#X floatatom 490 399 5 0 0 0 - - -;
#X msg 421 472 dimen 640 480;
#X obj 835 442 pix_image;
#X obj 840 397 gemhead;
#X obj 841 523 pix_texture;
#X msg 918 489 texunit 1;
#X msg 618 531 texunit 0;
#X obj 745 386 openpanel;
#X msg 745 409 open \$1;
#X obj 745 361 bng 15 250 50 0 empty empty empty 17 7 0 10 -262144
-1 -1;
#X obj 347 84 loadbang;
#X msg 347 116 1;
#X msg 420 350 Tex1 1;
#X text 694 560 possibilité de réaliser la déformation à partir dui'ne
autre source en switchant les texunit;
#X msg 388 430 draw line;
#X msg 388 449 draw point;
#X msg 388 411 draw default;
#X obj 388 470 t a;
#X msg 51 50 reset \, dimen 640 480 \, create \, 1;
#X msg 621 606 4;
#X msg 297 520 rectangle \$1;
#X obj 295 494 tgl 15 0 empty empty empty 17 7 0 10 -262144 -1 -1 0
1;
#X msg 663 124 open GLSLdplctpix.vert;
#X msg 669 161 open GLSLdplctpix.frag;
#X msg 372 176 xdeform \$1;
#X msg 418 322 Tex0 0;
#X obj 926 454 loadbang;
#X obj 704 497 loadbang;
#X msg 472 262 Tex0 1;
#X msg 474 289 Tex1 0;
#X obj 786 483 pix_resize 512 512;
#X obj 521 641 mesh_square 400 400;
#X obj 553 484 scaleXYZ 1 0.75 1;
#X obj 476 537 pix_resize 512 512;
#X connect 1 0 0 0;
#X connect 2 0 18 0;
#X connect 3 0 4 0;
#X connect 3 1 7 0;
#X connect 3 1 11 0;
#X connect 4 0 5 0;
#X connect 4 1 6 0;
#X connect 4 1 9 0;
#X connect 5 0 24 0;
#X connect 5 1 13 0;
#X connect 6 0 7 0;
#X connect 6 1 7 1;
#X connect 7 0 8 0;
#X connect 8 0 5 0;
#X connect 9 0 10 0;
#X connect 11 0 12 0;
#X connect 15 0 57 0;
#X connect 16 0 59 0;
#X connect 18 0 3 0;
#X connect 19 0 0 0;
#X connect 22 0 50 0;
#X connect 23 0 45 0;
#X connect 24 0 16 0;
#X connect 25 0 24 2;
#X connect 26 0 24 1;
#X connect 27 0 16 0;
#X connect 28 0 56 0;
#X connect 29 0 28 0;
#X connect 31 0 30 0;
#X connect 32 0 15 0;
#X connect 33 0 34 0;
#X connect 34 0 28 0;
#X connect 35 0 33 0;
#X connect 36 0 37 0;
#X connect 37 0 22 0;
#X connect 38 0 5 0;
#X connect 40 0 43 0;
#X connect 41 0 43 0;
#X connect 42 0 43 0;
#X connect 43 0 57 0;
#X connect 44 0 0 0;
#X connect 45 0 57 1;
#X connect 46 0 15 0;
#X connect 47 0 46 0;
#X connect 48 0 3 0;
#X connect 49 0 4 0;
#X connect 50 0 5 0;
#X connect 51 0 5 0;
#X connect 52 0 31 0;
#X connect 53 0 32 0;
#X connect 54 0 5 0;
#X connect 55 0 5 0;
#X connect 56 0 30 0;
#X connect 59 0 15 0;
