#N canvas 1015 113 802 631 10;
#X obj 51 114 gemwin 50;
#X msg 66 78 destroy \, 0;
#X msg 51 50 reset \, create \, 1;
#X msg 209 262 draw point;
#X msg 208 289 draw fill;
#X msg 209 324 draw default;
#X obj 356 150 gemhead;
#X obj 358 514 mesh_square 100 100;
#X obj 469 442 loadbang;
#X text 509 482 pour avoir carré;
#X text 516 506 pour avoir rectangle : + de résolution en Y et scale
derriere;
#X text 354 539 carre 100 par 100 qui laisse la possibilité d'intervenir
sur chaque point;
#X obj 356 209 glsl_vertex;
#X obj 356 262 glsl_fragment;
#X obj 358 388 glsl_program;
#X obj 438 294 t b f;
#X obj 420 333 pack f f;
#X msg 420 357 link \$1 \$2;
#X msg 499 148 open vertexpassthru.vert;
#X obj 518 279 change;
#X floatatom 518 306 5 0 0 0 - - -;
#X obj 475 226 change;
#X floatatom 475 253 5 0 0 0 - - -;
#X text 376 18 fragment obligatoire pas le vertex;
#X msg 505 184 open fragpassthru.frag;
#X msg 469 482 3;
#X msg 620 356 colorR \$1;
#X floatatom 621 267 5 0 0 0 - - -;
#X obj 621 289 / 100;
#X obj 621 311 max 0;
#X obj 620 334 min 1;
#X text 459 411 sortie droite pour initialiser des variables;
#X obj 427 411 t b;
#X msg 621 240 50;
#X connect 1 0 0 0;
#X connect 2 0 0 0;
#X connect 3 0 7 0;
#X connect 4 0 7 0;
#X connect 5 0 7 0;
#X connect 6 0 12 0;
#X connect 8 0 25 0;
#X connect 12 0 13 0;
#X connect 12 1 16 0;
#X connect 12 1 21 0;
#X connect 13 0 14 0;
#X connect 13 1 15 0;
#X connect 13 1 19 0;
#X connect 14 0 7 0;
#X connect 14 1 32 0;
#X connect 15 0 16 0;
#X connect 15 1 16 1;
#X connect 16 0 17 0;
#X connect 17 0 14 0;
#X connect 18 0 12 0;
#X connect 19 0 20 0;
#X connect 21 0 22 0;
#X connect 24 0 13 0;
#X connect 25 0 7 1;
#X connect 26 0 14 0;
#X connect 27 0 28 0;
#X connect 28 0 29 0;
#X connect 29 0 30 0;
#X connect 30 0 26 0;
#X connect 32 0 33 0;
#X connect 33 0 27 0;
