#N canvas 696 25 1222 935 10;
#X obj 51 146 gemwin 50;
#X msg 66 78 destroy \, 0;
#X obj 305 98 gemhead;
#X obj 305 241 glsl_fragment;
#X obj 305 367 glsl_program;
#X obj 467 258 change;
#X floatatom 467 286 5 0 0 0 - - -;
#X obj 426 364 t b;
#X obj 305 572 pix_texture;
#X msg 114 111 color 1 0 0;
#X msg 403 533 texunit 0;
#X msg 403 502 texunit 1;
#X msg 51 50 reset \, dimen 640 480 \, create \, 1;
#X obj 456 98 loadbang;
#X obj 486 516 loadbang;
#X msg 249 377 0;
#X msg 456 162 open discardcolor.frag;
#X msg 380 320 link \$1;
#X msg 426 388 s loaded;
#X floatatom 896 187 9 0 0 1 X-position - -;
#X floatatom 913 160 8 0 0 1 Y-position - -;
#X text 982 220 (normalized to 0..2);
#X text 981 249 (normalized to 0..1);
#X obj 896 132 gemmouse 1 1;
#X obj 867 531 pix_data;
#X floatatom 920 557 5 0 0 0 - - -;
#X obj 893 591 unpack 0 0 0;
#X floatatom 998 614 5 0 0 0 - - -;
#X floatatom 944 614 5 0 0 0 - - -;
#X floatatom 893 614 5 0 0 0 - - -;
#X text 974 556 gray-value;
#X text 904 574 color-list;
#X floatatom 896 486 5 0 0 0 - - -;
#X floatatom 912 506 5 0 0 0 - - -;
#X text 958 487 x-pos;
#X text 972 507 y-pos;
#X obj 912 207 - 1;
#X obj 912 246 abs;
#X floatatom 912 290 8 0 0 1 Y-position - -;
#X floatatom 748 282 2 0 0 1 left-Button - -;
#X obj 831 689 print colormouse;
#X obj 305 414 pix_video;
#X obj 305 462 t a a;
#X obj 715 477 spigot;
#X msg 880 657 colorToDiscard \$1 \$2 \$3;
#X msg 219 299 tolerance \$1;
#X floatatom 219 272 5 0 0 0 - - -;
#X obj 348 438 pix_resize 50 50;
#X obj 829 494 t b a;
#X obj 219 121 vsl 15 128 0 1 0 0 empty empty empty 0 -9 0 10 -262144
-1 -1 3810 1;
#X msg 120 152 color 0 0 0;
#X obj 305 643 rectangle 5.334 4;
#X text 488 129 on mesure la distance du vecteur de couleur \, le blanc
est la plus grande distance;
#X obj 245 121 loadbang;
#X msg 245 152 0.3;
#X connect 1 0 0 0;
#X connect 2 0 3 0;
#X connect 3 0 4 0;
#X connect 3 1 5 0;
#X connect 3 1 17 0;
#X connect 4 0 41 0;
#X connect 4 1 7 0;
#X connect 5 0 6 0;
#X connect 7 0 18 0;
#X connect 8 0 51 0;
#X connect 9 0 0 0;
#X connect 10 0 8 0;
#X connect 11 0 8 0;
#X connect 12 0 0 0;
#X connect 13 0 16 0;
#X connect 14 0 10 0;
#X connect 16 0 3 0;
#X connect 17 0 4 0;
#X connect 19 0 32 0;
#X connect 20 0 36 0;
#X connect 23 0 19 0;
#X connect 23 1 20 0;
#X connect 23 2 39 0;
#X connect 24 1 26 0;
#X connect 24 1 40 0;
#X connect 24 1 44 0;
#X connect 24 2 25 0;
#X connect 26 0 29 0;
#X connect 26 1 28 0;
#X connect 26 2 27 0;
#X connect 32 0 24 2;
#X connect 33 0 24 3;
#X connect 36 0 37 0;
#X connect 37 0 38 0;
#X connect 38 0 33 0;
#X connect 39 0 43 1;
#X connect 41 0 42 0;
#X connect 42 0 8 0;
#X connect 42 1 43 0;
#X connect 43 0 48 0;
#X connect 44 0 4 0;
#X connect 45 0 4 0;
#X connect 46 0 45 0;
#X connect 47 0 42 0;
#X connect 48 0 24 0;
#X connect 48 1 24 1;
#X connect 49 0 46 0;
#X connect 53 0 54 0;
#X connect 54 0 49 0;
