#N canvas 1110 292 450 300 10;
#X obj 227 15 gemhead;
#X obj 227 40 t b b;
#X obj 227 70 realtime;
#X obj 227 96 iir 55;
#X msg 227 121 1000 \$1;
#X obj 227 144 /;
#X obj 226 171 * 0.5;
#X obj 226 197 i;
#X obj 226 221 change;
#X obj 226 251 outlet;
#X floatatom 140 109 5 0 0 0 - - -;
#X connect 0 0 1 0;
#X connect 1 0 2 0;
#X connect 1 1 2 1;
#X connect 2 0 3 0;
#X connect 3 0 4 0;
#X connect 4 0 5 0;
#X connect 5 0 6 0;
#X connect 6 0 7 0;
#X connect 7 0 8 0;
#X connect 8 0 9 0;
#X connect 8 0 10 0;
#X coords 0 -1 1 1 85 30 1 100 100;
