#N canvas 691 321 930 574 10;
#X obj 41 104 gemwin 50;
#X msg 56 68 destroy \, 0;
#X obj 41 207 gemframebuffer;
#X obj 41 244 translateXYZ 0 0 -4;
#X msg 41 40 reset \, create \, 1;
#X text 165 39 reset remet parametre d'usines;
#X obj 115 347 pix_texture;
#X obj 115 376 square 4;
#X text 112 395 le FB a une taille par défaut de 200x200;
#X text 470 11 frustum : pyramide tronquée correspondante à l'angle
et au point de vu;
#X obj 435 208 gemframebuffer;
#X obj 435 245 translateXYZ 0 0 -4;
#X obj 435 296 pix_texture;
#X obj 435 325 square 4;
#X obj 41 283 t a a;
#X obj 41 421 translateXYZ;
#X obj 41 446 color 1 0 0;
#X obj 41 470 circle 0.1;
#X obj 41 164 gemhead;
#X obj 435 141 gemhead;
#X obj 40 147 tgl 15 0 empty empty empty 17 7 0 10 -262144 -1 -1 0
1;
#X obj 435 122 tgl 15 0 empty empty empty 17 7 0 10 -262144 -1 -1 0
1;
#X obj 719 354 pix_texture;
#X obj 719 383 square 4;
#X obj 719 156 gemhead;
#X obj 719 137 tgl 15 0 empty empty empty 17 7 0 10 -262144 -1 -1 0
1;
#X text 556 287 on aurait aussi pu prendre la sortie droite du gemframebuffer
;
#X obj 400 432 gemmouse 1 1;
#X obj 400 461 * 8;
#X obj 400 484 - 4;
#X obj 431 461 * -8;
#X obj 431 484 + 4;
#X obj 566 83 color 0 0 0;
#X msg 605 46 1 1 1;
#X msg 653 46 0 0 0;
#X msg 708 45 0.9 0.9 0.9;
#X text 648 79 si 0.9 s'efface progressivement;
#X text 553 62 comme si on multiplie tout par 0 ou 1 (pas d'effacement)
;
#X obj 96 318 color 0 0 0;
#X msg 135 281 1 1 1;
#X msg 183 281 0 0 0;
#X msg 238 280 0.9 0.9 0.9;
#X text 178 314 si 0.9 s'efface progressivement;
#X text 83 297 comme si on multiplie tout par 0 ou 1 (pas d'effacement)
;
#X msg 177 130 dimen 500 500 \, RGB32;
#X text 140 109 RGB 32 pour augmenter la précision de la couleur;
#X connect 1 0 0 0;
#X connect 2 0 3 0;
#X connect 2 1 12 1;
#X connect 3 0 14 0;
#X connect 4 0 0 0;
#X connect 6 0 7 0;
#X connect 10 0 11 0;
#X connect 10 1 6 1;
#X connect 11 0 12 0;
#X connect 12 0 13 0;
#X connect 12 1 22 1;
#X connect 14 0 15 0;
#X connect 14 1 38 0;
#X connect 15 0 16 0;
#X connect 16 0 17 0;
#X connect 18 0 2 0;
#X connect 19 0 10 0;
#X connect 20 0 18 0;
#X connect 21 0 19 0;
#X connect 22 0 23 0;
#X connect 24 0 22 0;
#X connect 25 0 24 0;
#X connect 27 0 28 0;
#X connect 27 1 30 0;
#X connect 28 0 29 0;
#X connect 29 0 15 1;
#X connect 30 0 31 0;
#X connect 31 0 15 2;
#X connect 33 0 32 1;
#X connect 34 0 32 1;
#X connect 35 0 32 1;
#X connect 38 0 6 0;
#X connect 39 0 38 1;
#X connect 40 0 38 1;
#X connect 41 0 38 1;
#X connect 44 0 2 0;
#X connect 44 0 10 0;
