#N canvas 952 75 881 729 10;
#X obj 379 102 gemhead;
#X obj 379 144 t a a a a a a a a a a a a;
#X obj 526 178 translateXYZ 3 0 0;
#X obj 526 203 color 1 0 0;
#X obj 526 225 square 0.1;
#X obj 57 140 gemwin 50;
#X obj 512 260 GEMglPushMatrix;
#X obj 499 345 square 0.1;
#X obj 499 323 color 1 1 0;
#X obj 499 420 square 0.1;
#X obj 499 398 color 1 1 0;
#X obj 499 502 square 0.1;
#X obj 499 480 color 1 1 0;
#X obj 485 536 GEMglPopMatrix;
#X obj 472 632 square 0.1;
#X obj 499 298 translateXYZ 0 1 0;
#X obj 499 373 translateXYZ 0 1 0;
#X obj 499 455 translateXYZ 0 1 0;
#X obj 472 585 translateXYZ 0 -1 0;
#X msg 57 76 create \, 1;
#X msg 72 104 destroy \, 0;
#X text 359 6 permet de faire des fonctions récursives;
#X text 359 24 Push Matrix mémorise la dernière position dans le t
a a a;
#X text 359 43 Pop Matrix rappelle cette position;
#X text 360 60 Plusieurs Pop Matrix rappellent les positions précédentes
;
#X obj 472 610 color 0 1 0;
#X obj 127 285 GEMglLoadIdentity;
#X obj 127 361 square 0.1;
#X obj 127 335 color 0 0 1;
#X text 510 87 dans GEMgl \, transformations successives \, l'objet
Push et Pop permettent de "circuler" dans ces transformations;
#X obj 127 310 translateXYZ -1 0 -4;
#X text 121 393 cet objet remet tout à s aposition initiale;
#X text 121 407 cad à dire au niveau de la caméra;
#X text 122 424 d'ou le -4 en z pour voir le carré bleu;
#X connect 0 0 1 0;
#X connect 1 6 26 0;
#X connect 1 7 18 0;
#X connect 1 8 13 0;
#X connect 1 9 15 0;
#X connect 1 10 6 0;
#X connect 1 11 2 0;
#X connect 2 0 3 0;
#X connect 3 0 4 0;
#X connect 7 0 16 0;
#X connect 8 0 7 0;
#X connect 9 0 17 0;
#X connect 10 0 9 0;
#X connect 12 0 11 0;
#X connect 15 0 8 0;
#X connect 16 0 10 0;
#X connect 17 0 12 0;
#X connect 18 0 25 0;
#X connect 19 0 5 0;
#X connect 20 0 5 0;
#X connect 25 0 14 0;
#X connect 26 0 30 0;
#X connect 28 0 27 0;
#X connect 30 0 28 0;
