#N canvas 865 116 802 631 10;
#X obj 51 114 gemwin 50;
#X msg 66 78 destroy \, 0;
#X msg 51 50 reset \, create \, 1;
#X msg 64 450 draw point;
#X msg 63 477 draw fill;
#X msg 62 530 draw default;
#X obj 356 119 gemhead;
#X obj 468 461 loadbang;
#X text 509 482 pour avoir carré;
#X text 516 506 pour avoir rectangle : + de résolution en Y et scale
derriere;
#X text 354 539 carre 100 par 100 qui laisse la possibilité d'intervenir
sur chaque point;
#X obj 356 209 glsl_vertex;
#X obj 356 262 glsl_fragment;
#X obj 358 388 glsl_program;
#X obj 438 294 t b f;
#X obj 420 333 pack f f;
#X msg 420 357 link \$1 \$2;
#X obj 518 279 change;
#X floatatom 518 307 5 0 0 0 - - -;
#X obj 475 226 change;
#X floatatom 475 253 5 0 0 0 - - -;
#X msg 469 482 3;
#X obj 390 445 t b;
#X msg 62 501 draw line;
#X msg 499 148 open coordTextIMG.vert;
#X msg 505 184 open coordTextIMG.frag;
#X text 501 358 on initialise explicitement l'index de TTex0 a l'index
5 par ex.;
#X msg 474 438 TTex0 5;
#X obj 152 242 pix_image;
#X obj 152 273 pix_texture;
#X msg 166 209 open \$1;
#X obj 166 183 openpanel;
#X obj 170 157 bng 15 250 50 0 empty empty empty 17 7 0 10 -262144
-1 -1;
#X obj 152 129 gemhead;
#X msg 235 214 texunit 3;
#X msg 473 417 TTex0 3;
#X obj 149 455 pix_texture;
#X obj 149 311 gemhead;
#X text 97 290 charge la texture 3;
#X obj 149 424 pix_video;
#X msg 256 381 texunit 5;
#X text 376 18 voir GLSL/06.rectangle_multitexture.pd;
#X obj 358 514 rectangle 5.333 4;
#X obj 268 152 loadbang;
#X obj 356 160 alpha;
#X connect 1 0 0 0;
#X connect 2 0 0 0;
#X connect 3 0 42 0;
#X connect 4 0 42 0;
#X connect 5 0 42 0;
#X connect 6 0 44 0;
#X connect 7 0 21 0;
#X connect 11 0 12 0;
#X connect 11 1 15 0;
#X connect 11 1 19 0;
#X connect 12 0 13 0;
#X connect 12 1 14 0;
#X connect 12 1 17 0;
#X connect 13 0 42 0;
#X connect 13 1 22 0;
#X connect 14 0 15 0;
#X connect 14 1 15 1;
#X connect 15 0 16 0;
#X connect 16 0 13 0;
#X connect 17 0 18 0;
#X connect 19 0 20 0;
#X connect 23 0 42 0;
#X connect 24 0 11 0;
#X connect 25 0 12 0;
#X connect 27 0 13 0;
#X connect 28 0 29 0;
#X connect 30 0 28 0;
#X connect 31 0 30 0;
#X connect 32 0 31 0;
#X connect 33 0 28 0;
#X connect 34 0 29 0;
#X connect 35 0 13 0;
#X connect 37 0 39 0;
#X connect 39 0 36 0;
#X connect 40 0 36 0;
#X connect 43 0 34 0;
#X connect 43 0 40 0;
#X connect 44 0 11 0;
