#N canvas 924 95 802 631 10;
#X obj 51 114 gemwin 50;
#X msg 66 78 destroy \, 0;
#X msg 51 50 reset \, create \, 1;
#X msg 209 262 draw point;
#X msg 208 289 draw fill;
#X msg 209 324 draw default;
#X obj 356 150 gemhead;
#X obj 358 514 mesh_square 100 100;
#X obj 469 442 loadbang;
#X text 509 482 pour avoir carré;
#X text 516 506 pour avoir rectangle : + de résolution en Y et scale
derriere;
#X text 354 539 carre 100 par 100 qui laisse la possibilité d'intervenir
sur chaque point;
#X obj 356 209 glsl_vertex;
#X obj 356 262 glsl_fragment;
#X obj 358 388 glsl_program;
#X obj 438 294 t b f;
#X obj 420 333 pack f f;
#X msg 420 357 link \$1 \$2;
#X obj 518 279 change;
#X floatatom 518 307 5 0 0 0 - - -;
#X obj 475 226 change;
#X floatatom 475 253 5 0 0 0 - - -;
#X text 376 18 fragment obligatoire pas le vertex;
#X msg 469 482 3;
#X text 459 411 sortie droite pour initialiser des variables;
#X obj 427 411 t b;
#X msg 499 148 open vertexpassthruVAR.vert;
#X msg 505 184 open fragpassthruVAR.frag;
#X obj 359 447 color 0 1 0;
#X msg 514 380 0 0 1;
#X msg 570 379 1 0 1;
#X msg 516 355 0 1 0;
#X msg 601 305 monRouge \$1;
#X obj 602 264 max 0;
#X obj 603 284 min 1;
#X floatatom 603 222 5 0 0 0 - - -;
#X obj 603 243 / 100;
#X msg 557 221 50;
#X msg 609 339 monRouge 0.5;
#X connect 1 0 0 0;
#X connect 2 0 0 0;
#X connect 3 0 7 0;
#X connect 4 0 7 0;
#X connect 5 0 7 0;
#X connect 6 0 12 0;
#X connect 8 0 23 0;
#X connect 12 0 13 0;
#X connect 12 1 16 0;
#X connect 12 1 20 0;
#X connect 13 0 14 0;
#X connect 13 1 15 0;
#X connect 13 1 18 0;
#X connect 14 0 28 0;
#X connect 14 1 25 0;
#X connect 15 0 16 0;
#X connect 15 1 16 1;
#X connect 16 0 17 0;
#X connect 17 0 14 0;
#X connect 18 0 19 0;
#X connect 20 0 21 0;
#X connect 23 0 7 1;
#X connect 25 0 37 0;
#X connect 26 0 12 0;
#X connect 27 0 13 0;
#X connect 28 0 7 0;
#X connect 29 0 28 1;
#X connect 30 0 28 1;
#X connect 31 0 28 1;
#X connect 32 0 14 0;
#X connect 33 0 34 0;
#X connect 34 0 32 0;
#X connect 35 0 36 0;
#X connect 36 0 33 0;
#X connect 37 0 35 0;
#X connect 38 0 14 0;
