#N canvas 935 25 862 933 10;
#X obj 51 146 gemwin 50;
#X msg 66 78 destroy \, 0;
#X obj 276 131 gemhead;
#X obj 276 228 glsl_vertex;
#X obj 276 275 glsl_fragment;
#X obj 276 375 glsl_program;
#X obj 346 302 t b f;
#X obj 339 322 pack f f;
#X msg 339 344 link \$1 \$2;
#X obj 423 312 change;
#X floatatom 423 340 5 0 0 0 - - -;
#X obj 421 255 change;
#X floatatom 421 282 5 0 0 0 - - -;
#X obj 362 376 t b;
#X obj 302 638 pix_texture;
#X text 376 18 voir GLSL/06.rectangle_multitexture.pd;
#X msg 131 103 color 1 0 0;
#X floatatom 167 210 5 0 0 0 - - -;
#X obj 402 643 loadbang;
#X obj 276 457 rotateXYZ;
#X floatatom 316 404 5 0 0 0 - - -;
#X floatatom 243 400 5 0 0 0 - - -;
#X obj 529 562 pix_texture;
#X msg 323 589 texunit 0;
#X obj 167 148 loadbang;
#X msg 132 356 Tex1 1;
#X msg 51 50 reset \, dimen 640 480 \, create \, 1;
#X msg 402 674 4;
#X msg 107 613 rectangle \$1;
#X obj 107 592 tgl 15 0 empty empty empty 17 7 0 10 -262144 -1 -1 0
1;
#X msg 167 240 xdeform \$1;
#X msg 130 328 Tex0 0;
#X obj 323 560 loadbang;
#X obj 276 171 gemframebuffer;
#X obj 276 194 translateXYZ 0 0 -4;
#X msg 183 327 Tex0 1;
#X msg 185 354 Tex1 0;
#X obj 529 330 gemhead;
#X obj 529 370 gemframebuffer;
#X obj 529 393 translateXYZ 0 0 -4;
#X obj 640 630 loadbang;
#X msg 640 661 4;
#X obj 627 525 pix_texture;
#X obj 627 496 gemhead;
#X obj 627 553 rectangle 5.33 4;
#X msg 167 180 0.2;
#X obj 302 709 square 4;
#X obj 529 687 square 4;
#X msg 415 192 open GLSLdplctpixFB.vert;
#X msg 419 229 open GLSLdplctpixFB.frag;
#X obj 275 483 t a a;
#X obj 188 564 pix_video;
#X obj 190 709 pix_texture;
#X msg 42 219 1e-06;
#X obj 790 165 pix_image;
#X msg 700 115 open \$1;
#X obj 700 91 openpanel;
#X obj 700 71 bng 15 250 50 0 empty empty empty 17 7 0 10 -262144 -1
-1;
#X msg 564 110 open ../bui.jpg;
#X obj 188 518 spigot;
#X obj 239 517 tgl 15 0 empty empty empty 17 7 0 10 -262144 -1 -1 0
1;
#X obj 188 544 translateXYZ;
#X obj 41 436 gemmouse 1 1;
#X obj 55 467 * -8;
#X obj 55 492 + 4;
#X obj 21 469 * 8;
#X obj 21 494 - 4;
#X floatatom 13 529 5 0 0 0 - - -;
#X floatatom 61 530 5 0 0 0 - - -;
#X obj 191 744 circle 1;
#X msg 413 105 dimen 1024 1024;
#X connect 1 0 0 0;
#X connect 2 0 33 0;
#X connect 3 0 4 0;
#X connect 3 1 7 0;
#X connect 3 1 11 0;
#X connect 4 0 5 0;
#X connect 4 1 6 0;
#X connect 4 1 9 0;
#X connect 5 0 19 0;
#X connect 5 1 13 0;
#X connect 6 0 7 0;
#X connect 6 1 7 1;
#X connect 7 0 8 0;
#X connect 8 0 5 0;
#X connect 9 0 10 0;
#X connect 11 0 12 0;
#X connect 14 0 46 0;
#X connect 16 0 0 0;
#X connect 17 0 30 0;
#X connect 18 0 27 0;
#X connect 19 0 50 0;
#X connect 20 0 19 2;
#X connect 21 0 19 1;
#X connect 22 0 47 0;
#X connect 23 0 14 0;
#X connect 24 0 45 0;
#X connect 25 0 5 0;
#X connect 26 0 0 0;
#X connect 27 0 46 1;
#X connect 28 0 14 0;
#X connect 29 0 28 0;
#X connect 30 0 5 0;
#X connect 31 0 5 0;
#X connect 32 0 23 0;
#X connect 33 0 34 0;
#X connect 33 1 22 1;
#X connect 34 0 3 0;
#X connect 35 0 5 0;
#X connect 36 0 5 0;
#X connect 37 0 38 0;
#X connect 38 0 39 0;
#X connect 38 1 14 1;
#X connect 38 1 42 1;
#X connect 39 0 22 0;
#X connect 40 0 41 0;
#X connect 41 0 47 1;
#X connect 42 0 44 0;
#X connect 43 0 42 0;
#X connect 45 0 17 0;
#X connect 48 0 3 0;
#X connect 49 0 4 0;
#X connect 50 0 59 0;
#X connect 50 1 14 0;
#X connect 51 0 52 0;
#X connect 52 0 69 0;
#X connect 55 0 54 0;
#X connect 56 0 55 0;
#X connect 57 0 56 0;
#X connect 58 0 54 0;
#X connect 59 0 61 0;
#X connect 60 0 59 1;
#X connect 61 0 51 0;
#X connect 62 0 65 0;
#X connect 62 1 63 0;
#X connect 62 2 60 0;
#X connect 63 0 64 0;
#X connect 64 0 61 2;
#X connect 65 0 66 0;
#X connect 66 0 61 1;
#X connect 70 0 33 0;
#X connect 70 0 38 0;
