#N canvas 343 25 879 641 10;
#X obj 723 461 gemwin 50;
#X msg 517 348 destroy;
#X obj 83 472 loadbang;
#X obj 573 299 gemhead;
#X obj 302 345 glsl_vertex;
#X obj 343 448 glsl_fragment;
#X obj 454 118 glsl_program;
#X obj 665 444 pack f f;
#X msg 199 560 link \$1 \$2;
#X obj 602 5 t b f;
#X msg 152 54 open vertFetch.vert;
#X msg 553 547 open vertFetch.frag;
#X obj 623 257 loadbang;
#X obj 407 518 t b b;
#X obj 653 358 pix_texture;
#X obj 145 306 rotateXYZ;
#X floatatom 81 123 5 0 0 0 - - -;
#X obj 163 231 pix_video;
#X msg 363 230 texunit 0;
#X obj 144 37 ortho;
#X obj 622 201 pix_texture;
#X msg 770 171 texunit 1;
#X obj 249 472 tgl 15 0 empty empty empty 17 7 0 10 -262144 -1 -1 0 1
;
#X obj 87 198 pix_delay 300;
#X floatatom 623 187 5 0 0 0 - - -;
#X obj 499 261 pix_contrast;
#X floatatom 134 371 5 0 0 0 - - -;
#X msg 286 291 4;
#X floatatom 29 352 5 0 0 0 - - -;
#X obj 431 398 mesh_square 100 100;
#X obj 428 172 bng 15 250 50 0 empty empty empty 17 7 0 10 -262144 -1 -1
;
#X obj 641 254 loadbang;
#X obj 154 603 loadbang;
#X text 550 284 Patch tisse par Olivier Baudu;
#X msg 762 452 Tex1 1 \, Tex0 0;
#X msg 244 601 Tex1 0 \, Tex0 1;
#X text 353 164 lors d'une formation au GLSL;
#X msg 511 507 0;
#X obj 163 240 sel 0 1;
#X text 87 88 1 - le relief bouge avant la texture;
#X text 152 356 0 - la texture bouge avant le relief;
#X obj 405 510 loadbang;
#X msg 357 121 10;
#X text 330 202 assure par Jack Boyer d'RYBN;
#X text 600 554 Publie sous GPL V3.0;
#X obj 747 292 loadbang;
#X msg 498 355 -69;
#X obj 675 343 s loaded;
#X obj 170 351 r loaded;
#X obj 129 240 loadbang;
#X msg 465 252 dimen 400 300 \, create \, 1;
#X obj 742 448 r loaded;
#X msg 777 478 1.5;
#X floatatom 659 345 5 0 0 0 - - -;
#X msg 267 23 amplitude \$1;
#X connect 1 0 0 0;
#X connect 2 0 27 0;
#X connect 3 0 4 0;
#X connect 4 0 5 0;
#X connect 4 1 7 0;
#X connect 5 0 6 0;
#X connect 5 1 9 0;
#X connect 6 0 15 0;
#X connect 6 1 47 0;
#X connect 7 0 8 0;
#X connect 8 0 6 0;
#X connect 9 0 7 0;
#X connect 9 1 7 1;
#X connect 10 0 4 0;
#X connect 11 0 5 0;
#X connect 12 0 13 0;
#X connect 13 0 11 0;
#X connect 13 1 10 0;
#X connect 14 0 19 0;
#X connect 15 0 17 0;
#X connect 16 0 15 1;
#X connect 17 0 14 0;
#X connect 17 0 23 0;
#X connect 18 0 14 0;
#X connect 19 0 29 0;
#X connect 21 0 20 0;
#X connect 22 0 38 0;
#X connect 23 0 25 0;
#X connect 24 0 23 1;
#X connect 25 0 20 0;
#X connect 26 0 25 1;
#X connect 27 0 29 1;
#X connect 28 0 25 2;
#X connect 30 0 13 0;
#X connect 31 0 18 0;
#X connect 32 0 21 0;
#X connect 34 0 6 0;
#X connect 35 0 6 0;
#X connect 37 0 22 0;
#X connect 38 0 35 0;
#X connect 38 1 34 0;
#X connect 41 0 42 0;
#X connect 42 0 24 0;
#X connect 45 0 46 0;
#X connect 46 0 16 0;
#X connect 48 0 37 0;
#X connect 49 0 50 0;
#X connect 50 0 0 0;
#X connect 51 0 52 0;
#X connect 52 0 53 0;
#X connect 53 0 54 0;
#X connect 54 0 6 0;
