#N canvas 390 22 920 357 10;
#X obj 89 196 square 2;
#X obj 89 136 pix_video;
#X obj 78 281 gemwin;
#X msg 63 252 create \, 1;
#X msg 150 249 destroy;
#X obj 89 167 pix_texture;
#X obj 86 2 gemhead;
#X text 250 167 liste opérations :;
#X obj 139 -39 nColorControl inscale;
#X obj 372 -39 nColorControl outscale;
#X obj 482 -40 nColorControl inoffset;
#X obj 713 -39 nColorControl outoffset;
#X msg 34 139 mode 1;
#X obj 88 100 glsl_operation2;
#X obj 257 -38 nColorControl in2scale;
#X obj 600 -41 nColorControl in2offset;
#X text 252 190 absdiff add and atan2 avg div eq eqp gt gte gtep gtp
hypot lt lte ltep ltp max min mod mult neq neqp or pow sub xor;
#N canvas 203 105 707 486 texture 0;
#X obj 100 100 cnv 15 100 50 empty empty textures 8 8 0 12 -159808
-1 0;
#X floatatom 107 125 5 0 0 0 - - -;
#X floatatom 150 125 5 0 0 0 - - -;
#X obj 105 183 pack;
#X obj 107 161 t b f;
#X obj 109 228 outlet;
#X connect 1 0 3 0;
#X connect 2 0 4 0;
#X connect 3 0 5 0;
#X connect 4 0 3 0;
#X connect 4 1 3 1;
#X coords 0 -1 1 1 100 50 1 100 100;
#X restore 448 55 pd texture;
#X floatatom 229 132 5 0 0 0 - - -;
#X msg 282 134 add;
#X obj 660 52 gemhead;
#X obj 660 97 pix_image img.jpg;
#X obj 661 165 pix_texture;
#X msg 791 145 mode 1;
#X msg 790 113 texunit 2;
#X obj 660 129 pix_resize 320 240;
#X connect 1 0 5 0;
#X connect 3 0 2 0;
#X connect 4 0 2 0;
#X connect 5 0 0 0;
#X connect 6 0 13 0;
#X connect 8 0 13 1;
#X connect 9 0 13 3;
#X connect 10 0 13 4;
#X connect 11 0 13 6;
#X connect 12 0 5 0;
#X connect 13 0 1 0;
#X connect 14 0 13 2;
#X connect 15 0 13 5;
#X connect 17 0 13 8;
#X connect 18 0 13 7;
#X connect 19 0 13 7;
#X connect 20 0 21 0;
#X connect 21 0 25 0;
#X connect 23 0 22 0;
#X connect 24 0 22 0;
#X connect 25 0 22 0;
