#N canvas -42 194 1401 616 10;
#X obj 224 162 inlet;
#X obj 125 106 inlet;
#X obj 122 326 outlet;
#X obj 235 333 outlet;
#X msg 163 230 inscale \$1 \$2 \$3 \$4;
#X obj 454 173 inlet;
#X msg 393 241 outscale \$1 \$2 \$3 \$4;
#X obj 589 174 inlet;
#X msg 528 242 inoffset \$1 \$2 \$3 \$4;
#X obj 734 174 inlet;
#X msg 673 242 outoffset \$1 \$2 \$3 \$4;
#X obj 841 42 symbol;
#X obj 836 -24 inlet;
#X msg 826 266 1;
#X msg 860 266 2;
#X msg 900 264 3;
#X msg 938 267 4;
#X msg 822 310 op \$1;
#X msg 969 267 5;
#X msg 1009 268 6;
#X msg 1044 269 7;
#X msg 1086 269 8;
#X msg 1125 269 9;
#X msg 1164 269 10;
#X msg 1204 269 11;
#X msg 920 378 12;
#X msg 966 380 13;
#X msg 1004 380 14;
#X msg 1048 380 16;
#X msg 1091 378 17;
#X msg 1136 376 18;
#X msg 1190 383 19;
#X msg 920 443 20;
#X msg 970 444 21;
#X msg 1015 446 22;
#X msg 1062 444 23;
#X msg 1097 442 24;
#X msg 1137 446 25;
#X msg 1176 446 26;
#X msg 1215 447 27;
#X msg 1259 444 28;
#X obj 816 16 route float;
#X obj 337 162 inlet;
#X msg 275 230 in2scale \$1 \$2 \$3 \$4;
#X obj 666 136 inlet;
#X msg 605 204 in2offset \$1 \$2 \$3 \$4;
#X obj 836 68 sel absdiff add and atan2 avg div eq eqp gt gte gtep
gtp hypot lt lte ltep ltp max min mod mult neq neqp or pow sub xor
;
#X obj 121 272 pix_shader operation2;
#X obj 1235 37 inlet;
#X msg 1235 83 tex0 \$1;
#X msg 1300 85 tex1 \$2;
#X connect 0 0 4 0;
#X connect 1 0 47 0;
#X connect 4 0 47 1;
#X connect 5 0 6 0;
#X connect 6 0 47 1;
#X connect 7 0 8 0;
#X connect 8 0 47 1;
#X connect 9 0 10 0;
#X connect 10 0 47 1;
#X connect 11 0 46 0;
#X connect 12 0 41 0;
#X connect 13 0 17 0;
#X connect 14 0 17 0;
#X connect 15 0 17 0;
#X connect 16 0 17 0;
#X connect 17 0 47 1;
#X connect 18 0 17 0;
#X connect 19 0 17 0;
#X connect 20 0 17 0;
#X connect 21 0 17 0;
#X connect 22 0 17 0;
#X connect 23 0 17 0;
#X connect 24 0 17 0;
#X connect 25 0 17 0;
#X connect 26 0 17 0;
#X connect 27 0 17 0;
#X connect 28 0 17 0;
#X connect 29 0 17 0;
#X connect 30 0 17 0;
#X connect 31 0 17 0;
#X connect 32 0 17 0;
#X connect 33 0 17 0;
#X connect 34 0 17 0;
#X connect 35 0 17 0;
#X connect 36 0 17 0;
#X connect 37 0 17 0;
#X connect 38 0 17 0;
#X connect 39 0 17 0;
#X connect 40 0 17 0;
#X connect 41 0 17 0;
#X connect 41 1 11 0;
#X connect 42 0 43 0;
#X connect 43 0 47 1;
#X connect 44 0 45 0;
#X connect 45 0 47 1;
#X connect 46 0 13 0;
#X connect 46 1 14 0;
#X connect 46 2 15 0;
#X connect 46 3 16 0;
#X connect 46 4 18 0;
#X connect 46 5 19 0;
#X connect 46 6 20 0;
#X connect 46 7 21 0;
#X connect 46 8 22 0;
#X connect 46 9 23 0;
#X connect 46 10 24 0;
#X connect 46 11 25 0;
#X connect 46 12 26 0;
#X connect 46 13 27 0;
#X connect 46 14 28 0;
#X connect 46 15 29 0;
#X connect 46 16 30 0;
#X connect 46 17 31 0;
#X connect 46 18 32 0;
#X connect 46 19 33 0;
#X connect 46 20 34 0;
#X connect 46 21 35 0;
#X connect 46 22 36 0;
#X connect 46 23 37 0;
#X connect 46 24 38 0;
#X connect 46 25 39 0;
#X connect 46 26 40 0;
#X connect 47 0 2 0;
#X connect 47 1 3 0;
#X connect 48 0 49 0;
#X connect 48 0 50 0;
#X connect 49 0 47 1;
#X connect 50 0 47 1;
