#N canvas 0 22 654 475 10;
#X obj 100 100 cnv 15 100 60 empty empty colorControl 2 12 0 14 -233017
-66577 0;
#X obj 110 123 hsl 80 8 0 1 0 0 empty empty empty -2 -8 0 10 -262144
-1 -1 1200 1;
#X obj 110 131 hsl 80 8 0 1 0 0 empty empty empty -2 -8 0 10 -262144
-1 -1 5200 1;
#X obj 110 139 hsl 80 8 0 1 0 0 empty empty empty -2 -8 0 10 -262144
-1 -1 1300 1;
#X obj 404 292 t b f;
#X obj 370 294 t b f;
#X obj 110 147 hsl 80 8 0 1 0 0 empty empty empty -2 -8 0 10 -262144
-1 -1 700 1;
#X obj 452 295 t b f;
#X obj 352 406 outlet;
#X obj 282 77 inlet;
#X obj 340 78 inlet;
#X obj 444 80 inlet;
#X obj 396 80 inlet;
#X obj 284 115 / 128;
#X obj 343 115 / 128;
#X obj 391 114 / 128;
#X obj 444 117 / 128;
#X obj 343 321 pack 0 0 0 0;
#X obj 252 312 loadbang;
#X connect 1 0 17 0;
#X connect 2 0 5 0;
#X connect 3 0 4 0;
#X connect 4 0 17 0;
#X connect 4 1 17 2;
#X connect 5 0 17 0;
#X connect 5 1 17 1;
#X connect 6 0 7 0;
#X connect 7 0 17 0;
#X connect 7 1 17 3;
#X connect 9 0 13 0;
#X connect 10 0 14 0;
#X connect 11 0 16 0;
#X connect 12 0 15 0;
#X connect 13 0 1 0;
#X connect 14 0 2 0;
#X connect 15 0 3 0;
#X connect 16 0 6 0;
#X connect 17 0 8 0;
#X connect 18 0 17 0;
#X coords 0 -1 1 1 100 60 1 100 100;
