#N canvas 542 22 1008 602 10;
#X obj 689 87 gemwin;
#X msg 690 58 create \, 1;
#X msg 743 84 destroy;
#X obj 328 294 gemhead;
#X obj 330 329 pix_video;
#X obj 182 329 gemhead;
#X obj 183 374 pix_texture;
#X msg 67 205 lambda \$1;
#X msg 289 119 amt \$1 \$2;
#X msg 111 33 scale \$1 \$2;
#X msg 120 66 offset \$1 \$2;
#X floatatom 282 77 5 0 0 0 - - -;
#X obj 287 98 pack;
#X floatatom 323 77 5 0 0 0 - - -;
#X floatatom 107 -28 5 0 0 0 - - -;
#X obj 107 -1 pack;
#X floatatom 148 -28 5 0 0 0 - - -;
#X floatatom 186 -28 5 0 0 0 - - -;
#X obj 186 -1 pack;
#X floatatom 227 -28 5 0 0 0 - - -;
#X obj 185 299 tgl 15 0 empty empty empty 17 7 0 10 -262144 -1 -1 0
1;
#X obj 328 268 tgl 15 0 empty empty empty 17 7 0 10 -262144 -1 -1 0
1;
#X floatatom 52 15 5 0 0 0 - - -;
#X obj 6 304 pix_texture;
#X obj 456 237 tgl 15 0 empty empty empty 17 7 0 10 -262144 -1 -1 0
1;
#X obj 331 365 pix_texture;
#X obj 487 -74 nColorControl;
#X obj 461 346 square 2;
#X obj 459 265 gemhead 55;
#X obj 460 318 pix_texture;
#X msg 141 301 mode 1;
#X obj 180 348 pix_image img2.jpg;
#X msg 247 316 texunit 3;
#X msg 388 275 texunit 2;
#X obj 5 193 gemhead 55;
#X obj 6 275 pix_shader abhsflow;
#X msg 132 141 tex1 2;
#X msg 615 3 scale \$1 \$2 \$3 \$4;
#X msg 483 7 bias \$1 \$2 \$3 \$4;
#X obj 218 169 pix_shader abflowrepos;
#X floatatom 270 -39 5 0 0 0 - - -;
#X floatatom 304 -39 5 0 0 0 - - -;
#X floatatom 340 -38 5 0 0 0 - - -;
#X floatatom 378 -37 5 0 0 0 - - -;
#X obj 272 -14 pack 0 0 0 0;
#X obj 608 -74 nColorControl;
#X obj 216 147 gemhead 56;
#X obj 217 192 pix_texture;
#X obj 20 218 gemframebuffer;
#X obj 218 233 square 4;
#X msg 128 94 tex0 3;
#X obj 213 112 tgl 15 0 empty empty empty 17 7 0 10 -262144 -1 -1 0
1;
#X obj 10 153 tgl 15 0 empty empty empty 17 7 0 10 -262144 -1 -1 0
1;
#X obj 456 290 pix_shader rgbluma;
#X msg 530 225 tex0 2;
#X obj 537 124 loadbang;
#X obj 15 -119 loadbang;
#X obj 245 275 loadbang;
#X msg 8 -91 type FLOAT \, dimen 512 512 \, rectangle 1;
#X obj 7 329 square 4;
#X msg 386 297 mode 1;
#X obj 12 252 translateXYZ 0 0 -4;
#X obj 67 51 / 100;
#X connect 1 0 0 0;
#X connect 2 0 0 0;
#X connect 3 0 4 0;
#X connect 4 0 25 0;
#X connect 5 0 31 0;
#X connect 7 0 35 1;
#X connect 8 0 39 1;
#X connect 9 0 35 1;
#X connect 10 0 35 1;
#X connect 11 0 12 0;
#X connect 12 0 8 0;
#X connect 13 0 12 1;
#X connect 14 0 15 0;
#X connect 15 0 9 0;
#X connect 15 0 10 0;
#X connect 16 0 15 1;
#X connect 17 0 18 0;
#X connect 18 0 10 0;
#X connect 19 0 18 1;
#X connect 20 0 5 0;
#X connect 21 0 3 0;
#X connect 22 0 62 0;
#X connect 23 0 59 0;
#X connect 24 0 28 0;
#X connect 25 1 23 1;
#X connect 25 1 29 1;
#X connect 26 0 38 0;
#X connect 28 0 53 0;
#X connect 28 0 54 0;
#X connect 29 0 27 0;
#X connect 30 0 6 0;
#X connect 31 0 6 0;
#X connect 32 0 6 0;
#X connect 33 0 25 0;
#X connect 34 0 48 0;
#X connect 34 0 50 0;
#X connect 34 0 36 0;
#X connect 35 0 23 0;
#X connect 36 0 35 1;
#X connect 37 0 39 1;
#X connect 38 0 39 1;
#X connect 39 0 47 0;
#X connect 40 0 44 0;
#X connect 41 0 44 1;
#X connect 42 0 44 2;
#X connect 43 0 44 3;
#X connect 44 0 37 0;
#X connect 45 0 37 0;
#X connect 46 0 39 0;
#X connect 47 0 49 0;
#X connect 48 0 61 0;
#X connect 48 1 47 1;
#X connect 50 0 35 1;
#X connect 51 0 46 0;
#X connect 52 0 34 0;
#X connect 53 0 29 0;
#X connect 54 0 53 1;
#X connect 55 0 54 0;
#X connect 55 0 33 0;
#X connect 55 0 60 0;
#X connect 56 0 58 0;
#X connect 57 0 30 0;
#X connect 57 0 32 0;
#X connect 58 0 48 0;
#X connect 60 0 25 0;
#X connect 61 0 35 0;
#X connect 62 0 7 0;
