#N canvas 469 40 593 338 10;
#X obj 75 93 square 2;
#X obj 75 33 pix_video;
#X obj 409 -31 gemwin;
#X msg 394 -60 create \, 1;
#X msg 481 -63 destroy;
#X obj 75 64 pix_texture;
#X obj 74 -3 glsl_convolve;
#X obj 73 -38 gemhead;
#X msg 136 -32 1 1 1 2 8 2 1 1 1;
#X floatatom 261 -42 5 0 0 0 - - -;
#X msg 271 -20 0 0;
#X msg 20 36 mode 0;
#X connect 1 0 5 0;
#X connect 3 0 2 0;
#X connect 4 0 2 0;
#X connect 5 0 0 0;
#X connect 6 0 1 0;
#X connect 7 0 6 0;
#X connect 8 0 6 1;
#X connect 9 0 6 2;
#X connect 10 0 6 3;
#X connect 11 0 5 0;
