#N canvas 347 52 952 719 10;
#X obj 580 80 gemwin;
#X msg 581 51 create \, 1;
#X msg 634 77 destroy;
#X obj 36 435 square 2;
#X obj 181 131 / 100;
#X obj 225 129 / 100;
#X floatatom 177 96 5 0 0 0 - - -;
#X floatatom 217 94 5 0 0 0 - - -;
#X obj 184 201 / 100;
#X obj 228 199 / 100;
#X floatatom 180 166 5 0 0 0 - - -;
#X floatatom 220 164 5 0 0 0 - - -;
#X obj 36 389 pix_texture;
#X obj 32 158 glsl_blum_x;
#X obj 184 270 / 100;
#X obj 228 268 / 100;
#X floatatom 180 235 5 0 0 0 - - -;
#X floatatom 220 233 5 0 0 0 - - -;
#X obj 32 289 glsl_blum_y;
#X obj 541 161 nWinConvert;
#X obj 186 339 / 100;
#X obj 237 339 / 100;
#X floatatom 182 304 5 0 0 0 - - -;
#X floatatom 236 302 5 0 0 0 - - -;
#X obj 34 349 glsl_blum_x;
#X obj 541 138 s windowresolution;
#X obj 31 230 glsl_blum_x;
#X msg 541 113 512 512;
#X text 542 185 arg 1 numéro de chaine;
#X text 541 198 arg 2 position dans la chaine;
#X obj 41 -143 pix_video;
#X obj 41 -177 gemhead;
#X msg 601 112 320 240;
#X msg 671 110 1024 1024;
#X obj 33 122 glsl_continue 1 0 1;
#X obj 33 193 glsl_continue 1 1 1;
#X obj 32 258 glsl_continue 1 2 1;
#X obj 31 319 glsl_continue 1 3 1;
#X text 541 237 inlet3 message pour le framebuffer;
#X text 541 223 inlet/outlet 2 id texture;
#X msg 157 73 type FLOAT;
#X obj 291 424 square 2;
#X obj 436 114 / 100;
#X obj 480 112 / 100;
#X floatatom 432 79 5 0 0 0 - - -;
#X floatatom 472 77 5 0 0 0 - - -;
#X obj 439 184 / 100;
#X obj 483 182 / 100;
#X floatatom 435 149 5 0 0 0 - - -;
#X floatatom 475 147 5 0 0 0 - - -;
#X obj 291 372 pix_texture;
#X obj 287 141 glsl_blum_x;
#X obj 439 253 / 100;
#X obj 483 251 / 100;
#X floatatom 435 218 5 0 0 0 - - -;
#X floatatom 475 216 5 0 0 0 - - -;
#X obj 287 272 glsl_blum_y;
#X obj 441 322 / 100;
#X obj 492 322 / 100;
#X floatatom 437 287 5 0 0 0 - - -;
#X floatatom 491 285 5 0 0 0 - - -;
#X obj 290 347 glsl_blum_x;
#X obj 286 213 glsl_blum_x;
#X msg 399 56 type FLOAT;
#X obj 288 105 glsl_continue 2 0 1;
#X obj 288 176 glsl_continue 2 1 1;
#X obj 287 241 glsl_continue 2 2 1;
#X obj 286 302 glsl_continue 2 3 1;
#X obj 35 411 translateXYZ -2 -2 0;
#X obj 291 400 translateXYZ 2 2 0;
#X obj 35 101 glsl_ascii;
#X floatatom 83 -49 5 0 0 0 - - -;
#X obj 132 -49 / 100;
#X obj 176 -51 / 100;
#X obj 216 -57 / 100;
#X floatatom 128 -84 5 0 0 0 - - -;
#X floatatom 168 -86 5 0 0 0 - - -;
#X floatatom 215 -86 5 0 0 0 - - -;
#X msg 112 101 5;
#X obj 409 -147 gemhead;
#X obj 408 -78 pix_texture;
#X msg 497 -150 mode 1;
#X msg 470 -176 texunit 5;
#X obj 471 -213 loadbang;
#X obj 409 -120 pix_image font2.jpg;
#X obj 42 -122 glsl_continue 1 -1 1;
#X obj 287 74 pix_image img.jpg;
#X text 543 211 arg 3 mode ( 0=texture2D 1 texture_rectangle);
#X text 542 255 le dernier glsl_continue DOIT être linké au;
#X text 544 270 pix_texture qui suit;
#X obj 287 46 gemhead;
#X text 541 -11 ArNO Courcelle 24/11/2011;
#X connect 1 0 0 0;
#X connect 2 0 0 0;
#X connect 4 0 13 1;
#X connect 5 0 13 2;
#X connect 6 0 4 0;
#X connect 7 0 5 0;
#X connect 8 0 26 1;
#X connect 9 0 26 2;
#X connect 10 0 8 0;
#X connect 11 0 9 0;
#X connect 12 0 68 0;
#X connect 13 0 35 0;
#X connect 14 0 18 1;
#X connect 15 0 18 2;
#X connect 16 0 14 0;
#X connect 17 0 15 0;
#X connect 18 0 37 0;
#X connect 20 0 24 1;
#X connect 21 0 24 2;
#X connect 22 0 20 0;
#X connect 23 0 21 0;
#X connect 24 0 12 0;
#X connect 26 0 36 0;
#X connect 27 0 25 0;
#X connect 30 0 85 0;
#X connect 31 0 30 0;
#X connect 32 0 25 0;
#X connect 33 0 25 0;
#X connect 34 0 13 0;
#X connect 35 0 26 0;
#X connect 36 0 18 0;
#X connect 37 0 24 0;
#X connect 37 1 12 1;
#X connect 40 0 34 2;
#X connect 42 0 51 1;
#X connect 43 0 51 2;
#X connect 44 0 42 0;
#X connect 45 0 43 0;
#X connect 46 0 62 1;
#X connect 47 0 62 2;
#X connect 48 0 46 0;
#X connect 49 0 47 0;
#X connect 50 0 69 0;
#X connect 51 0 65 0;
#X connect 52 0 56 1;
#X connect 53 0 56 2;
#X connect 54 0 52 0;
#X connect 55 0 53 0;
#X connect 56 0 67 0;
#X connect 57 0 61 1;
#X connect 58 0 61 2;
#X connect 59 0 57 0;
#X connect 60 0 58 0;
#X connect 61 0 50 0;
#X connect 62 0 66 0;
#X connect 63 0 64 2;
#X connect 64 0 51 0;
#X connect 65 0 62 0;
#X connect 66 0 56 0;
#X connect 67 0 61 0;
#X connect 67 1 50 1;
#X connect 68 0 3 0;
#X connect 69 0 41 0;
#X connect 70 0 34 0;
#X connect 70 1 78 0;
#X connect 71 0 70 1;
#X connect 72 0 70 2;
#X connect 73 0 70 3;
#X connect 74 0 70 4;
#X connect 75 0 72 0;
#X connect 76 0 73 0;
#X connect 77 0 74 0;
#X connect 78 0 70 6;
#X connect 79 0 84 0;
#X connect 81 0 80 0;
#X connect 82 0 80 0;
#X connect 83 0 82 0;
#X connect 83 0 81 0;
#X connect 84 0 80 0;
#X connect 85 0 70 0;
#X connect 86 0 64 0;
#X connect 90 0 86 0;
