#N canvas 374 191 696 525 10;
#X obj 48 300 pix_texture;
#X obj 51 214 gemframebuffer;
#X obj 48 235 translateXYZ 0 0 -4;
#X obj 169 145 loadbang;
#X msg 162 169 dimen 512 512 \, rectangle 1;
#X obj 47 24 inlet;
#X obj 165 301 outlet;
#X obj 108 24 inlet;
#X obj 50 394 gemhead;
#X obj 50 430 outlet;
#X obj 164 58 r windowresolution;
#X obj 48 353 rectangle 4 4;
#X obj 71 59 r windowsize;
#X obj 175 353 unpack;
#X msg 163 101 dimen \$1 \$2;
#X obj 314 89 int;
#X msg 307 121 rectangle \$1;
#X obj 276 382 s;
#X obj 425 199 + 1;
#X obj 229 326 list;
#X obj 292 351 symbol;
#X obj 398 62 ii \$3;
#X obj 443 63 r shader_continue_\$1_\$2;
#X obj 347 61 ii \$2;
#X msg 297 314 shader_continue_\$1_\$2;
#X obj 290 62 ii \$1;
#X obj 355 254 pack;
#X obj 408 232 t b f;
#X obj 569 33 inlet;
#X connect 0 0 11 0;
#X connect 1 0 2 0;
#X connect 1 1 6 0;
#X connect 1 1 19 0;
#X connect 2 0 0 0;
#X connect 3 0 4 0;
#X connect 4 0 1 0;
#X connect 5 0 1 0;
#X connect 7 0 0 1;
#X connect 8 0 9 0;
#X connect 10 0 14 0;
#X connect 12 0 13 0;
#X connect 13 0 11 1;
#X connect 13 1 11 2;
#X connect 14 0 1 0;
#X connect 15 0 16 0;
#X connect 16 0 1 0;
#X connect 18 0 27 0;
#X connect 19 0 17 0;
#X connect 20 0 17 1;
#X connect 21 0 15 0;
#X connect 22 0 0 1;
#X connect 23 0 18 0;
#X connect 24 0 20 0;
#X connect 25 0 26 0;
#X connect 26 0 24 0;
#X connect 27 0 26 0;
#X connect 27 1 26 1;
#X connect 28 0 1 0;
