#N canvas 140 22 450 300 10;
#X obj 197 90 unpack;
#X obj 189 225 s windowsize;
#X obj 194 58 r windowresolution;
#X obj 186 132 expr ($f1/$f2)*4;
#X obj 186 172 pack f 4;
#X connect 0 0 3 0;
#X connect 0 1 3 1;
#X connect 2 0 0 0;
#X connect 3 0 4 0;
#X connect 4 0 1 0;
