#N canvas 186 22 450 300 10;
#X obj 350 33 inlet;
#X obj 5 35 inlet;
#X obj 39 220 outlet;
#X obj 161 224 outlet;
#X obj 166 59 inlet;
#X obj 397 33 inlet;
#X msg 150 92 blur \$1;
#X msg 242 104 gain \$1;
#X msg 396 79 tex \$1;
#X obj 40 170 pix_shader blum_x;
#X connect 0 0 7 0;
#X connect 1 0 9 0;
#X connect 4 0 6 0;
#X connect 5 0 8 0;
#X connect 6 0 9 1;
#X connect 7 0 9 1;
#X connect 8 0 9 1;
#X connect 9 0 2 0;
#X connect 9 1 3 0;
