#N canvas 553 319 740 468 10;
#X obj 28 25 gemhead;
#X obj 336 20 gemwin;
#X msg 337 -9 create \, 1;
#X msg 390 17 destroy;
#X obj 31 237 pix_texture;
#X obj 305 232 pix_video;
#X obj 305 266 pix_texture;
#X msg 446 238 mode 1;
#X obj 304 196 gemhead;
#X msg 404 200 texunit 4;
#X obj 385 116 loadbang;
#X obj 309 330 square 1;
#X obj 306 294 translateXYZ 3 -3 0;
#X obj 56 131 / 100;
#X obj 100 129 / 100;
#X floatatom 52 96 5 0 0 0 - - -;
#X floatatom 92 94 5 0 0 0 - - -;
#X msg 167 162 4;
#X obj 30 161 glsl_blum_x;
#X obj 516 55 gemhead;
#X obj 519 253 pix_texture;
#X obj 544 147 / 100;
#X obj 588 145 / 100;
#X floatatom 540 112 5 0 0 0 - - -;
#X floatatom 580 110 5 0 0 0 - - -;
#X obj 527 329 square 2;
#X obj 518 177 glsl_blum_y;
#X obj 26 54 gemframebuffer;
#X obj 26 80 translateXYZ 0 0 -4;
#X obj 39 313 square 4;
#X obj 121 -1 loadbang;
#X msg 114 23 dimen 512 512 \, rectangle 1;
#X connect 0 0 27 0;
#X connect 2 0 1 0;
#X connect 3 0 1 0;
#X connect 4 0 29 0;
#X connect 5 0 6 0;
#X connect 6 0 12 0;
#X connect 6 1 4 1;
#X connect 7 0 6 0;
#X connect 8 0 5 0;
#X connect 9 0 6 0;
#X connect 10 0 9 0;
#X connect 10 0 7 0;
#X connect 12 0 11 0;
#X connect 13 0 18 1;
#X connect 14 0 18 2;
#X connect 15 0 13 0;
#X connect 16 0 14 0;
#X connect 17 0 18 3;
#X connect 18 0 4 0;
#X connect 18 1 17 0;
#X connect 19 0 26 0;
#X connect 20 0 25 0;
#X connect 21 0 26 1;
#X connect 22 0 26 2;
#X connect 23 0 21 0;
#X connect 24 0 22 0;
#X connect 26 0 20 0;
#X connect 27 0 28 0;
#X connect 27 1 20 1;
#X connect 28 0 18 0;
#X connect 30 0 31 0;
#X connect 31 0 27 0;
