#N canvas 0 22 450 300 10;
#X obj 350 33 inlet;
#X obj 41 90 inlet;
#X obj 39 220 outlet;
#X obj 161 224 outlet;
#X obj 155 43 inlet;
#X obj 209 44 inlet;
#X obj 40 171 pix_shader led;
#X msg 350 80 tex \$1;
#X msg 110 84 dotdistance \$1;
#X msg 214 91 offset_red \$1 \$2;
#X obj 249 61 inlet;
#X obj 298 74 inlet;
#X msg 254 108 offset_green \$1 \$2;
#X msg 304 136 offset_blue \$1 \$2;
#X connect 0 0 7 0;
#X connect 1 0 6 0;
#X connect 4 0 8 0;
#X connect 5 0 9 0;
#X connect 6 0 2 0;
#X connect 6 1 3 0;
#X connect 7 0 6 1;
#X connect 8 0 6 1;
#X connect 9 0 6 1;
#X connect 10 0 12 0;
#X connect 11 0 13 0;
#X connect 12 0 6 1;
#X connect 13 0 6 1;
