#N canvas 776 181 930 574 10;
#X obj 41 104 gemwin 50;
#X msg 56 68 destroy \, 0;
#X obj 42 141 gemhead;
#X obj 41 207 gemframebuffer;
#X text 554 98 espace tampon \, comme une fenetre gem;
#X obj 41 324 teapot;
#X text 550 131 on peut ensuite le transformer en texture \, en image
ou vers la mémoire vive;
#X text 552 161 pix_snap transfère de la carte graphique vers la ram
;
#X obj 450 306 pix_texture;
#X obj 448 369 square 4;
#X text 474 249 on envoie ce qu'il y a dans le gemframebuffer en tant
que texture;
#X obj 41 244 translateXYZ 0 0 -4;
#X obj 41 295 rotateXYZ;
#X floatatom 68 267 5 0 0 0 - - -;
#X text 144 96 par defaut la resolution du gemframebuffer est en 200
200;
#X text 145 107 on lui dit de lui donner une taille de 500 500;
#X obj 39 401 gemhead;
#X obj 39 540 teapot;
#X obj 39 511 rotateXYZ;
#X floatatom 66 483 5 0 0 0 - - -;
#X obj 39 374 tgl 15 0 empty empty empty 17 7 0 10 -262144 -1 -1 1
1;
#X obj 493 187 tgl 15 0 empty empty empty 17 7 0 10 -262144 -1 -1 1
1;
#X msg 41 40 FSAA 8 \, create \, 1;
#X obj 62 436 color 1 0 0;
#X text 212 409 tout ce qui vient du gemframebuffer n'est pas lissé
;
#X text 212 423 pour le lisser \, on va utiliser 2 gemframebuffer \,
l'un ou on fait du upsampling et un deuxième en downsampling pour le
remetttre à la bonne taille;
#X obj 450 211 gemhead 52;
#X obj 242 320 pix_texture;
#X obj 243 380 square 4;
#X obj 237 169 tgl 15 0 empty empty empty 17 7 0 10 -262144 -1 -1 1
1;
#X obj 239 242 gemframebuffer;
#X obj 239 194 gemhead 51;
#X obj 239 264 translateXYZ 0 0 -4;
#X msg 137 128 dimen 200 200;
#X msg 360 179 dimen 100 100;
#X text 231 513 voir 09.snapshotSaveHD.pd pour enregistrer des très
grandes images;
#X connect 1 0 0 0;
#X connect 2 0 3 0;
#X connect 3 0 11 0;
#X connect 3 1 27 1;
#X connect 8 0 9 0;
#X connect 11 0 12 0;
#X connect 12 0 5 0;
#X connect 13 0 12 1;
#X connect 16 0 18 0;
#X connect 18 0 17 0;
#X connect 19 0 18 1;
#X connect 20 0 16 0;
#X connect 21 0 26 0;
#X connect 22 0 0 0;
#X connect 26 0 8 0;
#X connect 27 0 28 0;
#X connect 29 0 31 0;
#X connect 30 0 32 0;
#X connect 30 1 8 1;
#X connect 31 0 30 0;
#X connect 32 0 27 0;
#X connect 33 0 3 0;
#X connect 34 0 30 0;
