#N canvas 754 25 975 820 10;
#X obj 31 94 gemwin 50;
#X msg 31 30 create \, 1;
#X msg 46 58 destroy \, 0;
#X obj 209 -86 gemhead;
#X obj 245 52 rotateXYZ;
#X obj 208 156 GEMglColor4f 1 0 0 1;
#X obj 208 258 GEMglColor4f 0 1 0 1;
#X obj 359 4 bng 15 250 50 0 empty empty empty 17 7 0 10 -262144 -1
-1;
#X obj 472 -12 bng 15 250 50 0 empty empty empty 17 7 0 10 -262144
-1 -1;
#X obj 474 -55 loadbang;
#X text 384 -87 initialiser chaque objet Gem pour éviter GL : invalid
enumerant;
#X obj 275 -74 f;
#X obj 275 -43 t f f;
#X obj 319 -66 + 180;
#X msg 240 -18 \$1 1000;
#X obj 240 5 line;
#X obj 242 26 % 360;
#X obj 280 -104 bng 15 250 50 0 empty empty empty 17 7 0 10 -262144
-1 -1;
#X text 208 -167 Gem marche par état \, c'est comme des balises \,
il faut aussi fermer avec GEMGlDisable sinon d'autres objets GEM issus
d'un autre patch seraient invisibles;
#X text 134 82 on ouvre;
#X text 140 414 on ferme;
#X obj 208 119 GEMglBegin;
#X obj 208 411 GEMglEnd;
#X obj 359 25 GLdefine GL_SMOOTH;
#X obj 208 188 GEMglVertex3f -1 -1 0;
#X obj 208 225 GEMglVertex3f 1 -1 0;
#X obj 208 294 GEMglVertex3f 1 1 0;
#X obj 208 331 GEMglVertex3f -1 1 0;
#X obj 393 56 bng 15 250 50 0 empty empty empty 17 7 0 10 -262144 -1
-1;
#X obj 393 77 GLdefine GL_QUADS;
#X obj 550 60 bng 15 250 50 0 empty empty empty 17 7 0 10 -262144 -1
-1;
#X obj 550 81 GLdefine GL_POLYGON;
#X obj 208 86 GEMglShadeModel;
#X obj 208 374 GEMglVertex3f -2 0 0;
#X obj 706 66 bng 15 250 50 0 empty empty empty 17 7 0 10 -262144 -1
-1;
#X obj 706 86 GLdefine GL_QUAD_STRIP;
#X text -27 245 on dessine point à point les sommets;
#X text 465 130 http://www.opengl.org/sdk/docs/man/xhtml/glBegin.xml
;
#X connect 1 0 0 0;
#X connect 2 0 0 0;
#X connect 3 0 32 0;
#X connect 5 0 24 0;
#X connect 6 0 26 0;
#X connect 7 0 23 0;
#X connect 8 0 7 0;
#X connect 8 0 30 0;
#X connect 9 0 8 0;
#X connect 11 0 12 0;
#X connect 12 0 14 0;
#X connect 12 1 13 0;
#X connect 13 0 11 1;
#X connect 14 0 15 0;
#X connect 15 0 16 0;
#X connect 16 0 4 1;
#X connect 17 0 11 0;
#X connect 21 0 5 0;
#X connect 23 0 32 1;
#X connect 24 0 25 0;
#X connect 25 0 6 0;
#X connect 26 0 27 0;
#X connect 27 0 33 0;
#X connect 28 0 29 0;
#X connect 29 0 21 1;
#X connect 30 0 31 0;
#X connect 31 0 21 1;
#X connect 32 0 21 0;
#X connect 33 0 22 0;
#X connect 34 0 35 0;
#X connect 35 0 21 1;
