#N canvas 769 223 802 631 10;
#X obj 51 114 gemwin 50;
#X msg 66 78 destroy \, 0;
#X msg 51 50 reset \, create \, 1;
#X msg 196 458 draw point;
#X msg 195 485 draw fill;
#X msg 194 538 draw default;
#X obj 356 150 gemhead;
#X obj 469 442 loadbang;
#X text 509 482 pour avoir carré;
#X text 516 506 pour avoir rectangle : + de résolution en Y et scale
derriere;
#X text 354 539 carre 100 par 100 qui laisse la possibilité d'intervenir
sur chaque point;
#X obj 356 209 glsl_vertex;
#X obj 356 262 glsl_fragment;
#X obj 358 388 glsl_program;
#X obj 438 294 t b f;
#X obj 420 333 pack f f;
#X msg 420 357 link \$1 \$2;
#X obj 518 279 change;
#X floatatom 518 307 5 0 0 0 - - -;
#X obj 475 226 change;
#X floatatom 475 253 5 0 0 0 - - -;
#X text 376 18 fragment obligatoire pas le vertex;
#X msg 469 482 3;
#X obj 427 411 t b;
#X obj 358 447 color 0 1 0;
#X msg 598 338 deplacement \$1;
#X floatatom 597 267 5 0 0 0 - - -;
#X msg 484 415 0.5;
#X text 360 583 draw point pour voir la fonction sinus;
#X msg 194 509 draw line;
#X floatatom 304 430 5 0 0 0 - - -;
#X msg 499 148 open coordText2.vert;
#X msg 505 184 open coordText2.frag;
#X obj 358 514 cube;
#X obj 358 478 rotateXYZ;
#X connect 1 0 0 0;
#X connect 2 0 0 0;
#X connect 3 0 33 0;
#X connect 4 0 33 0;
#X connect 5 0 33 0;
#X connect 6 0 11 0;
#X connect 7 0 22 0;
#X connect 11 0 12 0;
#X connect 11 1 15 0;
#X connect 11 1 19 0;
#X connect 12 0 13 0;
#X connect 12 1 14 0;
#X connect 12 1 17 0;
#X connect 13 0 24 0;
#X connect 13 1 23 0;
#X connect 14 0 15 0;
#X connect 14 1 15 1;
#X connect 15 0 16 0;
#X connect 16 0 13 0;
#X connect 17 0 18 0;
#X connect 19 0 20 0;
#X connect 23 0 27 0;
#X connect 24 0 34 0;
#X connect 25 0 13 0;
#X connect 26 0 25 0;
#X connect 27 0 26 0;
#X connect 29 0 33 0;
#X connect 30 0 34 1;
#X connect 30 0 34 2;
#X connect 31 0 11 0;
#X connect 32 0 12 0;
#X connect 34 0 33 0;
