#N canvas 696 25 1222 935 10;
#X obj 51 146 gemwin 50;
#X msg 66 78 destroy \, 0;
#X obj 305 98 gemhead;
#X obj 305 241 glsl_fragment;
#X obj 305 367 glsl_program;
#X obj 330 297 change;
#X floatatom 330 325 5 0 0 0 - - -;
#X msg 114 111 color 1 0 0;
#X msg 51 50 reset \, dimen 640 480 \, create \, 1;
#X obj 469 -11 loadbang;
#X msg 120 152 color 0 0 0;
#X obj 305 186 glsl_geometry;
#X obj 305 152 glsl_vertex;
#X obj 606 369 t b f;
#X obj 576 422 t b f;
#X obj 576 468 pack f f f;
#X msg 576 517 link \$1 \$2 \$3;
#X obj 469 24 t b b b;
#X obj 305 616 pix_texture;
#X msg 427 579 texunit 0;
#X obj 510 562 loadbang;
#X msg 245 145 print;
#X msg 249 206 print;
#X obj 305 498 pix_video;
#X floatatom 440 624 5 0 0 0 - - -;
#X msg 478 620 3;
#X obj 521 616 loadbang;
#X obj 305 468 rotateXYZ;
#X floatatom 237 369 5 0 0 0 - - -;
#X msg 469 53 open DessinGeometryAUDIO.vert;
#X msg 488 78 open DessinGeometryAUDIO.geom;
#X msg 509 108 open DessinGeometryAUDIO.frag;
#X obj 141 531 pix_resize 512 512;
#X obj 434 -4 bng 15 250 50 0 empty empty empty 17 7 0 10 -262144 -1
-1;
#X obj 492 186 fps;
#X obj 306 59 tgl 15 0 empty empty empty 17 7 0 10 -262144 -1 -1 1
1;
#N canvas 231 103 529 356 audio 0;
#X obj 215 194 pack~;
#X obj 214 62 hip~ 15;
#X obj 213 31 inlet~;
#X obj 28 148 block~ 2048;
#X obj 215 318 outlet;
#X connect 0 0 4 0;
#X connect 1 0 0 0;
#X connect 2 0 1 0;
#X restore 763 417 pd audio;
#X obj 915 379 dac~;
#X obj 915 344 *~ 0;
#X obj 956 344 *~ 0;
#X msg 999 127 play;
#X msg 899 138 open \$1;
#X obj 899 110 openpanel;
#X obj 899 86 bng 15 250 50 0 empty empty empty 17 7 0 10 -262144 -1
-1;
#X msg 1039 126 stop;
#X obj 925 306 r v;
#X msg 995 52 open http://wnycam.streamguys.com;
#X obj 916 281 readanysf~ 2;
#X floatatom 1020 307 5 0 0 0 - - -;
#X floatatom 1005 227 16 0 0 0 - - -;
#X obj 1008 204 hsl 128 15 0 500 0 0 empty empty empty -2 -8 0 10 -260818
-1 -1 2438 1;
#X msg 1005 247 time_seek \$1;
#X obj 965 486 gemhead 45;
#X obj 965 677 pix_texture;
#X obj 1027 509 loadbang;
#X msg 1084 598 texunit 1;
#X obj 864 773 rotateXYZ;
#X floatatom 889 710 5 0 0 0 - - -;
#X obj 965 719 rectangle 5.334 4;
#X msg 985 553 GREY;
#X msg 1083 642 quality \$1;
#X obj 1183 618 tgl 15 0 empty empty empty 17 7 0 10 -262144 -1 -1
1 1;
#X msg 916 514 RGBA;
#X msg 917 494 RGB;
#X obj 865 677 scaleXYZ;
#X floatatom 954 636 5 0 0 0 - - -;
#X floatatom 945 614 5 0 0 0 - - -;
#X floatatom 1067 679 5 0 0 0 - - -;
#X floatatom 1108 681 5 0 0 0 - - -;
#X obj 305 643 mesh_square 128 128;
#X msg 428 396 Tex0 0 \, Tex1 1;
#X floatatom 322 417 5 0 0 0 - - -;
#X msg 380 451 180;
#X msg 345 557 quality \$1;
#X obj 445 533 tgl 15 0 empty empty empty 17 7 0 10 -262144 -1 -1 1
1;
#X msg 395 339 txdeform \$1;
#X obj 428 373 t b b;
#X msg 393 312 5;
#X floatatom 437 311 5 0 0 0 - - -;
#X msg 175 582 draw line;
#X msg 175 601 draw point;
#X msg 175 563 draw default;
#X obj 175 622 t a;
#X floatatom 826 288 5 0 0 0 - - -;
#X obj 762 324 *~ 1;
#X obj 964 580 pix_set 128 1;
#X connect 1 0 0 0;
#X connect 2 0 12 0;
#X connect 3 0 4 0;
#X connect 3 1 5 0;
#X connect 3 1 14 0;
#X connect 4 0 27 0;
#X connect 4 1 76 0;
#X connect 5 0 6 0;
#X connect 7 0 0 0;
#X connect 8 0 0 0;
#X connect 9 0 17 0;
#X connect 10 0 0 0;
#X connect 11 0 3 0;
#X connect 11 1 13 0;
#X connect 12 0 11 0;
#X connect 12 1 15 0;
#X connect 13 0 15 0;
#X connect 13 1 15 2;
#X connect 14 0 15 0;
#X connect 14 1 15 1;
#X connect 15 0 16 0;
#X connect 16 0 4 0;
#X connect 17 0 29 0;
#X connect 17 1 30 0;
#X connect 17 2 31 0;
#X connect 18 0 69 0;
#X connect 19 0 18 0;
#X connect 20 0 19 0;
#X connect 21 0 11 0;
#X connect 22 0 3 0;
#X connect 23 0 18 0;
#X connect 24 0 69 1;
#X connect 25 0 24 0;
#X connect 26 0 25 0;
#X connect 27 0 23 0;
#X connect 28 0 27 1;
#X connect 29 0 12 0;
#X connect 30 0 11 0;
#X connect 31 0 3 0;
#X connect 33 0 17 0;
#X connect 35 0 2 0;
#X connect 36 0 85 1;
#X connect 38 0 37 0;
#X connect 39 0 37 1;
#X connect 40 0 47 0;
#X connect 41 0 47 0;
#X connect 42 0 41 0;
#X connect 43 0 42 0;
#X connect 44 0 47 0;
#X connect 45 0 38 1;
#X connect 45 0 39 1;
#X connect 46 0 47 0;
#X connect 47 0 38 0;
#X connect 47 0 84 0;
#X connect 47 1 39 0;
#X connect 48 0 38 1;
#X connect 48 0 39 1;
#X connect 49 0 51 0;
#X connect 50 0 49 0;
#X connect 51 0 47 0;
#X connect 52 0 85 0;
#X connect 54 0 55 0;
#X connect 54 0 59 0;
#X connect 55 0 53 0;
#X connect 56 0 53 0;
#X connect 57 0 56 3;
#X connect 59 0 85 0;
#X connect 60 0 53 0;
#X connect 61 0 60 0;
#X connect 62 0 85 0;
#X connect 63 0 85 0;
#X connect 64 0 56 0;
#X connect 65 0 64 2;
#X connect 66 0 64 1;
#X connect 67 0 58 1;
#X connect 68 0 58 2;
#X connect 70 0 4 0;
#X connect 71 0 27 2;
#X connect 72 0 27 3;
#X connect 73 0 18 0;
#X connect 74 0 73 0;
#X connect 75 0 4 0;
#X connect 76 0 77 0;
#X connect 76 1 70 0;
#X connect 77 0 75 0;
#X connect 78 0 75 0;
#X connect 79 0 82 0;
#X connect 80 0 82 0;
#X connect 81 0 82 0;
#X connect 82 0 69 0;
#X connect 83 0 84 1;
#X connect 84 0 36 0;
#X connect 85 0 64 0;
