#N canvas 696 25 1222 935 10;
#X obj 51 146 gemwin 50;
#X msg 66 78 destroy \, 0;
#X obj 305 98 gemhead;
#X obj 305 188 glsl_vertex;
#X obj 305 241 glsl_fragment;
#X obj 305 367 glsl_program;
#X obj 387 273 t b f;
#X obj 369 312 pack f f;
#X msg 369 336 link \$1 \$2;
#X obj 467 258 change;
#X floatatom 467 286 5 0 0 0 - - -;
#X obj 424 205 change;
#X floatatom 424 232 5 0 0 0 - - -;
#X obj 400 369 t b;
#X obj 305 572 pix_texture;
#X msg 114 111 color 1 0 0;
#X obj 406 577 loadbang;
#X obj 305 458 rotateXYZ;
#X floatatom 359 432 5 0 0 0 - - -;
#X floatatom 322 432 5 0 0 0 - - -;
#X obj 707 328 pix_texture;
#X msg 403 533 texunit 0;
#X msg 403 502 texunit 1;
#X msg 51 50 reset \, dimen 640 480 \, create \, 1;
#X msg 406 608 4;
#X obj 68 636 pix_texture;
#X msg 94 608 texunit 1;
#X msg 192 605 texunit 0;
#X obj 68 234 pix_video;
#X obj 305 643 rectangle 5.334 4;
#X obj 305 123 gemframebuffer;
#X obj 305 152 translateXYZ 0 0 -4;
#X obj 707 229 gemhead 60;
#X obj 707 430 rectangle 5.333 -4;
#X obj 627 585 pix_texture;
#X msg 685 544 texunit 0;
#X obj 625 136 gemframebuffer;
#X obj 625 165 translateXYZ 0 0 -4;
#X obj 94 579 loadbang;
#X msg 400 393 Tex0 1 \, Tex1 0;
#X text 517 394 Tex0 video;
#X text 520 411 Tex1 Feedback;
#X msg 448 127 open fantome.vert;
#X msg 456 162 open fantome.frag;
#X obj 463 25 loadbang;
#X obj 486 516 loadbang;
#X msg 463 52 dimen 512 512 \, format RGB32;
#X obj 625 111 gemhead 51;
#X msg 675 511 texunit 2;
#X obj 675 478 loadbang;
#X obj 731 256 loadbang;
#X msg 731 291 texunit 3;
#X obj 626 656 rectangle 4 4;
#X obj 873 204 glsl_vertex;
#X obj 873 257 glsl_fragment;
#X obj 875 383 glsl_program;
#X obj 955 289 t b f;
#X obj 937 328 pack f f;
#X msg 937 352 link \$1 \$2;
#X obj 1035 274 change;
#X floatatom 1035 302 5 0 0 0 - - -;
#X obj 992 221 change;
#X floatatom 992 248 5 0 0 0 - - -;
#X obj 968 385 t b;
#X obj 876 474 rotateXYZ;
#X floatatom 929 448 5 0 0 0 - - -;
#X floatatom 893 448 5 0 0 0 - - -;
#X msg 974 624 4;
#X msg 968 409 Tex0 1 \, Tex1 0;
#X obj 451 102 loadbang;
#X obj 1017 114 loadbang;
#X msg 1017 143 open fantomediff.vert;
#X msg 1024 178 open fantomediff.frag;
#X obj 873 114 gemhead 65;
#X obj 708 205 tgl 15 0 empty empty empty 17 7 0 10 -262144 -1 -1 0
1;
#X obj 874 659 rectangle 5.334 -4;
#X msg 20 480 reset;
#X text 189 497 threshold;
#X obj 88 529 pix_background;
#X msg 131 498 \$1 \$1 \$1;
#X msg 131 463 0.5;
#X floatatom 131 482 5 0 0 0 - - -;
#X msg 191 579 texunit 9;
#X obj 1009 557 pix_texture;
#X obj 196 379 spigot;
#X obj 196 408 t a b;
#X msg 229 340 1;
#X msg 249 377 0;
#X obj 709 186 init 0;
#X text 733 207 comment;
#X obj 96 433 pix_share_write 599 512 512 RGBA;
#X obj 68 265 pix_resize 512 512;
#X obj 1009 530 pix_share_read 599 512 512 RGBA;
#X obj 1009 587 rectangle 5.334 4;
#X obj 119 329 pix_separator;
#X obj 88 398 pix_separator;
#X obj 68 289 t a a;
#X obj 68 206 gemhead 45;
#X obj 1009 506 gemhead 63;
#X obj 873 145 alpha;
#X msg 935 535 texunit 3;
#X obj 932 508 loadbang;
#X connect 1 0 0 0;
#X connect 2 0 30 0;
#X connect 3 0 4 0;
#X connect 3 1 7 0;
#X connect 3 1 11 0;
#X connect 4 0 5 0;
#X connect 4 1 6 0;
#X connect 4 1 9 0;
#X connect 5 0 17 0;
#X connect 5 1 13 0;
#X connect 6 0 7 0;
#X connect 6 1 7 1;
#X connect 7 0 8 0;
#X connect 8 0 5 0;
#X connect 9 0 10 0;
#X connect 11 0 12 0;
#X connect 13 0 39 0;
#X connect 14 0 29 0;
#X connect 14 1 20 1;
#X connect 15 0 0 0;
#X connect 16 0 24 0;
#X connect 17 0 14 0;
#X connect 18 0 17 2;
#X connect 19 0 17 1;
#X connect 20 0 33 0;
#X connect 21 0 14 0;
#X connect 22 0 14 0;
#X connect 23 0 0 0;
#X connect 24 0 29 1;
#X connect 26 0 25 0;
#X connect 27 0 25 0;
#X connect 28 0 91 0;
#X connect 30 0 31 0;
#X connect 30 1 34 1;
#X connect 31 0 3 0;
#X connect 32 0 20 0;
#X connect 34 0 52 0;
#X connect 35 0 34 0;
#X connect 36 0 37 0;
#X connect 36 1 14 1;
#X connect 37 0 34 0;
#X connect 38 0 26 0;
#X connect 39 0 5 0;
#X connect 42 0 3 0;
#X connect 43 0 4 0;
#X connect 44 0 46 0;
#X connect 45 0 21 0;
#X connect 46 0 30 0;
#X connect 46 0 36 0;
#X connect 47 0 36 0;
#X connect 48 0 34 0;
#X connect 49 0 48 0;
#X connect 50 0 51 0;
#X connect 51 0 20 0;
#X connect 53 0 54 0;
#X connect 53 1 57 0;
#X connect 53 1 61 0;
#X connect 54 0 55 0;
#X connect 54 1 56 0;
#X connect 54 1 59 0;
#X connect 55 0 64 0;
#X connect 55 1 63 0;
#X connect 56 0 57 0;
#X connect 56 1 57 1;
#X connect 57 0 58 0;
#X connect 58 0 55 0;
#X connect 59 0 60 0;
#X connect 61 0 62 0;
#X connect 63 0 68 0;
#X connect 64 0 75 0;
#X connect 65 0 64 2;
#X connect 66 0 64 1;
#X connect 67 0 75 1;
#X connect 68 0 55 0;
#X connect 69 0 42 0;
#X connect 69 0 43 0;
#X connect 70 0 71 0;
#X connect 70 0 72 0;
#X connect 71 0 53 0;
#X connect 72 0 54 0;
#X connect 73 0 99 0;
#X connect 74 0 32 0;
#X connect 76 0 78 0;
#X connect 79 0 78 1;
#X connect 80 0 81 0;
#X connect 81 0 79 0;
#X connect 82 0 25 0;
#X connect 83 0 93 0;
#X connect 84 0 85 0;
#X connect 85 0 90 0;
#X connect 85 1 87 0;
#X connect 86 0 84 1;
#X connect 87 0 84 1;
#X connect 88 0 74 0;
#X connect 91 0 96 0;
#X connect 92 0 83 0;
#X connect 94 0 84 0;
#X connect 95 0 78 0;
#X connect 96 0 95 0;
#X connect 96 0 25 0;
#X connect 96 1 94 0;
#X connect 97 0 28 0;
#X connect 98 0 92 0;
#X connect 99 0 53 0;
#X connect 100 0 83 0;
#X connect 101 0 100 0;
