#N canvas 696 25 1222 935 10;
#X obj 51 146 gemwin 50;
#X msg 66 78 destroy \, 0;
#X obj 305 98 gemhead;
#X obj 305 241 glsl_fragment;
#X obj 305 367 glsl_program;
#X obj 330 297 change;
#X floatatom 330 325 5 0 0 0 - - -;
#X obj 428 373 t b;
#X msg 114 111 color 1 0 0;
#X msg 51 50 reset \, dimen 640 480 \, create \, 1;
#X obj 469 -11 loadbang;
#X msg 120 152 color 0 0 0;
#X msg 428 396 tex0 0;
#X obj 305 186 glsl_geometry;
#X obj 305 152 glsl_vertex;
#X obj 606 369 t b f;
#X obj 576 422 t b f;
#X obj 576 468 pack f f f;
#X msg 576 517 link \$1 \$2 \$3;
#X obj 469 24 t b b b;
#X msg 509 108 open DessinGeometry.frag;
#X msg 488 78 open DessinGeometry.geom;
#X msg 469 53 open DessinGeometry.vert;
#X obj 305 616 pix_texture;
#X obj 305 551 pix_resize 512 512;
#X msg 427 579 texunit 0;
#X obj 510 562 loadbang;
#X msg 245 145 print;
#X msg 249 206 print;
#X obj 305 498 pix_video;
#X floatatom 440 624 5 0 0 0 - - -;
#X msg 478 620 3;
#X obj 521 616 loadbang;
#X obj 305 468 rotateXYZ;
#X floatatom 236 369 5 0 0 0 - - -;
#X obj 305 643 mesh_square 200 200;
#X connect 1 0 0 0;
#X connect 2 0 14 0;
#X connect 3 0 4 0;
#X connect 3 1 5 0;
#X connect 3 1 16 0;
#X connect 4 0 33 0;
#X connect 4 1 7 0;
#X connect 5 0 6 0;
#X connect 7 0 12 0;
#X connect 8 0 0 0;
#X connect 9 0 0 0;
#X connect 10 0 19 0;
#X connect 11 0 0 0;
#X connect 12 0 4 0;
#X connect 13 0 3 0;
#X connect 13 1 15 0;
#X connect 14 0 13 0;
#X connect 14 1 17 0;
#X connect 15 0 17 0;
#X connect 15 1 17 2;
#X connect 16 0 17 0;
#X connect 16 1 17 1;
#X connect 17 0 18 0;
#X connect 18 0 4 0;
#X connect 19 0 22 0;
#X connect 19 1 21 0;
#X connect 19 2 20 0;
#X connect 20 0 3 0;
#X connect 21 0 13 0;
#X connect 22 0 14 0;
#X connect 23 0 35 0;
#X connect 24 0 23 0;
#X connect 25 0 23 0;
#X connect 26 0 25 0;
#X connect 27 0 13 0;
#X connect 28 0 3 0;
#X connect 29 0 24 0;
#X connect 30 0 35 1;
#X connect 31 0 30 0;
#X connect 32 0 31 0;
#X connect 33 0 29 0;
#X connect 34 0 33 1;
