#N canvas 0 22 740 501 10;
#X msg 279 191 W00 \$1;
#X msg 519 215 height \$1;
#X msg 515 177 sum \$1;
#X msg 279 220 W01 \$2;
#X msg 281 249 W02 \$3;
#X msg 358 191 W10 \$4;
#X msg 361 218 W11 \$5;
#X msg 358 254 W12 \$6;
#X msg 430 189 W20 \$7;
#X msg 431 223 W21 \$8;
#X msg 428 251 W22 \$9;
#X obj 288 115 inlet;
#X obj 504 120 inlet;
#X msg 517 249 width \$2;
#X obj 590 121 inlet;
#X obj 125 106 inlet;
#X obj 122 326 outlet;
#X obj 121 273 pix_shader convolve;
#X connect 0 0 17 1;
#X connect 1 0 17 1;
#X connect 2 0 17 1;
#X connect 3 0 17 1;
#X connect 4 0 17 1;
#X connect 5 0 17 1;
#X connect 6 0 17 1;
#X connect 7 0 17 1;
#X connect 8 0 17 1;
#X connect 9 0 17 1;
#X connect 10 0 17 1;
#X connect 11 0 0 0;
#X connect 11 0 3 0;
#X connect 11 0 4 0;
#X connect 11 0 5 0;
#X connect 11 0 6 0;
#X connect 11 0 7 0;
#X connect 11 0 8 0;
#X connect 11 0 9 0;
#X connect 11 0 10 0;
#X connect 12 0 2 0;
#X connect 13 0 17 1;
#X connect 14 0 1 0;
#X connect 14 0 13 0;
#X connect 15 0 17 0;
#X connect 17 0 16 0;
