#N canvas 868 22 396 302 10;
#X obj 74 52 gemhead;
#X msg 281 94 mode \$1;
#X msg 278 141 quality 1;
#X obj 280 73 tgl 15 0 empty empty empty 17 7 0 10 -262144 -1 -1 1
1;
#X obj 279 117 loadbang;
#X obj 74 151 pix_video;
#X obj 75 175 pix_texture;
#X floatatom 169 49 5 0 0 0 - - -;
#X floatatom 167 -22 5 0 0 0 - - -;
#X obj 180 72 * 0.001;
#X obj 4 -23 a_gemwin;
#X obj 74 112 a_shad bloom;
#X obj 75 200 rectangle 4 4;
#X msg 172 14 gain \$1;
#X msg 178 101 blur \$1;
#X connect 0 0 11 0;
#X connect 1 0 6 0;
#X connect 2 0 6 0;
#X connect 3 0 1 0;
#X connect 4 0 2 0;
#X connect 5 0 6 0;
#X connect 6 0 12 0;
#X connect 7 0 9 0;
#X connect 8 0 13 0;
#X connect 9 0 14 0;
#X connect 11 0 5 0;
#X connect 13 0 11 1;
#X connect 14 0 11 1;
