#N canvas 667 229 495 392 10;
#X obj 96 38 gemhead;
#X floatatom 217 175 5 0 0 0 - - -;
#X obj 96 311 pix_texture;
#X obj 95 341 rectangle 4 4;
#X msg 302 273 mode \$1;
#X msg 299 320 quality 1;
#X obj 301 252 tgl 15 0 empty empty empty 17 7 0 10 -262144 -1 -1 1
1;
#X msg 216 218 width \$1;
#X obj 217 196 * 0.1;
#X obj 300 296 loadbang;
#X obj 96 279 pix_video;
#X obj 97 235 a_shad sobel;
#X obj -68 -18 a_gemwin;
#X floatatom 193 100 5 0 0 0 - - -;
#X obj 193 121 * 0.1;
#X msg 192 143 height \$1;
#X connect 0 0 11 0;
#X connect 1 0 8 0;
#X connect 2 0 3 0;
#X connect 4 0 2 0;
#X connect 5 0 2 0;
#X connect 6 0 4 0;
#X connect 7 0 11 1;
#X connect 8 0 7 0;
#X connect 9 0 5 0;
#X connect 10 0 2 0;
#X connect 11 0 10 0;
#X connect 13 0 14 0;
#X connect 14 0 15 0;
#X connect 15 0 11 1;
