#N canvas 749 65 575 435 10;
#X obj 86 28 gemhead;
#X obj 85 345 rectangle 4 4;
#X obj 7 -19 a_gemwin;
#X obj 85 266 a_shad Brick;
#X floatatom 260 140 5 0 0 0 - - -;
#X floatatom 316 140 5 0 0 0 - - -;
#X floatatom 376 142 5 0 0 0 - - -;
#N canvas 0 22 450 300 a_var2 0;
#X obj 50 1 inlet;
#X obj 100 1 inlet;
#X obj 150 1 inlet;
#X obj 50 50 * 0.1;
#X obj 100 50 * 0.1;
#X obj 150 50 * 0.1;
#X obj 50 100 t b a;
#X obj 100 100 t b a;
#X obj 150 100 t b a;
#X obj 100 150 symbol BrickColor;
#X obj 100 200 pack s 0 0 0 0 0 0 0;
#X obj 100 250 a_modVar;
#X obj 100 300 outlet;
#X connect 0 0 3 0;
#X connect 1 0 4 0;
#X connect 2 0 5 0;
#X connect 3 0 6 0;
#X connect 4 0 7 0;
#X connect 5 0 8 0;
#X connect 6 0 9 0;
#X connect 6 1 10 1;
#X connect 7 0 9 0;
#X connect 7 1 10 2;
#X connect 8 0 9 0;
#X connect 8 1 10 3;
#X connect 9 0 10 0;
#X connect 10 0 11 0;
#X connect 11 0 12 0;
#X restore 259 160 pd a_var2 BrickColor;
#N canvas 0 22 450 300 a_var4 0;
#X obj 50 1 inlet;
#X obj 100 1 inlet;
#X obj 50 50 * 0.1;
#X obj 100 50 * 0.1;
#X obj 50 100 t b a;
#X obj 100 100 t b a;
#X obj 100 150 symbol BrickSize;
#X obj 100 200 pack s 0 0 0 0 0 0 0;
#X obj 100 250 a_modVar;
#X obj 100 300 outlet;
#X connect 0 0 2 0;
#X connect 1 0 3 0;
#X connect 2 0 4 0;
#X connect 3 0 5 0;
#X connect 4 0 6 0;
#X connect 4 1 7 1;
#X connect 5 0 6 0;
#X connect 5 1 7 2;
#X connect 6 0 7 0;
#X connect 7 0 8 0;
#X connect 8 0 9 0;
#X restore 106 158 pd a_var4 BrickSize;
#X floatatom 105 134 5 0 0 0 - - -;
#X floatatom 217 138 5 0 0 0 - - -;
#N canvas 0 22 448 374 a_var5 0;
#X obj 50 1 inlet;
#X obj 100 1 inlet;
#X obj 50 50 * 0.1;
#X obj 100 50 * 0.1;
#X obj 50 100 t b a;
#X obj 100 100 t b a;
#X obj 100 150 symbol BrickPct;
#X obj 100 200 pack s 0 0 0 0 0 0 0;
#X obj 100 250 a_modVar;
#X obj 100 300 outlet;
#X connect 0 0 2 0;
#X connect 1 0 3 0;
#X connect 2 0 4 0;
#X connect 3 0 5 0;
#X connect 4 0 6 0;
#X connect 4 1 7 1;
#X connect 5 0 6 0;
#X connect 5 1 7 2;
#X connect 6 0 7 0;
#X connect 7 0 8 0;
#X connect 8 0 9 0;
#X restore 416 160 pd a_var5 BrickPct;
#X floatatom 417 140 5 0 0 0 - - -;
#X floatatom 521 140 5 0 0 0 - - -;
#N canvas 0 22 450 300 a_var7 0;
#X obj 50 1 inlet;
#X obj 100 1 inlet;
#X obj 150 1 inlet;
#X obj 50 50 * 0.1;
#X obj 100 50 * 0.1;
#X obj 150 50 * 0.1;
#X obj 50 100 t b a;
#X obj 100 100 t b a;
#X obj 150 100 t b a;
#X obj 100 150 symbol MortarColor;
#X obj 100 200 pack s 0 0 0 0 0 0 0;
#X obj 100 250 a_modVar;
#X obj 100 300 outlet;
#X connect 0 0 3 0;
#X connect 1 0 4 0;
#X connect 2 0 5 0;
#X connect 3 0 6 0;
#X connect 4 0 7 0;
#X connect 5 0 8 0;
#X connect 6 0 9 0;
#X connect 6 1 10 1;
#X connect 7 0 9 0;
#X connect 7 1 10 2;
#X connect 8 0 9 0;
#X connect 8 1 10 3;
#X connect 9 0 10 0;
#X connect 10 0 11 0;
#X connect 11 0 12 0;
#X restore 393 270 pd a_var7 MortarColor;
#X floatatom 400 241 5 0 0 0 - - -;
#X floatatom 448 245 5 0 0 0 - - -;
#X floatatom 504 241 5 0 0 0 - - -;
#N canvas 0 22 450 300 a_var8 0;
#X obj 50 1 inlet;
#X obj 100 1 inlet;
#X obj 150 1 inlet;
#X obj 50 50 * 0.1;
#X obj 100 50 * 0.1;
#X obj 150 50 * 0.1;
#X obj 50 100 t b a;
#X obj 100 100 t b a;
#X obj 150 100 t b a;
#X obj 100 150 symbol LightPosition;
#X obj 100 200 pack s 0 0 0 0 0 0 0;
#X obj 100 250 a_modVar;
#X obj 100 300 outlet;
#X connect 0 0 3 0;
#X connect 1 0 4 0;
#X connect 2 0 5 0;
#X connect 3 0 6 0;
#X connect 4 0 7 0;
#X connect 5 0 8 0;
#X connect 6 0 9 0;
#X connect 6 1 10 1;
#X connect 7 0 9 0;
#X connect 7 1 10 2;
#X connect 8 0 9 0;
#X connect 8 1 10 3;
#X connect 9 0 10 0;
#X connect 10 0 11 0;
#X connect 11 0 12 0;
#X restore 392 218 pd a_var8 LightPosition;
#X floatatom 393 198 5 0 0 0 - - -;
#X floatatom 458 199 5 0 0 0 - - -;
#X floatatom 527 199 5 0 0 0 - - -;
#X connect 0 0 3 0;
#X connect 3 0 1 0;
#X connect 4 0 7 0;
#X connect 5 0 7 1;
#X connect 6 0 7 2;
#X connect 7 0 3 1;
#X connect 8 0 3 1;
#X connect 9 0 8 0;
#X connect 10 0 8 1;
#X connect 11 0 3 1;
#X connect 12 0 11 0;
#X connect 13 0 11 1;
#X connect 14 0 3 1;
#X connect 15 0 14 0;
#X connect 16 0 14 1;
#X connect 17 0 14 2;
#X connect 18 0 3 1;
#X connect 19 0 18 0;
#X connect 20 0 18 1;
#X connect 21 0 18 2;
