#N canvas 613 284 738 578 10;
#X obj 98 128 gemhead;
#X msg 22 323 mode \$1;
#X msg 20 370 quality 1;
#X obj 22 302 tgl 15 0 empty empty empty 17 7 0 10 -262144 -1 -1 0
1;
#X obj 20 346 loadbang;
#X floatatom 339 197 5 0 0 0 - - -;
#X obj 98 387 pix_texture;
#X obj 337 218 * 0.01;
#X msg 336 240 SpecularContribution \$1;
#X floatatom 488 178 5 0 0 0 - - -;
#X obj 486 199 * 0.01;
#X msg 485 221 DiffuseContribution \$1;
#X floatatom 476 247 5 0 0 0 - - -;
#X obj 474 268 * 0.01;
#X msg 468 289 Shininess \$1;
#X floatatom 224 194 5 0 0 0 - - -;
#X obj 222 215 * 0.01;
#X floatatom 513 336 5 0 0 0 - - -;
#X obj 511 357 * 0.01;
#X msg 222 235 MaxIterations \$1;
#X msg 515 380 Zoom \$1;
#X floatatom 641 237 5 0 0 0 - - -;
#X obj 644 255 * 0.01;
#X floatatom 579 246 5 0 0 0 - - -;
#X obj 572 277 * 0.01;
#X msg 646 273 Xcenter \$1;
#X msg 571 300 Ycenter \$1;
#X floatatom 587 339 5 0 0 0 - - -;
#X obj 585 360 * 0.01;
#X floatatom 638 348 5 0 0 0 - - -;
#X obj 641 366 * 0.01;
#X msg 579 381 Creal \$1;
#X msg 643 384 Cimag \$1;
#X obj 98 412 square 5;
#X obj 15 10 a_gemwin;
#X obj 277 148 a_var OuterColor;
#X floatatom 321 125 5 0 0 0 - - -;
#X floatatom 280 124 5 0 0 0 - - -;
#X floatatom 352 128 5 0 0 0 - - -;
#X obj 384 147 a_var LightPosition;
#X floatatom 432 121 5 0 0 0 - - -;
#X floatatom 391 120 5 0 0 0 - - -;
#X floatatom 469 124 5 0 0 0 - - -;
#X floatatom 580 118 5 0 0 0 - - -;
#X floatatom 539 117 5 0 0 0 - - -;
#X floatatom 611 121 5 0 0 0 - - -;
#X obj 518 150 a_var OuterColor2;
#X obj 98 363 a_shad julia;
#N canvas 0 22 415 341 a_var2 0;
#X obj 50 1 inlet;
#X obj 100 1 inlet;
#X obj 150 1 inlet;
#X obj 50 50 * 0.1;
#X obj 100 50 * 0.1;
#X obj 150 50 * 0.1;
#X obj 50 100 t b a;
#X obj 100 100 t b a;
#X obj 150 100 t b a;
#X obj 100 150 symbol InnerColor;
#X obj 100 200 pack s 0 0 0 0 0 0 0;
#X obj 100 250 a_modVar;
#X obj 100 300 outlet;
#X connect 0 0 3 0;
#X connect 1 0 4 0;
#X connect 2 0 5 0;
#X connect 3 0 6 0;
#X connect 4 0 7 0;
#X connect 5 0 8 0;
#X connect 6 0 9 0;
#X connect 6 1 10 1;
#X connect 7 0 9 0;
#X connect 7 1 10 2;
#X connect 8 0 9 0;
#X connect 8 1 10 3;
#X connect 9 0 10 0;
#X connect 10 0 11 0;
#X connect 11 0 12 0;
#X restore 153 85 pd a_var2 InnerColor;
#X floatatom 199 60 5 0 0 0 - - -;
#X floatatom 158 59 5 0 0 0 - - -;
#X floatatom 237 61 5 0 0 0 - - -;
#X connect 0 0 47 0;
#X connect 1 0 6 0;
#X connect 2 0 6 0;
#X connect 3 0 1 0;
#X connect 4 0 2 0;
#X connect 5 0 7 0;
#X connect 6 0 33 0;
#X connect 7 0 8 0;
#X connect 8 0 47 1;
#X connect 9 0 10 0;
#X connect 10 0 11 0;
#X connect 11 0 47 1;
#X connect 12 0 13 0;
#X connect 13 0 14 0;
#X connect 14 0 47 1;
#X connect 15 0 16 0;
#X connect 16 0 19 0;
#X connect 17 0 18 0;
#X connect 18 0 20 0;
#X connect 19 0 47 1;
#X connect 20 0 47 1;
#X connect 21 0 22 0;
#X connect 22 0 25 0;
#X connect 23 0 24 0;
#X connect 24 0 26 0;
#X connect 25 0 47 1;
#X connect 26 0 47 1;
#X connect 27 0 28 0;
#X connect 28 0 31 0;
#X connect 29 0 30 0;
#X connect 30 0 32 0;
#X connect 31 0 47 1;
#X connect 32 0 47 1;
#X connect 35 0 47 1;
#X connect 36 0 35 1;
#X connect 37 0 35 0;
#X connect 38 0 35 2;
#X connect 39 0 47 1;
#X connect 40 0 39 1;
#X connect 41 0 39 0;
#X connect 42 0 39 2;
#X connect 43 0 46 1;
#X connect 44 0 46 0;
#X connect 45 0 46 2;
#X connect 46 0 47 1;
#X connect 47 0 6 0;
#X connect 48 0 47 1;
#X connect 49 0 48 1;
#X connect 50 0 48 0;
#X connect 51 0 48 2;
