#N canvas 632 155 828 637 10;
#X obj 98 128 gemhead;
#X msg 22 323 mode \$1;
#X msg 20 370 quality 1;
#X obj 22 302 tgl 15 0 empty empty empty 17 7 0 10 -262144 -1 -1 0
1;
#X obj 20 346 loadbang;
#X floatatom 339 197 5 0 0 0 - - -;
#X obj 98 387 pix_texture;
#X obj 337 218 * 0.01;
#X msg 336 240 SpecularContribution \$1;
#X floatatom 488 178 5 0 0 0 - - -;
#X obj 486 199 * 0.01;
#X msg 485 221 DiffuseContribution \$1;
#X floatatom 476 247 5 0 0 0 - - -;
#X obj 474 268 * 0.01;
#X msg 468 289 Shininess \$1;
#X floatatom 513 336 5 0 0 0 - - -;
#X obj 511 357 * 0.01;
#X msg 515 380 Zoom \$1;
#X floatatom 641 237 5 0 0 0 - - -;
#X obj 644 255 * 0.01;
#X floatatom 579 246 5 0 0 0 - - -;
#X obj 572 277 * 0.01;
#X msg 646 273 Xcenter \$1;
#X msg 571 300 Ycenter \$1;
#X obj 98 412 square 5;
#X obj 15 10 a_gemwin;
#X obj 98 363 a_shad mandel;
#N canvas 0 22 450 300 a_var2 0;
#X obj 50 1 inlet;
#X obj 50 50 * 0.1;
#X obj 50 100 t b a;
#X obj 100 150 symbol MaxIterations;
#X obj 100 200 pack s 0 0 0 0 0 0 0;
#X obj 100 250 a_modVar;
#X obj 100 300 outlet;
#X connect 0 0 1 0;
#X connect 1 0 2 0;
#X connect 2 0 3 0;
#X connect 2 1 4 1;
#X connect 3 0 4 0;
#X connect 4 0 5 0;
#X connect 5 0 6 0;
#X restore 234 -42 pd a_var2 MaxIterations;
#X floatatom 232 -83 5 0 0 0 - - -;
#N canvas 0 22 450 300 a_var4 0;
#X obj 50 1 inlet;
#X obj 100 1 inlet;
#X obj 150 1 inlet;
#X obj 50 50 * 0.1;
#X obj 100 50 * 0.1;
#X obj 150 50 * 0.1;
#X obj 50 100 t b a;
#X obj 100 100 t b a;
#X obj 150 100 t b a;
#X obj 100 150 symbol LightPosition;
#X obj 100 200 pack s 0 0 0 0 0 0 0;
#X obj 100 250 a_modVar;
#X obj 100 300 outlet;
#X connect 0 0 3 0;
#X connect 1 0 4 0;
#X connect 2 0 5 0;
#X connect 3 0 6 0;
#X connect 4 0 7 0;
#X connect 5 0 8 0;
#X connect 6 0 9 0;
#X connect 6 1 10 1;
#X connect 7 0 9 0;
#X connect 7 1 10 2;
#X connect 8 0 9 0;
#X connect 8 1 10 3;
#X connect 9 0 10 0;
#X connect 10 0 11 0;
#X connect 11 0 12 0;
#X restore 226 38 pd a_var4 LightPosition;
#X floatatom 296 6 5 0 0 0 - - -;
#X floatatom 255 5 5 0 0 0 - - -;
#X floatatom 333 9 5 0 0 0 - - -;
#N canvas 0 22 450 300 a_var5 0;
#X obj 50 1 inlet;
#X obj 100 1 inlet;
#X obj 150 1 inlet;
#X obj 50 50 * 0.1;
#X obj 100 50 * 0.1;
#X obj 150 50 * 0.1;
#X obj 50 100 t b a;
#X obj 100 100 t b a;
#X obj 150 100 t b a;
#X obj 100 150 symbol InnerColor;
#X obj 100 200 pack s 0 0 0 0 0 0 0;
#X obj 100 250 a_modVar;
#X obj 100 300 outlet;
#X connect 0 0 3 0;
#X connect 1 0 4 0;
#X connect 2 0 5 0;
#X connect 3 0 6 0;
#X connect 4 0 7 0;
#X connect 5 0 8 0;
#X connect 6 0 9 0;
#X connect 6 1 10 1;
#X connect 7 0 9 0;
#X connect 7 1 10 2;
#X connect 8 0 9 0;
#X connect 8 1 10 3;
#X connect 9 0 10 0;
#X connect 10 0 11 0;
#X connect 11 0 12 0;
#X restore 411 -54 pd a_var5 InnerColor;
#N canvas 0 22 450 300 a_var6 0;
#X obj 50 1 inlet;
#X obj 100 1 inlet;
#X obj 150 1 inlet;
#X obj 50 50 * 0.1;
#X obj 100 50 * 0.1;
#X obj 150 50 * 0.1;
#X obj 50 100 t b a;
#X obj 100 100 t b a;
#X obj 150 100 t b a;
#X obj 100 150 symbol OuterColor1;
#X obj 100 200 pack s 0 0 0 0 0 0 0;
#X obj 100 250 a_modVar;
#X obj 100 300 outlet;
#X connect 0 0 3 0;
#X connect 1 0 4 0;
#X connect 2 0 5 0;
#X connect 3 0 6 0;
#X connect 4 0 7 0;
#X connect 5 0 8 0;
#X connect 6 0 9 0;
#X connect 6 1 10 1;
#X connect 7 0 9 0;
#X connect 7 1 10 2;
#X connect 8 0 9 0;
#X connect 8 1 10 3;
#X connect 9 0 10 0;
#X connect 10 0 11 0;
#X connect 11 0 12 0;
#X restore 419 27 pd a_var6 OuterColor1;
#N canvas 0 22 450 300 a_var7 0;
#X obj 50 1 inlet;
#X obj 100 1 inlet;
#X obj 150 1 inlet;
#X obj 50 50 * 0.1;
#X obj 100 50 * 0.1;
#X obj 150 50 * 0.1;
#X obj 50 100 t b a;
#X obj 100 100 t b a;
#X obj 150 100 t b a;
#X obj 100 150 symbol OuterColor2;
#X obj 100 200 pack s 0 0 0 0 0 0 0;
#X obj 100 250 a_modVar;
#X obj 100 300 outlet;
#X connect 0 0 3 0;
#X connect 1 0 4 0;
#X connect 2 0 5 0;
#X connect 3 0 6 0;
#X connect 4 0 7 0;
#X connect 5 0 8 0;
#X connect 6 0 9 0;
#X connect 6 1 10 1;
#X connect 7 0 9 0;
#X connect 7 1 10 2;
#X connect 8 0 9 0;
#X connect 8 1 10 3;
#X connect 9 0 10 0;
#X connect 10 0 11 0;
#X connect 11 0 12 0;
#X restore 417 98 pd a_var7 OuterColor2;
#X floatatom 457 -94 5 0 0 0 - - -;
#X floatatom 416 -95 5 0 0 0 - - -;
#X floatatom 494 -91 5 0 0 0 - - -;
#X floatatom 464 69 5 0 0 0 - - -;
#X floatatom 423 68 5 0 0 0 - - -;
#X floatatom 501 72 5 0 0 0 - - -;
#X floatatom 460 -7 5 0 0 0 - - -;
#X floatatom 419 -8 5 0 0 0 - - -;
#X floatatom 497 -4 5 0 0 0 - - -;
#X connect 0 0 26 0;
#X connect 1 0 6 0;
#X connect 2 0 6 0;
#X connect 3 0 1 0;
#X connect 4 0 2 0;
#X connect 5 0 7 0;
#X connect 6 0 24 0;
#X connect 7 0 8 0;
#X connect 8 0 26 1;
#X connect 9 0 10 0;
#X connect 10 0 11 0;
#X connect 11 0 26 1;
#X connect 12 0 13 0;
#X connect 13 0 14 0;
#X connect 14 0 26 1;
#X connect 15 0 16 0;
#X connect 16 0 17 0;
#X connect 17 0 26 1;
#X connect 18 0 19 0;
#X connect 19 0 22 0;
#X connect 20 0 21 0;
#X connect 21 0 23 0;
#X connect 22 0 26 1;
#X connect 23 0 26 1;
#X connect 26 0 6 0;
#X connect 27 0 26 1;
#X connect 28 0 27 0;
#X connect 29 0 26 1;
#X connect 30 0 29 1;
#X connect 31 0 29 0;
#X connect 32 0 29 2;
#X connect 33 0 26 1;
#X connect 34 0 26 1;
#X connect 35 0 26 1;
#X connect 36 0 33 1;
#X connect 37 0 33 0;
#X connect 38 0 33 2;
#X connect 39 0 35 1;
#X connect 40 0 35 0;
#X connect 41 0 35 2;
#X connect 42 0 34 1;
#X connect 43 0 34 0;
#X connect 44 0 34 2;
