#N canvas 75 406 355 385 10;
#X obj 47 -65 inlet;
#X obj 47 100 glsl_vertex;
#X obj 47 137 glsl_fragment;
#X obj 158 117 change;
#X obj 158 154 change;
#X obj 158 174 t b f;
#X obj 158 199 pack 0 0;
#X msg 158 218 link \$1 \$2;
#X obj 47 235 glsl_program;
#X obj 47 256 outlet;
#X obj 176 35 symbol \$1;
#X msg 203 120 open \$1.frag;
#X obj 176 12 loadbang;
#X obj 176 61 t s s;
#X msg 176 83 open \$1.vert;
#X obj 129 -4 change;
#X obj 47 -43 t a b;
#X msg 74 -21 1;
#X obj 129 18 sel 1;
#X obj 304 218 inlet;
#X connect 0 0 16 0;
#X connect 1 0 2 0;
#X connect 1 1 3 0;
#X connect 2 0 8 0;
#X connect 2 1 4 0;
#X connect 3 0 5 0;
#X connect 4 0 6 0;
#X connect 5 0 6 0;
#X connect 5 1 6 1;
#X connect 6 0 7 0;
#X connect 7 0 8 0;
#X connect 8 0 9 0;
#X connect 10 0 13 0;
#X connect 11 0 2 0;
#X connect 12 0 10 0;
#X connect 13 0 14 0;
#X connect 13 1 11 0;
#X connect 14 0 1 0;
#X connect 15 0 18 0;
#X connect 16 0 1 0;
#X connect 16 1 17 0;
#X connect 17 0 15 0;
#X connect 18 0 10 0;
#X connect 19 0 8 0;
