#N canvas 420 22 580 500 10;
#X obj 86 28 gemhead;
#X msg 254 384 mode \$1;
#X msg 251 431 quality 1;
#X obj 253 363 tgl 15 0 empty empty empty 17 7 0 10 -262144 -1 -1 1
1;
#X obj 252 407 loadbang;
#X obj 90 364 pix_texture;
#X obj 90 434 rectangle 4 4;
#X obj 91 223 a_shad badprint;
#X obj -1 -11 a_gemwin;
#N canvas 0 22 450 300 a_var2 0;
#X obj 50 1 inlet;
#X obj 100 1 inlet;
#X obj 150 1 inlet;
#X obj 50 50 * 0.1;
#X obj 100 50 * 0.1;
#X obj 150 50 * 0.1;
#X obj 50 100 t b a;
#X obj 100 100 t b a;
#X obj 150 100 t b a;
#X obj 100 150 symbol LightPos;
#X obj 100 200 pack s 0 0 0 0 0 0 0;
#X obj 100 250 a_modVar;
#X obj 100 300 outlet;
#X connect 0 0 3 0;
#X connect 1 0 4 0;
#X connect 2 0 5 0;
#X connect 3 0 6 0;
#X connect 4 0 7 0;
#X connect 5 0 8 0;
#X connect 6 0 9 0;
#X connect 6 1 10 1;
#X connect 7 0 9 0;
#X connect 7 1 10 2;
#X connect 8 0 9 0;
#X connect 8 1 10 3;
#X connect 9 0 10 0;
#X connect 10 0 11 0;
#X connect 11 0 12 0;
#X restore 145 139 pd a_var2 LightPos;
#X floatatom 149 112 5 0 0 0 - - -;
#X floatatom 193 112 5 0 0 0 - - -;
#X floatatom 235 112 5 0 0 0 - - -;
#N canvas 0 22 450 300 a_var3 0;
#X obj 50 1 inlet;
#X obj 100 1 inlet;
#X obj 150 1 inlet;
#X obj 50 50 * 0.1;
#X obj 100 50 * 0.1;
#X obj 150 50 * 0.1;
#X obj 50 100 t b a;
#X obj 100 100 t b a;
#X obj 150 100 t b a;
#X obj 100 150 symbol Scale;
#X obj 100 200 pack s 0 0 0 0 0 0 0;
#X obj 100 250 a_modVar;
#X obj 100 300 outlet;
#X connect 0 0 3 0;
#X connect 1 0 4 0;
#X connect 2 0 5 0;
#X connect 3 0 6 0;
#X connect 4 0 7 0;
#X connect 5 0 8 0;
#X connect 6 0 9 0;
#X connect 6 1 10 1;
#X connect 7 0 9 0;
#X connect 7 1 10 2;
#X connect 8 0 9 0;
#X connect 8 1 10 3;
#X connect 9 0 10 0;
#X connect 10 0 11 0;
#X connect 11 0 12 0;
#X restore 394 144 pd a_var3 Scale;
#X floatatom 402 94 5 0 0 0 - - -;
#X floatatom 446 94 5 0 0 0 - - -;
#X floatatom 488 94 5 0 0 0 - - -;
#N canvas 0 22 450 300 a_var4 0;
#X obj 50 1 inlet;
#X obj 100 1 inlet;
#X obj 150 1 inlet;
#X obj 50 50 * 0.1;
#X obj 100 50 * 0.1;
#X obj 150 50 * 0.1;
#X obj 50 100 t b a;
#X obj 100 100 t b a;
#X obj 150 100 t b a;
#X obj 100 150 symbol Offset;
#X obj 100 200 pack s 0 0 0 0 0 0 0;
#X obj 100 250 a_modVar;
#X obj 100 300 outlet;
#X connect 0 0 3 0;
#X connect 1 0 4 0;
#X connect 2 0 5 0;
#X connect 3 0 6 0;
#X connect 4 0 7 0;
#X connect 5 0 8 0;
#X connect 6 0 9 0;
#X connect 6 1 10 1;
#X connect 7 0 9 0;
#X connect 7 1 10 2;
#X connect 8 0 9 0;
#X connect 8 1 10 3;
#X connect 9 0 10 0;
#X connect 10 0 11 0;
#X connect 11 0 12 0;
#X restore 399 202 pd a_var4 Offset;
#X floatatom 392 174 5 0 0 0 - - -;
#X floatatom 436 174 5 0 0 0 - - -;
#X floatatom 478 174 5 0 0 0 - - -;
#N canvas 0 22 450 300 a_var5 0;
#X obj 50 1 inlet;
#X obj 100 1 inlet;
#X obj 150 1 inlet;
#X obj 50 50 * 0.1;
#X obj 100 50 * 0.1;
#X obj 150 50 * 0.1;
#X obj 50 100 t b a;
#X obj 100 100 t b a;
#X obj 150 100 t b a;
#X obj 100 150 symbol Size;
#X obj 100 200 pack s 0 0 0 0 0 0 0;
#X obj 100 250 a_modVar;
#X obj 100 300 outlet;
#X connect 0 0 3 0;
#X connect 1 0 4 0;
#X connect 2 0 5 0;
#X connect 3 0 6 0;
#X connect 4 0 7 0;
#X connect 5 0 8 0;
#X connect 6 0 9 0;
#X connect 6 1 10 1;
#X connect 7 0 9 0;
#X connect 7 1 10 2;
#X connect 8 0 9 0;
#X connect 8 1 10 3;
#X connect 9 0 10 0;
#X connect 10 0 11 0;
#X connect 11 0 12 0;
#X restore 285 135 pd a_var5 Size;
#X floatatom 276 111 5 0 0 0 - - -;
#X floatatom 320 111 5 0 0 0 - - -;
#X floatatom 362 111 5 0 0 0 - - -;
#N canvas 0 22 450 300 a_var6 0;
#X obj 50 1 inlet;
#X obj 100 1 inlet;
#X obj 150 1 inlet;
#X obj 50 50 * 0.1;
#X obj 100 50 * 0.1;
#X obj 150 50 * 0.1;
#X obj 50 100 t b a;
#X obj 100 100 t b a;
#X obj 150 100 t b a;
#X obj 100 150 symbol Register;
#X obj 100 200 pack s 0 0 0 0 0 0 0;
#X obj 100 250 a_modVar;
#X obj 100 300 outlet;
#X connect 0 0 3 0;
#X connect 1 0 4 0;
#X connect 2 0 5 0;
#X connect 3 0 6 0;
#X connect 4 0 7 0;
#X connect 5 0 8 0;
#X connect 6 0 9 0;
#X connect 6 1 10 1;
#X connect 7 0 9 0;
#X connect 7 1 10 2;
#X connect 8 0 9 0;
#X connect 8 1 10 3;
#X connect 9 0 10 0;
#X connect 10 0 11 0;
#X connect 11 0 12 0;
#X restore 368 246 pd a_var6 Register;
#X floatatom 388 224 5 0 0 0 - - -;
#X floatatom 432 224 5 0 0 0 - - -;
#X floatatom 472 220 5 0 0 0 - - -;
#X connect 0 0 7 0;
#X connect 1 0 5 0;
#X connect 2 0 5 0;
#X connect 3 0 1 0;
#X connect 4 0 2 0;
#X connect 5 0 6 0;
#X connect 7 0 5 0;
#X connect 9 0 7 1;
#X connect 10 0 9 0;
#X connect 11 0 9 1;
#X connect 12 0 9 2;
#X connect 13 0 7 1;
#X connect 14 0 13 0;
#X connect 15 0 13 1;
#X connect 16 0 13 2;
#X connect 17 0 7 1;
#X connect 18 0 17 0;
#X connect 19 0 17 1;
#X connect 20 0 17 2;
#X connect 21 0 7 1;
#X connect 22 0 21 0;
#X connect 23 0 21 1;
#X connect 24 0 21 2;
#X connect 25 0 7 1;
#X connect 26 0 25 0;
#X connect 27 0 25 1;
#X connect 28 0 25 2;
