#N canvas 694 22 665 852 10;
#X obj 102 121 bng 15 250 50 0 empty empty empty 17 7 0 10 -258113
-1 -1;
#X obj 184 183 f;
#X obj 212 182 + 1;
#X msg 246 255 obj 200 200 pd a_var\$1 \$2;
#X obj 302 372 s pd-\$1;
#X obj 196 489 s;
#X obj 211 460 l2s;
#X obj 210 205 t f f;
#X obj 275 306 t b a;
#X obj 246 222 pack f s f;
#X obj 184 153 t b b b;
#X msg 210 439 pd-a_var\$1;
#X obj 130 278 repeat;
#X obj 114 318 f;
#X obj 143 317 + 1;
#X msg 113 385 obj \$1 1 inlet;
#X obj 236 347 delay 100;
#X obj 113 364 * 50;
#X msg 67 221 0;
#X obj 55 347 t f f;
#X obj 416 197 s \$0-VarGlobInc;
#X obj 20 260 s \$0-InitCons;
#N canvas 15 283 450 300 AtomConstrLink 0;
#X obj 26 38 sel;
#X obj 26 58 repeat;
#X msg 39 222 connect \$1 0 \$2 0;
#X obj 26 78 f;
#X obj 55 77 + 1;
#X obj 26 120 t f f;
#X obj 38 180 f;
#X obj 39 200 pack f f;
#X obj -2 135 +;
#X obj 1 157 t b f;
#X obj 64 119 r \$0-VarGlobInc;
#X obj 66 20 r \$0-VarGlobInc;
#X obj 86 76 r \$0-InitCons;
#X obj 24 12 inlet;
#X obj 25 99 +;
#X obj 40 260 s \$0-RcvGenCons;
#X connect 0 0 1 0;
#X connect 1 0 3 0;
#X connect 2 0 15 0;
#X connect 3 0 4 0;
#X connect 3 0 14 0;
#X connect 4 0 3 1;
#X connect 5 0 8 0;
#X connect 5 1 6 1;
#X connect 6 0 7 0;
#X connect 7 0 2 0;
#X connect 8 0 9 0;
#X connect 9 0 6 0;
#X connect 9 1 7 1;
#X connect 10 0 8 1;
#X connect 11 0 1 1;
#X connect 11 0 0 1;
#X connect 11 0 14 1;
#X connect 12 0 3 1;
#X connect 13 0 0 0;
#X connect 14 0 5 0;
#X restore -59 489 pd AtomConstrLink;
#N canvas 27 349 450 300 AtomConstrLink 0;
#X obj 26 38 sel;
#X obj 26 58 repeat;
#X msg 39 222 connect \$1 0 \$2 0;
#X obj 26 78 f;
#X obj 55 77 + 1;
#X obj 26 120 t f f;
#X obj 38 180 f;
#X obj 39 200 pack f f;
#X obj -2 135 +;
#X obj 1 157 t b f;
#X obj 64 119 r \$0-VarGlobInc;
#X obj 66 20 r \$0-VarGlobInc;
#X obj 86 76 r \$0-InitCons;
#X obj 24 12 inlet;
#X obj 39 251 s \$0-RcvGenCons;
#X connect 0 0 1 0;
#X connect 1 0 3 0;
#X connect 2 0 14 0;
#X connect 3 0 4 0;
#X connect 3 0 5 0;
#X connect 4 0 3 1;
#X connect 5 0 8 0;
#X connect 5 1 6 1;
#X connect 6 0 7 0;
#X connect 7 0 2 0;
#X connect 8 0 9 0;
#X connect 9 0 6 0;
#X connect 9 1 7 1;
#X connect 10 0 8 1;
#X connect 11 0 1 1;
#X connect 11 0 0 1;
#X connect 12 0 3 1;
#X connect 13 0 0 0;
#X restore -59 450 pd AtomConstrLink;
#N canvas 27 349 486 386 AtomConstr 0;
#X obj -9 38 sel;
#X obj -9 58 repeat;
#X obj -7 91 f;
#X obj 22 90 + 1;
#X obj -11 112 t f f;
#X obj 16 146 * 50;
#X msg 15 169 obj \$1 50 * 0.1;
#X obj 17 35 r \$0-VarGlobInc;
#X obj 31 65 r \$0-InitCons;
#X obj -13 12 inlet;
#X obj -27 205 outlet;
#X obj 13 265 s \$0-RcvGenCons;
#X connect 0 0 1 0;
#X connect 1 0 2 0;
#X connect 2 0 3 0;
#X connect 3 0 2 1;
#X connect 3 0 4 0;
#X connect 4 0 10 0;
#X connect 4 1 5 0;
#X connect 5 0 6 0;
#X connect 6 0 11 0;
#X connect 7 0 0 1;
#X connect 7 0 1 1;
#X connect 8 0 2 1;
#X connect 9 0 0 0;
#X restore 55 433 pd AtomConstr;
#N canvas 27 349 486 386 AtomConstr 0;
#X obj -9 38 sel;
#X obj -9 58 repeat;
#X obj -7 91 f;
#X obj 22 90 + 1;
#X obj -11 112 t f f;
#X obj 16 146 * 50;
#X obj 17 35 r \$0-VarGlobInc;
#X obj 31 65 r \$0-InitCons;
#X obj -13 12 inlet;
#X obj -27 205 outlet;
#X msg 15 169 obj \$1 100 t b a;
#X obj 13 265 s \$0-RcvGenCons;
#X connect 0 0 1 0;
#X connect 1 0 2 0;
#X connect 2 0 3 0;
#X connect 3 0 2 1;
#X connect 3 0 4 0;
#X connect 4 0 9 0;
#X connect 4 1 5 0;
#X connect 5 0 10 0;
#X connect 6 0 0 1;
#X connect 6 0 1 1;
#X connect 7 0 2 1;
#X connect 8 0 0 0;
#X connect 10 0 11 0;
#X restore 55 472 pd AtomConstr;
#N canvas 321 218 511 397 AtomConstr 0;
#X obj 51 38 sel;
#X obj 90 14 r \$0-VarGlobInc;
#X obj 47 12 inlet;
#X obj -1 223 outlet;
#X obj 72 141 symbol \$2;
#X obj 49 112 t b b;
#X obj -1 174 delay 100;
#X obj 73 232 s \$0-RcvGenCons;
#X msg 72 164 obj 100 150 symbol \$1;
#X obj 5 197 f;
#X obj 121 106 r \$0-SymbGenIst;
#X connect 0 0 5 0;
#X connect 1 0 0 1;
#X connect 1 0 9 1;
#X connect 2 0 0 0;
#X connect 4 0 8 0;
#X connect 5 0 6 0;
#X connect 5 1 4 0;
#X connect 6 0 9 0;
#X connect 8 0 7 0;
#X connect 9 0 3 0;
#X connect 10 0 4 1;
#X restore 55 515 pd AtomConstr;
#X obj 103 189 t b b;
#X obj 256 495 r \$0-RcvGenCons;
#N canvas 65 540 450 300 AtomConstrLink 0;
#X obj 26 38 sel;
#X obj 26 58 repeat;
#X msg 39 222 connect \$1 0 \$2 0;
#X obj 26 78 f;
#X obj 53 78 + 1;
#X obj 38 180 f;
#X obj 39 200 pack f f;
#X obj -2 135 +;
#X obj 105 91 r \$0-VarGlobInc;
#X obj 106 8 r \$0-VarGlobInc;
#X obj 138 45 r \$0-InitCons;
#X obj 24 12 inlet;
#X obj 24 99 +;
#X obj 40 268 s \$0-RcvGenCons;
#X obj 82 157 * 3;
#X obj 82 137 f;
#X obj 1 157 t b b;
#X obj 26 120 t f f b;
#X obj 90 45 * 2;
#X obj 225 238 prepend set;
#X msg 263 265 connect 8 0 9 0;
#X obj 82 180 + 0;
#X connect 0 0 1 0;
#X connect 1 0 3 0;
#X connect 2 0 13 0;
#X connect 2 0 19 0;
#X connect 3 0 4 0;
#X connect 3 0 12 0;
#X connect 4 0 3 1;
#X connect 5 0 6 0;
#X connect 6 0 2 0;
#X connect 7 0 16 0;
#X connect 8 0 7 1;
#X connect 8 0 15 1;
#X connect 9 0 1 1;
#X connect 9 0 0 1;
#X connect 9 0 18 0;
#X connect 10 0 3 1;
#X connect 11 0 0 0;
#X connect 12 0 17 0;
#X connect 14 0 21 0;
#X connect 15 0 14 0;
#X connect 16 0 5 0;
#X connect 17 0 7 0;
#X connect 17 1 5 1;
#X connect 17 2 15 0;
#X connect 18 0 12 1;
#X connect 19 0 20 0;
#X connect 21 0 6 1;
#X restore -68 532 pd AtomConstrLink;
#N canvas 600 67 511 397 AtomConstr 0;
#X obj 51 38 sel;
#X obj 90 14 r \$0-VarGlobInc;
#X obj 47 12 inlet;
#X obj 4 212 outlet;
#X obj 49 112 t b b;
#X obj 5 170 delay 100;
#X obj 73 232 s \$0-RcvGenCons;
#X obj 5 191 f;
#X msg 72 164 obj 100 200 pack s 0 0 0 0 0 0 0;
#X connect 0 0 4 0;
#X connect 1 0 0 1;
#X connect 1 0 7 1;
#X connect 2 0 0 0;
#X connect 4 0 5 0;
#X connect 4 1 8 0;
#X connect 5 0 7 0;
#X connect 7 0 3 0;
#X connect 8 0 6 0;
#X restore 55 573 pd AtomConstr;
#N canvas 354 39 650 714 AtomConstrLink 0;
#X obj 24 22 sel;
#X obj 23 69 repeat;
#X obj 20 90 f;
#X obj 47 91 + 1;
#X obj 26 191 f;
#X obj 105 115 r \$0-VarGlobInc;
#X obj 106 8 r \$0-VarGlobInc;
#X obj 138 75 r \$0-InitCons;
#X obj 24 2 inlet;
#X obj 24 124 +;
#X obj 39 323 s \$0-RcvGenCons;
#X obj 82 187 * 3;
#X obj 82 167 f;
#X obj 91 72 * 2;
#X msg 39 269 connect \$1 1 \$2 \$3;
#X obj 39 249 pack f f f;
#X obj 111 163 f;
#X obj 138 163 + 1;
#X obj 83 207 + 1;
#X obj 24 146 t b f b;
#X obj 49 226 t b f;
#X obj 25 46 t b b;
#X obj 336 45 delay 200;
#X obj 336 185 pack f f;
#X msg 336 205 connect \$1 0 \$2 0;
#X obj 332 77 t b b;
#X obj 355 136 * 3;
#X obj 355 116 f;
#X obj 356 156 + 1;
#X obj 364 246 s \$0-RcvGenCons;
#X obj 328 139 * 3;
#X obj 328 119 f;
#X obj 336 227 t b a;
#X msg 334 288 obj 100 250 a_modVar;
#X obj 332 267 delay 100;
#X obj 362 330 s \$0-RcvGenCons;
#X obj 335 309 t b a;
#X obj 485 180 pack f f;
#X obj 513 131 * 3;
#X obj 513 111 f;
#X obj 486 134 * 3;
#X obj 486 114 f;
#X obj 494 71 t b b;
#X obj 468 48 r \$0-VarGlobInc;
#X obj 514 151 + 2;
#X obj 486 156 + 1;
#X obj 336 350 delay 100;
#X msg 488 201 connect \$1 0 \$2 0;
#X obj 517 248 s \$0-RcvGenCons;
#X obj 490 225 t b a;
#X obj 511 369 s \$0-RcvGenCons;
#X obj 484 348 t b a;
#X obj 481 306 delay 50;
#X msg 483 327 obj 100 300 outlet;
#X obj 485 389 delay 50;
#X obj 464 531 pack f f;
#X obj 492 482 * 3;
#X obj 492 462 f;
#X obj 465 485 * 3;
#X obj 465 465 f;
#X obj 473 422 t b b;
#X msg 467 552 connect \$1 0 \$2 0;
#X obj 469 574 s \$0-RcvGenCons;
#X obj 465 507 + 2;
#X obj 493 502 + 3;
#X obj 519 438 r \$0-VarGlobInc;
#X connect 0 0 21 0;
#X connect 1 0 2 0;
#X connect 1 0 16 0;
#X connect 2 0 3 0;
#X connect 2 0 9 0;
#X connect 3 0 2 1;
#X connect 4 0 15 0;
#X connect 5 0 12 1;
#X connect 6 0 1 1;
#X connect 6 0 0 1;
#X connect 6 0 13 0;
#X connect 6 0 31 1;
#X connect 6 0 27 1;
#X connect 7 0 2 1;
#X connect 7 0 16 1;
#X connect 8 0 0 0;
#X connect 9 0 19 0;
#X connect 11 0 18 0;
#X connect 12 0 11 0;
#X connect 13 0 9 1;
#X connect 14 0 10 0;
#X connect 15 0 14 0;
#X connect 16 0 17 0;
#X connect 17 0 16 1;
#X connect 17 0 15 2;
#X connect 18 0 20 0;
#X connect 19 1 4 1;
#X connect 19 2 12 0;
#X connect 20 0 4 0;
#X connect 20 1 15 1;
#X connect 21 0 22 0;
#X connect 21 1 1 0;
#X connect 22 0 25 0;
#X connect 23 0 24 0;
#X connect 24 0 32 0;
#X connect 25 0 31 0;
#X connect 25 1 27 0;
#X connect 26 0 28 0;
#X connect 27 0 26 0;
#X connect 28 0 23 1;
#X connect 30 0 23 0;
#X connect 31 0 30 0;
#X connect 32 0 34 0;
#X connect 32 1 29 0;
#X connect 33 0 36 0;
#X connect 34 0 33 0;
#X connect 36 0 46 0;
#X connect 36 1 35 0;
#X connect 37 0 47 0;
#X connect 38 0 44 0;
#X connect 39 0 38 0;
#X connect 40 0 45 0;
#X connect 41 0 40 0;
#X connect 42 0 41 0;
#X connect 42 1 39 0;
#X connect 43 0 41 1;
#X connect 43 0 39 1;
#X connect 44 0 37 1;
#X connect 45 0 37 0;
#X connect 46 0 42 0;
#X connect 47 0 49 0;
#X connect 49 0 52 0;
#X connect 49 1 48 0;
#X connect 51 0 54 0;
#X connect 51 1 50 0;
#X connect 52 0 53 0;
#X connect 53 0 51 0;
#X connect 54 0 60 0;
#X connect 55 0 61 0;
#X connect 56 0 64 0;
#X connect 57 0 56 0;
#X connect 58 0 63 0;
#X connect 59 0 58 0;
#X connect 60 0 59 0;
#X connect 60 1 57 0;
#X connect 61 0 62 0;
#X connect 63 0 55 0;
#X connect 64 0 55 1;
#X connect 65 0 57 1;
#X connect 65 0 59 1;
#X restore -58 605 pd AtomConstrLink;
#X obj 122 121 bng 15 250 50 0 empty empty empty 17 7 0 10 -262144
-1 -1;
#X msg 192 74 0;
#X symbolatom 162 117 20 0 0 0 - - -;
#X symbolatom 370 128 20 0 0 0 - - -;
#X floatatom 434 104 5 0 0 0 - - -;
#X obj 379 0 s2l;
#X obj 378 21 list split 1;
#X obj 378 48 l2s;
#X obj 284 57 t b a;
#X obj 282 79 delay 100;
#X obj 268 176 symbol;
#X obj 342 170 f;
#X obj 459 172 s \$0-SymbGenIst;
#X text -49 19 created by philippe boisnard - 2011;
#X connect 0 0 27 0;
#X connect 1 0 2 0;
#X connect 2 0 1 1;
#X connect 2 0 7 0;
#X connect 3 0 8 0;
#X connect 6 0 5 1;
#X connect 7 0 11 0;
#X connect 7 1 9 0;
#X connect 8 0 16 0;
#X connect 8 1 4 0;
#X connect 9 0 3 0;
#X connect 10 0 1 0;
#X connect 10 1 42 0;
#X connect 10 2 43 0;
#X connect 11 0 6 0;
#X connect 12 0 13 0;
#X connect 13 0 14 0;
#X connect 14 0 13 1;
#X connect 14 0 19 0;
#X connect 15 0 5 0;
#X connect 16 0 12 0;
#X connect 17 0 15 0;
#X connect 18 0 13 1;
#X connect 18 0 21 0;
#X connect 19 0 24 0;
#X connect 19 1 17 0;
#X connect 24 0 23 0;
#X connect 24 0 25 0;
#X connect 25 0 22 0;
#X connect 25 0 26 0;
#X connect 26 0 29 0;
#X connect 26 0 30 0;
#X connect 27 0 10 0;
#X connect 27 1 18 0;
#X connect 28 0 5 0;
#X connect 30 0 31 0;
#X connect 32 0 33 0;
#X connect 33 0 2 0;
#X connect 34 0 40 0;
#X connect 35 0 42 1;
#X connect 35 0 44 0;
#X connect 36 0 43 1;
#X connect 37 0 38 0;
#X connect 38 0 39 0;
#X connect 38 1 36 0;
#X connect 39 0 35 0;
#X connect 40 0 41 0;
#X connect 40 1 37 0;
#X connect 41 0 0 0;
#X connect 42 0 9 1;
#X connect 43 0 9 2;
#X connect 43 0 12 1;
#X connect 43 0 20 0;
#X coords 0 -1 1 1 250 40 1 100 100;
