#N canvas 847 22 450 300 10;
#X obj 143 94 t b a;
#X obj 141 72 * 0.1;
#X obj 184 94 t b a;
#X obj 182 71 * 0.1;
#X obj 228 86 t b a;
#X obj 226 63 * 0.1;
#X obj 273 111 t b a;
#X obj 271 88 * 0.1;
#X obj 324 105 t b a;
#X obj 322 82 * 0.1;
#X obj 371 106 t b a;
#X obj 369 83 * 0.1;
#X obj 139 14 inlet;
#X obj 174 24 inlet;
#X obj 219 40 inlet;
#X obj 267 50 inlet;
#X obj 312 55 inlet;
#X obj 363 62 inlet;
#X msg 172 211 \$1 \$2 \$3 \$4 \$5 \$6 \$7;
#X obj 155 240 outlet;
#X obj 120 141 symbol \$1;
#X msg 91 168 \$1;
#X obj 168 180 pack s 0 0 0 0 0 0;
#X connect 0 0 20 0;
#X connect 0 1 22 1;
#X connect 1 0 0 0;
#X connect 2 0 20 0;
#X connect 2 1 22 2;
#X connect 3 0 2 0;
#X connect 4 0 20 0;
#X connect 4 1 22 3;
#X connect 5 0 4 0;
#X connect 6 0 20 0;
#X connect 6 1 22 4;
#X connect 7 0 6 0;
#X connect 8 0 20 0;
#X connect 8 1 22 5;
#X connect 9 0 8 0;
#X connect 10 0 20 0;
#X connect 10 1 22 6;
#X connect 11 0 10 0;
#X connect 12 0 1 0;
#X connect 13 0 3 0;
#X connect 14 0 5 0;
#X connect 15 0 7 0;
#X connect 16 0 9 0;
#X connect 17 0 11 0;
#X connect 18 0 19 0;
#X connect 20 0 21 0;
#X connect 20 0 22 0;
#X connect 22 0 18 0;
