#N canvas 553 319 740 468 10;
#X obj 28 39 gemhead;
#X obj 336 20 gemwin;
#X msg 337 -9 create \, 1;
#X msg 390 17 destroy;
#X obj 31 237 pix_texture;
#X obj 305 232 pix_video;
#X obj 305 266 pix_texture;
#X msg 446 238 mode 1;
#X obj 304 196 gemhead;
#X obj 543 92 gemhead;
#X obj 536 270 pix_texture;
#X msg 628 100 mode 1;
#X msg 404 200 texunit 4;
#X msg 601 74 texunit 5;
#X obj 385 116 loadbang;
#X obj 602 37 loadbang;
#X obj 309 330 square 1;
#X obj 541 345 square 1;
#X obj 538 309 translateXYZ -3 -3 0;
#X obj 306 294 translateXYZ 3 -3 0;
#X obj 30 161 glsl_ascii;
#X floatatom 36 67 5 0 0 0 - - -;
#X obj 56 131 / 100;
#X obj 100 129 / 100;
#X obj 140 123 / 100;
#X floatatom 52 96 5 0 0 0 - - -;
#X floatatom 92 94 5 0 0 0 - - -;
#X floatatom 139 94 5 0 0 0 - - -;
#X obj 540 130 pix_image font2.jpg;
#X obj 39 313 square 2;
#X msg 228 129 4;
#X msg 204 163 5;
#X connect 0 0 20 0;
#X connect 2 0 1 0;
#X connect 3 0 1 0;
#X connect 4 0 29 0;
#X connect 5 0 6 0;
#X connect 6 0 19 0;
#X connect 6 1 4 1;
#X connect 7 0 6 0;
#X connect 8 0 5 0;
#X connect 9 0 28 0;
#X connect 10 0 18 0;
#X connect 11 0 10 0;
#X connect 12 0 6 0;
#X connect 13 0 10 0;
#X connect 14 0 12 0;
#X connect 14 0 7 0;
#X connect 15 0 13 0;
#X connect 15 0 11 0;
#X connect 18 0 17 0;
#X connect 19 0 16 0;
#X connect 20 0 4 0;
#X connect 20 1 30 0;
#X connect 20 1 31 0;
#X connect 21 0 20 1;
#X connect 22 0 20 2;
#X connect 23 0 20 3;
#X connect 24 0 20 4;
#X connect 25 0 22 0;
#X connect 26 0 23 0;
#X connect 27 0 24 0;
#X connect 28 0 10 0;
#X connect 30 0 20 5;
#X connect 31 0 20 6;
