#N canvas 474 25 892 583 10;
#X obj 167 -425 gemhead;
#X obj 167 -238 glsl_fragment;
#X obj 167 -123 glsl_program;
#X obj 167 51 pix_texture;
#X obj 500 -316 gemframebuffer;
#X obj 167 -345 gemframebuffer;
#X obj 167 -324 translateXYZ 0 0 -4;
#X obj 500 -295 translateXYZ 0 0 -4;
#X obj 518 -148 pix_texture;
#X obj 65 9 loadbang;
#X obj 518 -177 gemhead 52;
#X obj 500 -400 gemhead 51;
#X obj 500 -14 pix_texture;
#X obj 500 7 square 4;
#X obj 167 72 square 4;
#X obj 186 -158 r to_glsl_program;
#N canvas 594 243 485 385 gestion 0;
#X floatatom -56 159 5 0 0 0 - - -;
#X obj -117 151 line;
#X obj -117 8 sel 0 1;
#X obj -117 -117 tgl 15 0 empty empty empty 17 7 0 10 -262144 -1 -1
1 1;
#X obj -117 -25 tgl 15 0 empty empty empty 17 7 0 10 -262144 -1 -1
0 1;
#X floatatom -169 167 5 0 0 0 - - -;
#X msg -117 172 coef \$1;
#X msg -27 98 XX \$1;
#X msg 47 98 YY \$1;
#X obj -27 -5 random 100;
#X obj -27 16 - 50;
#X obj 47 -5 random 100;
#X obj 47 16 - 50;
#X obj -117 -97 metro 2000;
#X obj 47 188 s to_glsl_program;
#X msg -117 89 0.1 \$1;
#X obj -117 -71 t b b;
#X msg -98 116 0.8 \$1;
#X obj -6 -139 random 4000;
#X obj -6 -87 v temps;
#X obj -117 40 v temps;
#X obj -98 67 v temps;
#X obj -6 -113 + 1000;
#X obj -27 77 / 20000;
#X obj 47 77 / 20000;
#X text 46 -29 du vecteur de deplacement;
#X text 45 -42 choisi les coordonnees X/Y;
#X text -244 50 fait varier le coef;
#X text -243 63 de soustraction;
#X obj -117 -138 loadbang;
#X connect 0 0 6 0;
#X connect 1 0 6 0;
#X connect 2 0 20 0;
#X connect 2 1 21 0;
#X connect 3 0 13 0;
#X connect 4 0 2 0;
#X connect 6 0 14 0;
#X connect 7 0 14 0;
#X connect 8 0 14 0;
#X connect 9 0 10 0;
#X connect 10 0 23 0;
#X connect 11 0 12 0;
#X connect 12 0 24 0;
#X connect 13 0 16 0;
#X connect 15 0 1 0;
#X connect 16 0 4 0;
#X connect 16 0 11 0;
#X connect 16 0 9 0;
#X connect 16 1 18 0;
#X connect 17 0 1 0;
#X connect 18 0 22 0;
#X connect 20 0 15 0;
#X connect 21 0 17 0;
#X connect 22 0 13 1;
#X connect 22 0 19 0;
#X connect 23 0 7 0;
#X connect 24 0 8 0;
#X connect 29 0 3 0;
#X restore -194 -92 pd gestion soustraction/deplacement;
#N canvas 0 425 1109 641 gestion 0;
#X obj 61 -242 pix_texture;
#X obj -23 -279 loadbang;
#X obj 94 4 pix_data;
#X msg 116 25 colorToDiscard \$1 \$2 \$3 1;
#X obj -142 -236 t a a;
#X obj -142 -443 gemframebuffer;
#X obj -142 -422 translateXYZ 0 0 -4;
#X obj -142 -159 square 4;
#X obj -142 -180 pix_texture;
#X msg -226 -196 quality \$1;
#X obj -226 -214 tgl 15 0 empty empty empty 17 7 0 10 -262144 -1 -1
1 1;
#X obj 13 123 unpack f f f;
#X obj 2 186 colorRGB;
#X obj 2 207 square 0.3;
#X obj 2 45 gemhead 99;
#X obj 113 -49 random 10;
#X obj 139 -101 random 10;
#X obj 113 -23 / 10;
#X obj 139 -75 / 10;
#X obj 94 -165 metro 1000;
#X floatatom 151 -211 5 0 0 0 - - -;
#X obj 94 -185 tgl 15 0 empty empty empty 17 7 0 10 -262144 -1 -1 1
1;
#X msg -392 -273 dimen \$1 \$1;
#X obj 94 -123 t b b b;
#X obj 116 46 s to_glsl_program;
#X obj -142 -566 gemhead;
#X obj 61 -363 gemhead;
#X obj -142 -257 pix_resize 512 512;
#X obj 94 -144 t b b;
#X obj 195 -181 + 1000;
#X obj 195 -202 metro 2000;
#X text 204 -53 pour la soustraction;
#X text 203 -67 choisi une couleur de reference;
#X text 81 187 au besoin \, retour;
#X text 81 201 de la couleur choisie;
#X msg -367 -371 40 0;
#X obj -367 -314 unpack f f;
#X obj -367 -513 metro 2000;
#X obj -367 -554 loadbang;
#X obj -367 -533 tgl 15 0 empty empty empty 17 7 0 10 -262144 -1 -1
1 1;
#X msg -326 -371 20 1;
#X obj -367 -423 random 6;
#X obj -367 -402 sel 1 2 3 4 5;
#X obj -142 -338 pix_contrast;
#X obj 2 -17 loadbang;
#X msg 2 4 0;
#X obj 2 25 tgl 15 0 empty empty empty 17 7 0 10 -262144 -1 -1 0 1
;
#X obj -2 -471 sel 1 2 3 4 5;
#X obj -2 -497 random 6;
#X msg -2 -425 1.5;
#X obj 94 -206 loadbang;
#X msg -234 136 dimen 512 512 \, format RGB32;
#X obj -234 115 loadbang;
#X msg -330 131 dimen \$1 \$1;
#X msg -248 2 quality \$1;
#X obj -248 -20 tgl 15 0 empty empty empty 17 7 0 10 -262144 -1 -1
1 1;
#X obj -391 42 del 500;
#X obj -391 -55 bng 15 250 50 0 empty empty empty 17 7 0 10 -262144
-1 -1;
#X obj -330 83 line;
#X msg -330 22 20 500;
#X obj -330 152 s dimen;
#X obj -248 23 s quality;
#X obj -391 -36 t b b b;
#X obj -391 -76 metro 10000;
#X obj -391 -117 loadbang;
#X obj -391 -96 tgl 15 0 empty empty empty 17 7 0 10 -262144 -1 -1
1 1;
#X obj -142 -524 pix_flip;
#X msg -236 -540 vertical;
#X obj -236 -561 loadbang;
#X obj -142 -492 t a a;
#X obj 625 -254 pix_texture;
#X obj 541 -291 loadbang;
#X obj 422 -455 gemframebuffer;
#X obj 422 -434 translateXYZ 0 0 -4;
#X obj 625 -375 gemhead;
#X obj 422 -476 pix_delay;
#X obj 473 -548 loadbang;
#X msg -23 -258 texunit 1;
#X obj 422 -159 square 4;
#X obj 422 -180 pix_texture;
#X msg 338 -196 quality \$1;
#X obj 338 -214 tgl 15 0 empty empty empty 17 7 0 10 -262144 -1 -1
0 1;
#X msg 172 -273 dimen \$1 \$1;
#X obj 422 -257 pix_resize 512 512;
#X msg 197 -371 40 0;
#X msg 280 -371 500 1;
#X obj 197 -314 unpack f f;
#X obj 197 -513 metro 2000;
#X obj 197 -554 loadbang;
#X obj 197 -533 tgl 15 0 empty empty empty 17 7 0 10 -262144 -1 -1
1 1;
#X msg 238 -371 20 1;
#X obj 197 -423 random 6;
#X obj 197 -402 sel 1 2 3 4 5;
#X obj 422 -338 pix_contrast;
#X msg 607 -425 20;
#X obj 562 -471 sel 1 2 3 4 5;
#X obj 562 -497 random 6;
#X msg 562 -425 1.5;
#X msg 473 -527 100;
#X msg -391 67 250;
#X msg -284 -371 250 1;
#X msg 43 -425 2;
#X obj -142 -545 pix_video;
#X msg 541 -270 texunit 2;
#X text -301 -469 Partie sans delay;
#X text 257 -457 Partie avec delay;
#X connect 1 0 77 0;
#X connect 2 1 3 0;
#X connect 2 1 11 0;
#X connect 3 0 24 0;
#X connect 4 0 8 0;
#X connect 4 1 2 1;
#X connect 5 0 6 0;
#X connect 5 1 0 1;
#X connect 6 0 43 0;
#X connect 8 0 7 0;
#X connect 9 0 8 0;
#X connect 10 0 9 0;
#X connect 11 0 12 1;
#X connect 11 1 12 2;
#X connect 11 2 12 3;
#X connect 12 0 13 0;
#X connect 14 0 12 0;
#X connect 15 0 17 0;
#X connect 16 0 18 0;
#X connect 17 0 2 2;
#X connect 18 0 2 3;
#X connect 19 0 28 0;
#X connect 20 0 19 1;
#X connect 21 0 19 0;
#X connect 22 0 27 0;
#X connect 23 0 2 0;
#X connect 23 1 15 0;
#X connect 23 2 16 0;
#X connect 25 0 102 0;
#X connect 26 0 0 0;
#X connect 27 0 4 0;
#X connect 28 0 23 0;
#X connect 28 1 30 0;
#X connect 29 0 19 1;
#X connect 30 0 29 0;
#X connect 35 0 36 0;
#X connect 36 0 22 0;
#X connect 36 1 10 0;
#X connect 37 0 41 0;
#X connect 37 0 48 0;
#X connect 38 0 39 0;
#X connect 39 0 37 0;
#X connect 40 0 36 0;
#X connect 41 0 42 0;
#X connect 42 0 35 0;
#X connect 42 1 35 0;
#X connect 42 2 40 0;
#X connect 42 3 100 0;
#X connect 42 4 100 0;
#X connect 43 0 27 0;
#X connect 44 0 45 0;
#X connect 45 0 46 0;
#X connect 46 0 14 0;
#X connect 47 0 49 0;
#X connect 47 1 49 0;
#X connect 47 2 49 0;
#X connect 47 3 101 0;
#X connect 47 4 101 0;
#X connect 48 0 47 0;
#X connect 49 0 43 2;
#X connect 50 0 21 0;
#X connect 51 0 60 0;
#X connect 52 0 51 0;
#X connect 53 0 60 0;
#X connect 54 0 61 0;
#X connect 55 0 54 0;
#X connect 56 0 99 0;
#X connect 57 0 62 0;
#X connect 58 0 53 0;
#X connect 59 0 58 0;
#X connect 62 0 56 0;
#X connect 62 1 59 0;
#X connect 62 2 55 0;
#X connect 63 0 57 0;
#X connect 64 0 65 0;
#X connect 65 0 63 0;
#X connect 66 0 69 0;
#X connect 67 0 66 0;
#X connect 68 0 67 0;
#X connect 69 0 5 0;
#X connect 69 1 75 0;
#X connect 71 0 103 0;
#X connect 72 0 73 0;
#X connect 72 1 70 1;
#X connect 73 0 93 0;
#X connect 74 0 70 0;
#X connect 75 0 72 0;
#X connect 76 0 98 0;
#X connect 77 0 0 0;
#X connect 79 0 78 0;
#X connect 80 0 79 0;
#X connect 81 0 80 0;
#X connect 82 0 83 0;
#X connect 83 0 79 0;
#X connect 84 0 86 0;
#X connect 85 0 86 0;
#X connect 86 0 82 0;
#X connect 87 0 91 0;
#X connect 87 0 96 0;
#X connect 88 0 89 0;
#X connect 89 0 87 0;
#X connect 90 0 86 0;
#X connect 91 0 92 0;
#X connect 92 0 84 0;
#X connect 92 1 84 0;
#X connect 92 2 90 0;
#X connect 92 3 85 0;
#X connect 92 4 85 0;
#X connect 93 0 83 0;
#X connect 94 0 93 2;
#X connect 95 0 97 0;
#X connect 95 1 97 0;
#X connect 95 2 97 0;
#X connect 95 3 94 0;
#X connect 95 4 94 0;
#X connect 96 0 95 0;
#X connect 97 0 93 2;
#X connect 98 0 75 1;
#X connect 99 0 58 0;
#X connect 100 0 36 0;
#X connect 101 0 43 2;
#X connect 102 0 66 0;
#X connect 103 0 70 0;
#X restore -194 -113 pd gestion video/qualite/saturation;
#X obj 194 8 r quality;
#X obj 529 -59 r quality;
#X obj 178 -372 r dimen;
#X obj 510 -342 r dimen;
#X obj 518 -118 rectangle 5.33 -4;
#X msg 325 -139 link \$1;
#X obj 187 -295 loadbang;
#X msg -146 -222 destroy;
#X obj -164 -188 gemwin 30;
#X msg -164 -253 dimen 400 300 \, create \, 1;
#X obj -164 -274 loadbang;
#X text -196 -383 Patch tisse par Olivier Baudu;
#X text -196 -371 Pour le Labomedia;
#X text -197 -359 Suite a une formation sur le GLSL;
#X text -196 -347 Assuree par Jack Boyer d'RYBN;
#X msg 187 -274 open datamosh-II.frag;
#X msg 65 35 texunit 0;
#X msg 236 -70 Tex0 0 \, Tex1 1 \, Tex2 2;
#X text -164 -3 - Publie sous GPL V3.0 -;
#X text -195 -428 Tentative II d'obtenir un effet visuel proche de
celui obtenu par la technique du Datamoshing;
#X connect 0 0 5 0;
#X connect 1 0 2 0;
#X connect 1 1 23 0;
#X connect 2 0 3 0;
#X connect 2 1 35 0;
#X connect 3 0 14 0;
#X connect 4 0 7 0;
#X connect 4 1 3 1;
#X connect 4 1 8 1;
#X connect 5 0 6 0;
#X connect 5 1 12 1;
#X connect 6 0 1 0;
#X connect 7 0 12 0;
#X connect 8 0 22 0;
#X connect 9 0 34 0;
#X connect 10 0 8 0;
#X connect 11 0 4 0;
#X connect 12 0 13 0;
#X connect 15 0 2 0;
#X connect 18 0 3 0;
#X connect 19 0 12 0;
#X connect 20 0 5 0;
#X connect 21 0 4 0;
#X connect 23 0 2 0;
#X connect 24 0 33 0;
#X connect 25 0 26 0;
#X connect 27 0 26 0;
#X connect 28 0 27 0;
#X connect 33 0 1 0;
#X connect 34 0 3 0;
#X connect 35 0 2 0;
