#N canvas 533 369 740 468 10;
#X obj 28 39 gemhead;
#X obj 31 262 square 2;
#X obj 336 20 gemwin;
#X msg 337 -9 create \, 1;
#X msg 390 17 destroy;
#X obj 31 203 pix_video;
#X obj 31 237 pix_texture;
#X msg 172 209 mode 1;
#X obj 29 161 glsl_laplace;
#X msg 52 103 1 0.3 0.4 0.5;
#X floatatom 146 104 5 0 0 0 - - -;
#X connect 0 0 8 0;
#X connect 3 0 2 0;
#X connect 4 0 2 0;
#X connect 5 0 6 0;
#X connect 6 0 1 0;
#X connect 7 0 6 0;
#X connect 8 0 5 0;
#X connect 9 0 8 1;
#X connect 10 0 8 2;
