#N canvas 186 22 450 300 10;
#X obj 350 33 inlet;
#X obj 5 35 inlet;
#X obj 39 220 outlet;
#X obj 161 224 outlet;
#X obj 155 43 inlet;
#X obj 294 32 inlet;
#X obj 209 44 inlet;
#X obj 40 171 pix_shader ascii;
#X msg 375 140 tex0 \$1;
#X obj 397 33 inlet;
#X msg 397 79 tex1 \$1;
#X msg 110 85 imagegain \$1;
#X msg 196 82 imagecontrast \$1;
#X msg 294 79 dotdistance \$1;
#X obj 59 42 inlet;
#X msg 56 96 invert \$1;
#X connect 0 0 8 0;
#X connect 1 0 7 0;
#X connect 4 0 11 0;
#X connect 5 0 13 0;
#X connect 6 0 12 0;
#X connect 7 0 2 0;
#X connect 7 1 3 0;
#X connect 8 0 7 1;
#X connect 9 0 10 0;
#X connect 10 0 7 1;
#X connect 11 0 7 1;
#X connect 12 0 7 1;
#X connect 13 0 7 1;
#X connect 14 0 15 0;
#X connect 15 0 7 1;
