#N canvas 0 290 1347 610 10;
#X obj 317 178 inlet;
#X obj 125 106 inlet;
#X obj 122 326 outlet;
#X obj 235 333 outlet;
#X obj 121 272 pix_shader operation1;
#X msg 256 246 inscale \$1 \$2 \$3 \$4;
#X obj 454 173 inlet;
#X msg 393 241 outscale \$1 \$2 \$3 \$4;
#X obj 589 174 inlet;
#X msg 528 242 inoffset \$1 \$2 \$3 \$4;
#X obj 734 174 inlet;
#X msg 673 242 outoffset \$1 \$2 \$3 \$4;
#X obj 841 42 symbol;
#X obj 836 -24 inlet;
#X msg 826 266 1;
#X msg 860 266 2;
#X msg 900 264 3;
#X msg 938 267 4;
#X msg 822 310 op \$1;
#X msg 969 267 5;
#X msg 1009 268 6;
#X msg 1044 269 7;
#X msg 1086 269 8;
#X msg 1125 269 9;
#X msg 1164 269 10;
#X msg 1204 269 11;
#X msg 920 378 12;
#X msg 966 380 13;
#X msg 1004 380 14;
#X msg 1048 380 16;
#X msg 1091 378 17;
#X msg 1136 376 18;
#X msg 1190 383 19;
#X msg 920 443 20;
#X msg 970 444 21;
#X msg 1015 446 22;
#X msg 1062 444 23;
#X msg 1097 442 24;
#X msg 1137 446 25;
#X msg 1176 446 26;
#X msg 1215 447 27;
#X msg 1259 444 28;
#X obj 816 16 route float;
#X obj 838 67 sel abs acos acosh asin asinh atan atanh ceil cos cosh
exp exp2 floor fract ln log2 log10 normcos normsin not sign sin sinh
squrt tan tanh invert;
#X msg 1292 447 29;
#X connect 0 0 5 0;
#X connect 1 0 4 0;
#X connect 4 0 2 0;
#X connect 4 1 3 0;
#X connect 5 0 4 1;
#X connect 6 0 7 0;
#X connect 7 0 4 1;
#X connect 8 0 9 0;
#X connect 9 0 4 1;
#X connect 10 0 11 0;
#X connect 11 0 4 1;
#X connect 12 0 43 0;
#X connect 13 0 42 0;
#X connect 14 0 18 0;
#X connect 15 0 18 0;
#X connect 16 0 18 0;
#X connect 17 0 18 0;
#X connect 18 0 4 1;
#X connect 19 0 18 0;
#X connect 20 0 18 0;
#X connect 21 0 18 0;
#X connect 22 0 18 0;
#X connect 23 0 18 0;
#X connect 24 0 18 0;
#X connect 25 0 18 0;
#X connect 26 0 18 0;
#X connect 27 0 18 0;
#X connect 28 0 18 0;
#X connect 29 0 18 0;
#X connect 30 0 18 0;
#X connect 31 0 18 0;
#X connect 32 0 18 0;
#X connect 33 0 18 0;
#X connect 34 0 18 0;
#X connect 35 0 18 0;
#X connect 36 0 18 0;
#X connect 37 0 18 0;
#X connect 38 0 18 0;
#X connect 39 0 18 0;
#X connect 40 0 18 0;
#X connect 41 0 18 0;
#X connect 42 0 18 0;
#X connect 42 1 12 0;
#X connect 43 0 14 0;
#X connect 43 1 15 0;
#X connect 43 2 16 0;
#X connect 43 3 17 0;
#X connect 43 4 19 0;
#X connect 43 5 20 0;
#X connect 43 6 21 0;
#X connect 43 7 22 0;
#X connect 43 8 23 0;
#X connect 43 9 24 0;
#X connect 43 10 25 0;
#X connect 43 11 26 0;
#X connect 43 12 27 0;
#X connect 43 13 28 0;
#X connect 43 14 29 0;
#X connect 43 15 30 0;
#X connect 43 16 31 0;
#X connect 43 17 32 0;
#X connect 43 18 33 0;
#X connect 43 19 34 0;
#X connect 43 20 35 0;
#X connect 43 21 36 0;
#X connect 43 22 37 0;
#X connect 43 23 38 0;
#X connect 43 24 39 0;
#X connect 43 25 40 0;
#X connect 43 26 41 0;
#X connect 43 27 44 0;
#X connect 44 0 18 0;
