#N canvas 614 36 593 338 10;
#X obj 89 196 square 2;
#X obj 89 136 pix_video;
#X obj 504 -20 gemwin;
#X msg 489 -49 create \, 1;
#X msg 576 -52 destroy;
#X obj 89 167 pix_texture;
#X obj 86 2 gemhead;
#X msg 253 76 abs;
#X msg 253 115 acosh;
#X obj 88 100 glsl_operation1;
#X text 250 167 liste opérations :;
#X obj 139 -39 nColorControl inscale;
#X obj 258 -42 nColorControl outscale;
#X obj 376 -40 nColorControl inoffset;
#X obj 377 49 nColorControl outoffset;
#X floatatom 207 134 5 0 0 0 - - -;
#X msg 34 139 mode 1;
#X text 251 189 abs acos acosh asin asinh atan atanh ceil cos cosh
exp exp2 floor fract ln log2 log10 normcos normsin not sign sin sinh
squrt tan tanh invert;
#X connect 1 0 5 0;
#X connect 3 0 2 0;
#X connect 4 0 2 0;
#X connect 5 0 0 0;
#X connect 6 0 9 0;
#X connect 7 0 9 5;
#X connect 8 0 9 5;
#X connect 9 0 1 0;
#X connect 11 0 9 1;
#X connect 12 0 9 2;
#X connect 13 0 9 3;
#X connect 14 0 9 4;
#X connect 15 0 9 5;
#X connect 16 0 5 0;
