#N canvas 657 260 740 468 10;
#X obj 28 39 gemhead;
#X obj 336 20 gemwin;
#X msg 337 -9 create \, 1;
#X msg 390 17 destroy;
#X obj 31 237 pix_texture;
#X obj 305 232 pix_video;
#X obj 305 266 pix_texture;
#X msg 446 238 mode 1;
#X obj 304 196 gemhead;
#X msg 404 200 texunit 4;
#X obj 385 116 loadbang;
#X obj 309 330 square 1;
#X obj 306 294 translateXYZ 3 -3 0;
#X msg 204 139 4;
#X obj 30 160 glsl_led;
#X obj 43 117 / 100;
#X obj 101 112 pack;
#X obj 134 114 pack;
#X obj 171 115 pack;
#X floatatom 38 73 5 0 0 0 - - -;
#X floatatom 94 76 5 0 0 0 - - -;
#X floatatom 116 54 5 0 0 0 - - -;
#X floatatom 132 78 5 0 0 0 - - -;
#X floatatom 155 57 5 0 0 0 - - -;
#X floatatom 170 82 5 0 0 0 - - -;
#X floatatom 198 54 5 0 0 0 - - -;
#X obj 34 307 square 2;
#X connect 0 0 14 0;
#X connect 2 0 1 0;
#X connect 3 0 1 0;
#X connect 4 0 26 0;
#X connect 5 0 6 0;
#X connect 6 0 12 0;
#X connect 6 1 4 1;
#X connect 7 0 6 0;
#X connect 8 0 5 0;
#X connect 9 0 6 0;
#X connect 10 0 9 0;
#X connect 10 0 7 0;
#X connect 12 0 11 0;
#X connect 13 0 14 5;
#X connect 14 0 4 0;
#X connect 14 1 13 0;
#X connect 15 0 14 1;
#X connect 16 0 14 2;
#X connect 17 0 14 3;
#X connect 18 0 14 4;
#X connect 19 0 15 0;
#X connect 20 0 16 0;
#X connect 21 0 16 1;
#X connect 22 0 17 0;
#X connect 23 0 17 1;
#X connect 24 0 18 0;
#X connect 25 0 18 1;
