#N canvas 504 22 537 495 10;
#X msg -19 336 mode \$1;
#X msg 40 338 quality 1;
#X obj -18 316 tgl 15 0 empty empty empty 17 7 0 10 -262144 -1 -1 0
1;
#X obj 41 314 loadbang;
#X obj -28 167 pix_video;
#X obj -31 384 pix_texture;
#X obj -39 -34 a_gemwin;
#X obj -31 415 rectangle 8 6.6;
#X obj -28 217 pix_contrast;
#X obj 7 195 nbx 2 14 -1e+37 1e+37 0 0 empty empty empty 0 -8 0 10
-262130 -1 -1 1 256;
#X obj 42 195 nbx 2 14 -1e+37 1e+37 0 0 empty empty empty 0 -8 0 10
-262130 -1 -1 1 256;
#X obj -29 236 rotateXYZ 0 180 0;
#X obj 34 167 init 1;
#N canvas 254 238 746 349 led 0;
#X obj -27 224 outlet;
#X obj -28 41 gemhead;
#X floatatom 46 -5 5 0 0 0 - - -;
#X floatatom 90 -5 5 0 0 0 - - -;
#X floatatom 174 7 5 0 0 0 - - -;
#X floatatom 288 12 5 0 0 0 - - -;
#X floatatom 410 123 5 0 0 0 - - -;
#X msg 411 220 dotdistance \$1;
#X obj 411 199 * 0.1;
#X floatatom 336 13 5 0 0 0 - - -;
#X floatatom 442 11 5 0 0 0 - - -;
#X obj -28 98 a_shad led;
#N canvas 0 22 450 300 a_var4 0;
#X obj 50 1 inlet;
#X obj 100 1 inlet;
#X obj 50 50 * 0.1;
#X obj 100 50 * 0.1;
#X obj 50 100 t b a;
#X obj 100 100 t b a;
#X obj 100 150 symbol offset_blue;
#X obj 100 200 pack s 0 0 0 0 0 0 0;
#X obj 100 250 a_modVar;
#X obj 100 300 outlet;
#X connect 0 0 2 0;
#X connect 1 0 3 0;
#X connect 2 0 4 0;
#X connect 3 0 5 0;
#X connect 4 0 6 0;
#X connect 4 1 7 1;
#X connect 5 0 6 0;
#X connect 5 1 7 2;
#X connect 6 0 7 0;
#X connect 7 0 8 0;
#X connect 8 0 9 0;
#X restore 36 33 pd a_var4 offset_blue;
#N canvas 0 22 450 300 a_var5 0;
#X obj 50 1 inlet;
#X obj 100 1 inlet;
#X obj 50 50 * 0.1;
#X obj 100 50 * 0.1;
#X obj 50 100 t b a;
#X obj 100 100 t b a;
#X obj 100 150 symbol offset_red;
#X obj 100 200 pack s 0 0 0 0 0 0 0;
#X obj 100 250 a_modVar;
#X obj 100 300 outlet;
#X connect 0 0 2 0;
#X connect 1 0 3 0;
#X connect 2 0 4 0;
#X connect 3 0 5 0;
#X connect 4 0 6 0;
#X connect 4 1 7 1;
#X connect 5 0 6 0;
#X connect 5 1 7 2;
#X connect 6 0 7 0;
#X connect 7 0 8 0;
#X connect 8 0 9 0;
#X restore 173 31 pd a_var5 offset_red;
#N canvas 0 22 450 300 a_var6 0;
#X obj 50 1 inlet;
#X obj 100 1 inlet;
#X obj 50 50 * 0.1;
#X obj 100 50 * 0.1;
#X obj 50 100 t b a;
#X obj 100 100 t b a;
#X obj 100 150 symbol offset_green;
#X obj 100 200 pack s 0 0 0 0 0 0 0;
#X obj 100 250 a_modVar;
#X obj 100 300 outlet;
#X connect 0 0 2 0;
#X connect 1 0 3 0;
#X connect 2 0 4 0;
#X connect 3 0 5 0;
#X connect 4 0 6 0;
#X connect 4 1 7 1;
#X connect 5 0 6 0;
#X connect 5 1 7 2;
#X connect 6 0 7 0;
#X connect 7 0 8 0;
#X connect 8 0 9 0;
#X restore 334 33 pd a_var6 offset_green;
#N canvas 12 394 1174 402 dotDist_presets 0;
#X obj -48 222 line;
#X obj -48 243 outlet;
#X obj -54 -61 inlet;
#X msg 2 77 1;
#X obj -110 102 inlet;
#X msg -110 164 \$1;
#X obj -110 140 value;
#X obj -52 -3 t b b;
#X obj 4 -2 t b b;
#X obj 70 -1 t b b;
#X obj 132 0 t b b;
#X obj 190 2 t b b;
#X obj 243 4 t b b;
#X obj 304 5 t b b;
#X obj 366 5 t b b;
#X obj 416 8 t b b;
#X obj 474 10 t b b;
#X obj 532 13 t b b;
#X obj 577 13 t b b;
#X obj 631 13 t b b;
#X obj 679 14 t b b;
#X obj 330 -43 sel 0 1 2 3 4 5 6 7 8 9 10 11 12 13;
#X msg 70 80 8;
#X msg 126 83 16;
#X msg 187 83 32;
#X msg 240 84 64;
#X msg 301 84 128;
#X msg 362 84 256;
#X msg 409 84 512;
#X msg 470 84 1024;
#X msg 531 84 2048;
#X msg 577 84 4096;
#X msg 629 87 8192;
#X msg 675 87 16384;
#X msg -51 77 0.5;
#X msg 180 -74 4;
#X msg 211 -74 8;
#X obj 209 -101 del;
#X obj 179 -124 t b b b;
#X obj 248 -100 del;
#X obj 47 -126 r VledFlash1;
#X obj 259 -126 * 1.3;
#X obj 465 -101 del;
#X obj 435 -124 t b b b;
#X obj 504 -100 del;
#X obj 515 -126 * 1.3;
#X obj 303 -126 r VledFlash2;
#X msg 467 -74 10;
#X msg 436 -74 2;
#X obj 722 -101 del;
#X obj 692 -124 t b b b;
#X obj 761 -100 del;
#X obj 772 -126 * 1.3;
#X msg 693 -74 2;
#X obj 560 -126 r VledFlash3;
#X obj 575 -99 bng 15 250 50 0 empty empty empty 17 7 0 10 -262144
-1 -1;
#X msg 724 -74 5;
#X connect 0 0 1 0;
#X connect 2 0 21 0;
#X connect 3 0 0 0;
#X connect 4 0 6 0;
#X connect 5 0 0 1;
#X connect 6 0 5 0;
#X connect 6 0 37 1;
#X connect 6 0 41 0;
#X connect 6 0 42 1;
#X connect 6 0 45 0;
#X connect 6 0 49 1;
#X connect 6 0 52 0;
#X connect 7 0 34 0;
#X connect 7 1 6 0;
#X connect 8 0 3 0;
#X connect 8 1 6 0;
#X connect 9 0 22 0;
#X connect 9 1 6 0;
#X connect 10 0 23 0;
#X connect 10 1 6 0;
#X connect 11 0 24 0;
#X connect 11 1 6 0;
#X connect 12 0 25 0;
#X connect 12 1 6 0;
#X connect 13 0 26 0;
#X connect 13 1 6 0;
#X connect 14 0 27 0;
#X connect 14 1 6 0;
#X connect 15 0 28 0;
#X connect 15 1 6 0;
#X connect 16 0 29 0;
#X connect 16 1 6 0;
#X connect 17 0 30 0;
#X connect 17 1 6 0;
#X connect 18 0 31 0;
#X connect 18 1 6 0;
#X connect 19 0 32 0;
#X connect 19 1 6 0;
#X connect 20 0 33 0;
#X connect 20 1 6 0;
#X connect 21 0 7 0;
#X connect 21 1 8 0;
#X connect 21 2 9 0;
#X connect 21 3 10 0;
#X connect 21 4 11 0;
#X connect 21 5 12 0;
#X connect 21 6 13 0;
#X connect 21 7 14 0;
#X connect 21 8 15 0;
#X connect 21 9 16 0;
#X connect 21 10 17 0;
#X connect 21 11 18 0;
#X connect 21 12 19 0;
#X connect 21 13 20 0;
#X connect 22 0 0 0;
#X connect 23 0 0 0;
#X connect 24 0 0 0;
#X connect 25 0 0 0;
#X connect 26 0 0 0;
#X connect 27 0 0 0;
#X connect 28 0 0 0;
#X connect 29 0 0 0;
#X connect 30 0 0 0;
#X connect 31 0 0 0;
#X connect 32 0 0 0;
#X connect 33 0 0 0;
#X connect 34 0 0 0;
#X connect 35 0 21 0;
#X connect 36 0 21 0;
#X connect 37 0 36 0;
#X connect 38 0 35 0;
#X connect 38 1 37 0;
#X connect 38 2 39 0;
#X connect 39 0 35 0;
#X connect 40 0 38 0;
#X connect 41 0 39 1;
#X connect 42 0 47 0;
#X connect 43 0 48 0;
#X connect 43 1 42 0;
#X connect 43 2 44 0;
#X connect 44 0 48 0;
#X connect 45 0 44 1;
#X connect 46 0 43 0;
#X connect 47 0 21 0;
#X connect 48 0 21 0;
#X connect 49 0 56 0;
#X connect 50 0 53 0;
#X connect 50 1 49 0;
#X connect 50 2 51 0;
#X connect 51 0 53 0;
#X connect 52 0 51 1;
#X connect 53 0 21 0;
#X connect 54 0 50 0;
#X connect 54 0 55 0;
#X connect 56 0 21 0;
#X restore 493 37 pd dotDist_presets;
#X obj 493 -21 vsl 15 51 500 6000 0 0 empty moveSpeed empty 0 -9 0
10 -262144 -1 -1 0 1;
#X obj 515 16 hradio 15 1 0 12 empty distanz empty 0 -8 0 10 -262144
-1 -1 3;
#X obj 46 -29 r Bx;
#X obj 90 -27 r By;
#X obj 174 -15 r Rx;
#X obj 288 -13 r Ry;
#X obj 336 -12 r Gx;
#X obj 442 -12 r Gy;
#N canvas 405 376 708 339 RGBtripp 0;
#X obj 32 167 s Bx;
#X obj 98 166 s By;
#X obj 163 197 s Rx;
#X obj 237 198 s Ry;
#X obj 309 166 s Gx;
#X obj 374 165 s Gy;
#X obj 135 24 i;
#X obj 166 23 + 1;
#X obj 135 53 nbx 5 14 -1e+37 1e+37 0 0 empty empty empty 0 -8 0 10
-262144 -1 -1 1 256;
#X obj 135 -18 tgl 15 0 empty empty empty 17 7 0 10 -262144 -1 -1 0
1;
#X msg 105 2 0;
#X obj 33 143 spigot;
#X obj 68 123 tgl 15 0 empty empty empty 17 7 0 10 -262144 -1 -1 1
1;
#X obj 134 74 * -1;
#X obj 98 143 spigot;
#X obj 133 123 tgl 15 0 empty empty empty 17 7 0 10 -262144 -1 -1 1
1;
#X obj 162 174 spigot;
#X obj 200 122 tgl 15 0 empty empty empty 17 7 0 10 -262144 -1 -1 0
1;
#X obj 236 175 spigot;
#X obj 274 123 tgl 15 0 empty empty empty 17 7 0 10 -262144 -1 -1 0
1;
#X obj 309 142 spigot;
#X obj 344 122 tgl 15 0 empty empty empty 17 7 0 10 -262144 -1 -1 0
1;
#X obj 374 141 spigot;
#X obj 409 121 tgl 15 0 empty empty empty 17 7 0 10 -262144 -1 -1 0
1;
#X obj 133 97 spigot;
#X obj 168 77 tgl 15 0 empty empty empty 17 7 0 10 -262144 -1 -1 0
1;
#X obj 198 97 spigot;
#X obj 233 77 tgl 15 0 empty empty empty 17 7 0 10 -262144 -1 -1 0
1;
#X obj 265 96 spigot;
#X obj 300 76 tgl 15 0 empty empty empty 17 7 0 10 -262144 -1 -1 1
1;
#X obj 339 97 spigot;
#X obj 374 77 tgl 15 0 empty empty empty 17 7 0 10 -262144 -1 -1 1
1;
#X obj 409 96 spigot;
#X obj 444 76 tgl 15 0 empty empty empty 17 7 0 10 -262144 -1 -1 1
1;
#X obj 474 95 spigot;
#X obj 509 75 tgl 15 0 empty empty empty 17 7 0 10 -262144 -1 -1 1
1;
#X obj 184 -19 nbx 5 14 -1e+37 1e+37 0 0 empty empty empty 0 -8 0 10
-262144 -1 -1 41.6667 256;
#X obj 135 2 metro 50;
#X obj 135 -47 init 1;
#X obj 232 48 init 1;
#X obj 90 -35 inlet;
#X obj 160 146 + 20;
#X obj 98 114 + 20;
#N canvas 0 22 773 297 randomizerTrigaaaaaaaaa 0;
#X obj 182 84 random 2;
#X obj 182 151 outlet;
#X obj 239 152 outlet;
#X obj 296 86 random 2;
#X obj 296 153 outlet;
#X obj 355 154 outlet;
#X obj 411 87 random 2;
#X obj 411 154 outlet;
#X obj 468 155 outlet;
#X obj 525 89 random 2;
#X obj 525 156 outlet;
#X obj 584 157 outlet;
#X obj -47 81 random 2;
#X obj -47 148 outlet;
#X obj 10 149 outlet;
#X obj 67 83 random 2;
#X obj 67 150 outlet;
#X obj 126 151 outlet;
#X obj 145 -8 tgl 15 0 empty empty empty 17 7 0 10 -262144 -1 -1 1
1;
#X obj 145 -37 init 1;
#X obj 100 -25 inlet;
#X obj 9 122 != 1;
#X obj 125 125 != 1;
#X obj 239 127 != 1;
#X obj 355 128 != 1;
#X obj 468 128 != 1;
#X obj 584 129 != 1;
#X obj 145 12 metro 500;
#X obj 196 -13 r BPM_noire;
#X connect 0 0 1 0;
#X connect 0 0 23 0;
#X connect 3 0 4 0;
#X connect 3 0 24 0;
#X connect 6 0 7 0;
#X connect 6 0 25 0;
#X connect 9 0 10 0;
#X connect 9 0 26 0;
#X connect 12 0 13 0;
#X connect 12 0 21 0;
#X connect 15 0 16 0;
#X connect 15 0 22 0;
#X connect 18 0 27 0;
#X connect 19 0 18 0;
#X connect 20 0 18 0;
#X connect 21 0 14 0;
#X connect 22 0 17 0;
#X connect 23 0 2 0;
#X connect 24 0 5 0;
#X connect 25 0 8 0;
#X connect 26 0 11 0;
#X connect 27 0 12 0;
#X connect 27 0 15 0;
#X connect 27 0 0 0;
#X connect 27 0 3 0;
#X connect 27 0 6 0;
#X connect 27 0 9 0;
#X connect 28 0 27 1;
#X restore 334 45 pd randomizerTrigaaaaaaaaa;
#X obj 212 -44 r BPM_8croche;
#X connect 6 0 7 0;
#X connect 6 0 8 0;
#X connect 7 0 6 1;
#X connect 8 0 11 0;
#X connect 8 0 13 0;
#X connect 8 0 14 0;
#X connect 8 0 18 0;
#X connect 8 0 20 0;
#X connect 8 0 22 0;
#X connect 8 0 41 0;
#X connect 9 0 37 0;
#X connect 10 0 6 0;
#X connect 11 0 0 0;
#X connect 12 0 11 1;
#X connect 13 0 24 0;
#X connect 13 0 26 0;
#X connect 13 0 28 0;
#X connect 13 0 30 0;
#X connect 13 0 32 0;
#X connect 13 0 34 0;
#X connect 13 0 42 0;
#X connect 14 0 1 0;
#X connect 15 0 14 1;
#X connect 16 0 2 0;
#X connect 17 0 16 1;
#X connect 18 0 3 0;
#X connect 19 0 18 1;
#X connect 20 0 4 0;
#X connect 21 0 20 1;
#X connect 22 0 5 0;
#X connect 23 0 22 1;
#X connect 25 0 24 1;
#X connect 26 0 1 0;
#X connect 27 0 26 1;
#X connect 28 0 2 0;
#X connect 29 0 28 1;
#X connect 30 0 3 0;
#X connect 31 0 30 1;
#X connect 32 0 4 0;
#X connect 33 0 32 1;
#X connect 34 0 5 0;
#X connect 35 0 34 1;
#X connect 36 0 37 1;
#X connect 37 0 6 0;
#X connect 38 0 9 0;
#X connect 39 0 27 0;
#X connect 39 0 19 0;
#X connect 39 0 29 0;
#X connect 39 0 23 0;
#X connect 39 0 12 0;
#X connect 40 0 9 0;
#X connect 41 0 16 0;
#X connect 42 0 0 0;
#X connect 43 0 12 0;
#X connect 43 1 25 0;
#X connect 43 2 15 0;
#X connect 43 3 27 0;
#X connect 43 4 17 0;
#X connect 43 5 29 0;
#X connect 43 6 19 0;
#X connect 43 7 31 0;
#X connect 43 8 21 0;
#X connect 43 9 33 0;
#X connect 43 10 23 0;
#X connect 43 11 35 0;
#X connect 44 0 36 0;
#X restore 593 -6 pd RGBtripp;
#X obj 411 146 spigot;
#X obj 446 127 tgl 15 0 empty nega empty 17 7 0 10 -262144 -1 -1 0
1;
#X obj 350 138 * -1;
#X obj 354 175 spigot;
#X obj 389 156 tgl 15 0 empty empty empty 17 7 0 10 -262144 -1 -1 1
1;
#X obj 477 159 != 1;
#X obj 595 -28 tgl 15 0 empty move empty 17 7 0 10 -262144 -1 -1 0
1;
#X obj -28 16 tgl 15 0 empty empty empty 17 7 0 10 -262144 -1 -1 0
1;
#X obj -9 -10 inlet;
#X obj 534 191 init 90;
#X obj 534 217 s BPMstart;
#X connect 1 0 11 0;
#X connect 2 0 12 0;
#X connect 3 0 12 1;
#X connect 4 0 13 0;
#X connect 5 0 13 1;
#X connect 6 0 25 0;
#X connect 6 0 27 0;
#X connect 7 0 11 1;
#X connect 8 0 7 0;
#X connect 9 0 14 0;
#X connect 10 0 14 1;
#X connect 11 0 0 0;
#X connect 12 0 11 1;
#X connect 13 0 11 1;
#X connect 14 0 11 1;
#X connect 15 0 6 0;
#X connect 16 0 15 0;
#X connect 17 0 15 1;
#X connect 18 0 2 0;
#X connect 19 0 3 0;
#X connect 20 0 4 0;
#X connect 21 0 5 0;
#X connect 22 0 9 0;
#X connect 23 0 10 0;
#X connect 25 0 8 0;
#X connect 26 0 25 1;
#X connect 26 0 30 0;
#X connect 27 0 28 0;
#X connect 28 0 8 0;
#X connect 29 0 28 1;
#X connect 30 0 29 0;
#X connect 31 0 24 0;
#X connect 32 0 1 0;
#X connect 33 0 32 0;
#X connect 34 0 35 0;
#X restore -18 99 pd led;
#X obj -18 77 tgl 15 0 empty LedOnOff empty 17 7 0 10 -262144 -1 -1
0 1;
#N canvas 329 439 587 298 bloom 0;
#X obj 221 255 outlet;
#X floatatom 388 136 5 0 0 0 - - -;
#X floatatom 374 64 5 0 0 0 - - -;
#X obj 387 158 * 0.001;
#X obj 281 198 a_shad bloom;
#X msg 379 100 gain \$1;
#X msg 385 187 blur \$1;
#X obj 281 147 gemhead;
#X obj 281 122 tgl 15 0 empty empty empty 17 7 0 10 -262144 -1 -1 0
1;
#X obj 293 84 inlet;
#X obj 445 32 loadbang;
#X obj 445 52 del 345;
#X obj 446 111 r Vblo2;
#X obj 351 17 r Vblo1;
#X obj 373 43 init 1.5;
#X msg 445 72 1.61;
#X msg 340 84 1.13;
#X connect 1 0 3 0;
#X connect 2 0 5 0;
#X connect 3 0 6 0;
#X connect 4 0 0 0;
#X connect 5 0 4 1;
#X connect 6 0 4 1;
#X connect 7 0 4 0;
#X connect 8 0 7 0;
#X connect 9 0 8 0;
#X connect 10 0 11 0;
#X connect 11 0 15 0;
#X connect 12 0 1 0;
#X connect 12 0 16 0;
#X connect 13 0 2 0;
#X connect 14 0 2 0;
#X connect 15 0 2 0;
#X connect 16 0 2 0;
#X restore 31 99 pd bloom;
#X obj 29 77 tgl 15 0 empty BloOnOff empty 17 7 0 10 -262144 -1 -1
0 1;
#N canvas 0 22 450 300 pixelate 0;
#X obj 90 84 gemhead;
#X floatatom 216 72 5 0 0 0 - - -;
#X msg 216 94 scale \$1;
#X obj 90 125 a_shad pixelate;
#X obj 90 160 outlet;
#X obj 89 54 inlet;
#X obj 216 46 r Vpix;
#X connect 0 0 3 0;
#X connect 1 0 2 0;
#X connect 2 0 3 1;
#X connect 3 0 4 0;
#X connect 5 0 0 0;
#X connect 6 0 1 0;
#X restore 86 100 pd pixelate;
#X obj 86 78 tgl 15 0 empty PixOnOff empty 17 7 0 10 -262144 -1 -1
0 1;
#N canvas 797 475 450 300 sobel 0;
#X floatatom 227 185 5 0 0 0 - - -;
#X msg 226 228 width \$1;
#X obj 227 206 * 0.1;
#X obj 107 245 a_shad sobel;
#X floatatom 203 110 5 0 0 0 - - -;
#X obj 203 131 * 0.1;
#X msg 202 153 height \$1;
#X obj 106 139 inlet;
#X obj 106 160 gemhead;
#X obj 107 275 outlet;
#X obj 208 75 r Vsob1;
#X obj 282 156 r Vsob2;
#X connect 0 0 2 0;
#X connect 1 0 3 1;
#X connect 2 0 1 0;
#X connect 3 0 9 0;
#X connect 4 0 5 0;
#X connect 5 0 6 0;
#X connect 6 0 3 1;
#X connect 7 0 8 0;
#X connect 8 0 3 0;
#X connect 10 0 4 0;
#X connect 11 0 0 0;
#X restore 160 100 pd sobel;
#X obj 160 77 tgl 15 0 empty SobOnOff empty 17 7 0 10 -262144 -1 -1
0 1;
#N canvas 723 22 557 333 strecth 0;
#X obj 107 110 gemhead;
#X floatatom 227 106 5 0 0 0 - - -;
#X floatatom 288 105 5 0 0 0 - - -;
#X obj 107 144 a_shad stretch;
#N canvas 0 22 450 300 a_var2 0;
#X obj 50 1 inlet;
#X obj 100 1 inlet;
#X obj 50 100 t b a;
#X obj 100 100 t b a;
#X obj 100 150 symbol width;
#X obj 100 200 pack s 0 0 0 0 0 0 0;
#X obj 100 250 a_modVar;
#X obj 100 300 outlet;
#X obj 100 50 * 1;
#X obj 50 50 * 1;
#X connect 0 0 9 0;
#X connect 1 0 8 0;
#X connect 2 0 4 0;
#X connect 2 1 5 1;
#X connect 3 0 4 0;
#X connect 3 1 5 2;
#X connect 4 0 5 0;
#X connect 5 0 6 0;
#X connect 6 0 7 0;
#X connect 8 0 3 0;
#X connect 9 0 2 0;
#X restore 227 127 pd a_var2 width;
#N canvas 0 22 450 300 a_var3 0;
#X obj 50 1 inlet;
#X obj 100 1 inlet;
#X obj 50 100 t b a;
#X obj 100 100 t b a;
#X obj 100 150 symbol origin;
#X obj 100 200 pack s 0 0 0 0 0 0 0;
#X obj 100 250 a_modVar;
#X obj 100 300 outlet;
#X obj 100 50 * 1;
#X obj 50 50 * 1;
#X connect 0 0 9 0;
#X connect 1 0 8 0;
#X connect 2 0 4 0;
#X connect 2 1 5 1;
#X connect 3 0 4 0;
#X connect 3 1 5 2;
#X connect 4 0 5 0;
#X connect 5 0 6 0;
#X connect 6 0 7 0;
#X connect 8 0 3 0;
#X connect 9 0 2 0;
#X restore 329 128 pd a_var3 origin;
#X floatatom 333 96 5 0 0 0 - - -;
#X floatatom 377 96 5 0 0 0 - - -;
#X obj 107 83 inlet;
#X obj 107 184 outlet;
#X msg 250 12 600;
#X obj 278 35 line;
#X msg 299 12 500;
#X msg 213 11 40;
#X msg 379 16 600;
#X obj 407 39 line;
#X msg 428 16 500;
#X msg 342 15 40;
#X msg 189 44 600;
#X obj 217 67 line;
#X msg 238 44 500;
#X msg 152 43 40;
#X connect 0 0 3 0;
#X connect 1 0 4 0;
#X connect 2 0 4 1;
#X connect 3 0 9 0;
#X connect 4 0 3 1;
#X connect 5 0 3 1;
#X connect 6 0 5 0;
#X connect 7 0 5 1;
#X connect 8 0 0 0;
#X connect 10 0 11 0;
#X connect 11 0 2 0;
#X connect 12 0 11 1;
#X connect 13 0 11 0;
#X connect 14 0 15 0;
#X connect 15 0 7 0;
#X connect 16 0 15 1;
#X connect 17 0 15 0;
#X connect 18 0 19 0;
#X connect 19 0 1 0;
#X connect 20 0 19 1;
#X connect 21 0 19 0;
#X restore 418 103 pd strecth;
#X obj 418 82 tgl 15 0 empty empty empty 17 7 0 10 -262144 -1 -1 0
1;
#X text 40 -35 created by philippe boisnard - 2011;
#X text 40 -21 upgraded by nicolas weil - 2012;
#N canvas 0 22 450 300 threshold 0;
#X obj 96 38 gemhead;
#X msg 190 95 swap \$1;
#X obj 188 73 tgl 15 0 empty empty empty 17 7 0 10 -262144 -1 -1 0
1;
#X obj 96 130 a_shad threshhold;
#N canvas 0 22 450 300 a_var2 0;
#X obj 50 1 inlet;
#X obj 100 1 inlet;
#X obj 150 1 inlet;
#X obj 200 1 inlet;
#X obj 50 50 * 0.1;
#X obj 100 50 * 0.1;
#X obj 150 50 * 0.1;
#X obj 200 50 * 0.1;
#X obj 50 100 t b a;
#X obj 100 100 t b a;
#X obj 150 100 t b a;
#X obj 200 100 t b a;
#X obj 100 150 symbol thresh;
#X obj 100 200 pack s 0 0 0 0 0 0 0;
#X obj 100 250 a_modVar;
#X obj 100 300 outlet;
#X connect 0 0 4 0;
#X connect 1 0 5 0;
#X connect 2 0 6 0;
#X connect 3 0 7 0;
#X connect 4 0 8 0;
#X connect 5 0 9 0;
#X connect 6 0 10 0;
#X connect 7 0 11 0;
#X connect 8 0 12 0;
#X connect 8 1 13 1;
#X connect 9 0 12 0;
#X connect 9 1 13 2;
#X connect 10 0 12 0;
#X connect 10 1 13 3;
#X connect 11 0 12 0;
#X connect 11 1 13 4;
#X connect 12 0 13 0;
#X connect 13 0 14 0;
#X connect 14 0 15 0;
#X restore 248 96 pd a_var2 thresh;
#X floatatom 233 66 5 0 0 0 - - -;
#X floatatom 277 66 5 0 0 0 - - -;
#X floatatom 313 66 5 0 0 0 - - -;
#X floatatom 357 66 5 0 0 0 - - -;
#X obj 96 15 inlet;
#X obj 96 159 outlet;
#X obj 232 32 r Vthr1;
#X obj 282 32 r Vthr2;
#X obj 332 32 r Vthr3;
#X obj 164 31 r Vthrswap;
#X connect 0 0 3 0;
#X connect 1 0 3 1;
#X connect 2 0 1 0;
#X connect 3 0 10 0;
#X connect 4 0 3 1;
#X connect 5 0 4 0;
#X connect 6 0 4 1;
#X connect 7 0 4 2;
#X connect 8 0 4 3;
#X connect 9 0 0 0;
#X connect 11 0 5 0;
#X connect 12 0 6 0;
#X connect 13 0 7 0;
#X connect 14 0 2 0;
#X restore 215 101 pd threshold;
#X obj 216 79 tgl 15 0 empty ThrOnOff empty 17 7 0 10 -262144 -1 -1
0 1;
#N canvas 0 22 782 492 selectShad 0;
#X obj 395 373 tgl 34 0 SobOnOff empty On/Off -3 -8 0 11 -261234 -4034
-1 0 1;
#X obj 495 374 tgl 34 0 PixOnOff empty On/Off -3 -8 0 11 -261234 -4034
-1 0 1;
#X obj 604 367 tgl 34 0 BloOnOff empty On/Off -3 -8 0 11 -261234 -4034
-1 0 1;
#X obj 711 369 tgl 34 0 LedOnOff empty On/Off -3 -8 0 11 -261234 -4034
-1 0 1;
#X obj 294 371 tgl 34 0 ThrOnOff empty On/Off -3 -8 0 11 -261234 -4034
-1 0 1;
#X obj 298 17 r ThrOnOff;
#X obj 229 17 r SobOnOff;
#X obj 158 17 r PixOnOff;
#X obj 84 17 r BloOnOff;
#X obj 16 18 r LedOnOff;
#X obj 16 40 sel 0 1;
#X msg 35 62 0;
#X obj 84 42 sel 0 1;
#X msg 103 65 0;
#X obj 157 42 sel 0 1;
#X msg 176 64 0;
#X obj 225 44 sel 0 1;
#X msg 244 67 0;
#X obj 300 40 sel 0 1;
#X msg 319 62 0;
#X obj 198 374 tgl 34 0 LapOnOff Lapgui Laplace -3 -8 0 9 -261234 -4034
-1 0 1;
#X obj 369 39 sel 0 1;
#X msg 388 61 0;
#X obj 367 16 r LapOnOff;
#X obj 97 375 tgl 34 0 BluOnOff Blugui BLUR -3 -8 0 11 -261234 -4034
-1 0 1;
#X obj 438 39 sel 0 1;
#X msg 457 61 0;
#X obj 436 16 r BluOnOff;
#X obj 238 378 s Thrgui;
#X obj 141 379 s Lapgui;
#X obj 39 375 s Blugui;
#X obj 335 379 s Sobgui;
#X obj 437 383 s Pixgui;
#X obj 534 382 s Blogui;
#X obj 647 380 s Ledgui;
#X connect 5 0 18 0;
#X connect 6 0 16 0;
#X connect 7 0 14 0;
#X connect 8 0 12 0;
#X connect 9 0 10 0;
#X connect 10 1 11 0;
#X connect 11 0 2 0;
#X connect 11 0 1 0;
#X connect 11 0 0 0;
#X connect 11 0 4 0;
#X connect 11 0 20 0;
#X connect 11 0 24 0;
#X connect 11 0 28 0;
#X connect 11 0 29 0;
#X connect 11 0 30 0;
#X connect 11 0 31 0;
#X connect 11 0 32 0;
#X connect 11 0 33 0;
#X connect 12 1 13 0;
#X connect 13 0 3 0;
#X connect 13 0 1 0;
#X connect 13 0 0 0;
#X connect 13 0 4 0;
#X connect 13 0 20 0;
#X connect 13 0 24 0;
#X connect 13 0 28 0;
#X connect 13 0 29 0;
#X connect 13 0 30 0;
#X connect 13 0 31 0;
#X connect 13 0 32 0;
#X connect 13 0 34 0;
#X connect 14 1 15 0;
#X connect 15 0 3 0;
#X connect 15 0 2 0;
#X connect 15 0 0 0;
#X connect 15 0 4 0;
#X connect 15 0 20 0;
#X connect 15 0 24 0;
#X connect 15 0 28 0;
#X connect 15 0 29 0;
#X connect 15 0 30 0;
#X connect 15 0 31 0;
#X connect 15 0 33 0;
#X connect 15 0 34 0;
#X connect 16 1 17 0;
#X connect 17 0 3 0;
#X connect 17 0 2 0;
#X connect 17 0 1 0;
#X connect 17 0 4 0;
#X connect 17 0 20 0;
#X connect 17 0 24 0;
#X connect 17 0 28 0;
#X connect 17 0 29 0;
#X connect 17 0 30 0;
#X connect 17 0 32 0;
#X connect 17 0 33 0;
#X connect 17 0 34 0;
#X connect 18 1 19 0;
#X connect 19 0 3 0;
#X connect 19 0 2 0;
#X connect 19 0 1 0;
#X connect 19 0 0 0;
#X connect 19 0 20 0;
#X connect 19 0 24 0;
#X connect 19 0 29 0;
#X connect 19 0 31 0;
#X connect 19 0 32 0;
#X connect 19 0 33 0;
#X connect 19 0 34 0;
#X connect 21 1 22 0;
#X connect 22 0 3 0;
#X connect 22 0 2 0;
#X connect 22 0 1 0;
#X connect 22 0 0 0;
#X connect 22 0 4 0;
#X connect 22 0 24 0;
#X connect 22 0 28 0;
#X connect 22 0 31 0;
#X connect 22 0 32 0;
#X connect 22 0 33 0;
#X connect 22 0 34 0;
#X connect 23 0 21 0;
#X connect 25 1 26 0;
#X connect 26 0 3 0;
#X connect 26 0 2 0;
#X connect 26 0 1 0;
#X connect 26 0 0 0;
#X connect 26 0 4 0;
#X connect 26 0 20 0;
#X connect 26 0 28 0;
#X connect 26 0 29 0;
#X connect 26 0 31 0;
#X connect 26 0 32 0;
#X connect 26 0 33 0;
#X connect 26 0 34 0;
#X connect 27 0 25 0;
#X restore 85 -5 pd selectShad;
#X obj 66 263 nbx 5 14 -1e+37 1e+37 0 0 empty empty empty 0 -8 0 10
-262144 -1 -1 0 256;
#X obj -29 288 translateXYZ 0 0 0.87;
#N canvas 382 363 660 300 laplace 0;
#X obj 58 69 gemhead;
#X obj 59 191 glsl_laplace;
#X msg 107 165 1 0.3 0.4 0.5;
#X floatatom 240 133 5 0 0 0 - - -;
#X obj 59 46 inlet;
#X obj 59 247 outlet;
#X msg 98 144 0.7 0.9 0.2 0.5;
#X obj 165 244 print;
#X msg 91 124 0.4 1 0.2 0.9 0.3;
#X obj 240 66 i;
#X obj 269 66 + 1;
#X obj 240 18 tgl 15 0 empty vLap2 empty 17 7 0 10 -262144 -1 -1 0
1;
#X obj 240 39 metro 50;
#X obj 198 176 * 2;
#X obj 83 105 pack 0 0 0 0;
#X msg 178 80 1 1 1 1;
#X obj 120 12 vsl 17 51 0 1 0 0 empty R1 empty 0 -9 0 10 -258113 -1
-1 1500 1;
#X obj 143 13 vsl 17 51 0 1 0 0 empty G1 empty 0 -9 0 10 -4034 -1 -1
1500 1;
#X obj 166 13 vsl 17 51 0 1 0 0 empty B1 empty 0 -9 0 10 -4032 -1 -1
1500 1;
#X obj 111 82 bng 15 250 50 0 empty empty empty 17 7 0 10 -262144 -1
-1;
#X obj 285 0 r moveSpeed;
#X obj 286 19 / 4;
#X obj 240 86 mod 32;
#X obj 352 20 r Vlap;
#X obj 352 41 sel 0 1 2 3 4 5 6 7 8;
#X msg 311 68 2;
#X msg 344 69 4;
#X msg 374 69 8;
#X msg 404 70 16;
#X msg 433 70 32;
#X msg 466 71 64;
#X msg 496 71 128;
#X msg 526 72 256;
#X obj 286 108 r Vlap3;
#X connect 0 0 1 0;
#X connect 1 0 5 0;
#X connect 1 1 7 0;
#X connect 2 0 1 1;
#X connect 3 0 13 0;
#X connect 4 0 0 0;
#X connect 6 0 1 1;
#X connect 8 0 1 1;
#X connect 9 0 10 0;
#X connect 9 0 22 0;
#X connect 10 0 9 1;
#X connect 11 0 12 0;
#X connect 12 0 9 0;
#X connect 13 0 1 2;
#X connect 14 0 1 1;
#X connect 15 0 1 1;
#X connect 16 0 14 0;
#X connect 17 0 14 1;
#X connect 17 0 19 0;
#X connect 18 0 14 2;
#X connect 18 0 19 0;
#X connect 19 0 14 0;
#X connect 20 0 21 0;
#X connect 21 0 12 1;
#X connect 22 0 3 0;
#X connect 23 0 24 0;
#X connect 24 0 25 0;
#X connect 24 1 26 0;
#X connect 24 2 27 0;
#X connect 24 3 28 0;
#X connect 24 4 29 0;
#X connect 24 5 30 0;
#X connect 24 6 31 0;
#X connect 24 7 32 0;
#X connect 25 0 22 1;
#X connect 26 0 22 1;
#X connect 27 0 22 1;
#X connect 28 0 22 1;
#X connect 29 0 22 1;
#X connect 30 0 22 1;
#X connect 31 0 22 1;
#X connect 32 0 22 1;
#X connect 33 0 3 0;
#X restore 298 102 pd laplace;
#X obj 298 83 tgl 15 0 empty LapOnOff empty 17 7 0 10 -262144 -1 -1
0 1;
#N canvas 240 40 868 514 BPM 0;
#X obj -44 235 seq.tgl8_;
#X obj -44 142 timing.tempo_ 120 1 8;
#N canvas 531 56 450 300 convertt 0;
#X obj 140 62 inlet;
#X obj 140 122 /;
#X obj 140 148 * 60;
#X msg 140 99 1000 \$1;
#X obj 139 201 outlet;
#X connect 0 0 3 0;
#X connect 1 0 2 0;
#X connect 2 0 4 0;
#X connect 3 0 1 0;
#X restore 292 131 pd convertt;
#X obj 10 112 nbx 5 14 -1e+37 1e+37 0 0 empty empty empty 0 -8 0 10
-262144 -1 -1 90 256;
#X obj 274 206 f;
#X obj 274 187 bng 15 250 50 0 empty empty empty 17 7 0 10 -262144
-1 -1;
#X obj 12 202 s trig;
#X obj -73 123 tgl 15 0 empty empty empty 17 7 0 10 -262144 -1 -1 1
1;
#X obj 10 88 r BPM;
#X obj 164 309 s BPM_noire;
#X obj 274 232 nbx 5 14 -1e+37 1e+37 0 0 empty empty empty 0 -8 0 10
-262144 -1 -1 666.667 256;
#X obj 280 287 s BPM_croche;
#X obj 367 288 s BPM_2croche;
#X obj 462 291 s BPM_4croche;
#X obj 558 291 s BPM_8croche;
#X obj 276 263 / 2;
#X obj 365 261 / 4;
#X obj 456 267 / 8;
#X obj 558 268 / 16;
#X obj 465 195 s BPMtime;
#X obj 465 138 loadbang;
#X msg 465 169 1000;
#X obj -39 93 init 1;
#X obj 41 296 s BPM_blanche;
#X obj 144 254 * 8;
#X obj 306 432 s moveSpeed;
#X obj 294 340 sel 0 1 2 3 4 5;
#X obj 294 317 r SpeedSel;
#X obj 399 434 r moveSpeed;
#X obj 400 458 nbx 5 14 -1e+37 1e+37 0 0 empty empty empty 0 -8 0 10
-262144 -1 -1 3 256;
#X obj 401 341 nbx 5 14 -1e+37 1e+37 0 0 empty empty empty 0 -8 0 10
-262144 -1 -1 0 256;
#X obj 100 378 f;
#X obj 202 379 f;
#X obj 265 382 f;
#X obj 335 383 f;
#X obj 424 383 f;
#X obj 500 383 f;
#X connect 1 0 0 0;
#X connect 1 0 5 0;
#X connect 1 0 6 0;
#X connect 2 0 4 1;
#X connect 3 0 2 0;
#X connect 3 0 1 1;
#X connect 4 0 10 0;
#X connect 5 0 4 0;
#X connect 7 0 1 0;
#X connect 8 0 3 0;
#X connect 10 0 9 0;
#X connect 10 0 15 0;
#X connect 10 0 16 0;
#X connect 10 0 17 0;
#X connect 10 0 18 0;
#X connect 10 0 24 0;
#X connect 10 0 32 1;
#X connect 15 0 11 0;
#X connect 15 0 33 1;
#X connect 16 0 12 0;
#X connect 16 0 34 1;
#X connect 17 0 13 0;
#X connect 17 0 35 1;
#X connect 18 0 14 0;
#X connect 18 0 36 1;
#X connect 20 0 21 0;
#X connect 21 0 19 0;
#X connect 22 0 7 0;
#X connect 24 0 23 0;
#X connect 24 0 31 1;
#X connect 26 0 31 0;
#X connect 26 1 32 0;
#X connect 26 2 33 0;
#X connect 26 3 34 0;
#X connect 26 4 35 0;
#X connect 26 5 36 0;
#X connect 27 0 26 0;
#X connect 27 0 30 0;
#X connect 28 0 29 0;
#X connect 31 0 25 0;
#X connect 32 0 25 0;
#X connect 33 0 25 0;
#X connect 34 0 25 0;
#X connect 35 0 25 0;
#X connect 36 0 25 0;
#X restore 41 -5 pd BPM;
#N canvas 0 22 450 300 blur 0;
#X obj 77 -1 gemhead;
#X obj 76 72 glsl_blur;
#X floatatom 138 1 5 0 0 0 - - -;
#X obj 76 -21 tgl 15 0 empty empty empty 17 7 0 10 -262144 -1 -1 1
1;
#X obj 75 103 outlet;
#X obj 75 -48 inlet;
#X obj 140 -23 r VBlu;
#X connect 0 0 1 0;
#X connect 1 0 4 0;
#X connect 2 0 1 1;
#X connect 3 0 0 0;
#X connect 5 0 3 0;
#X connect 6 0 2 0;
#X restore 367 103 pd blur;
#X obj 368 83 tgl 15 0 empty BluOnOff empty 17 7 0 10 -262144 -1 -1
1 1;
#N canvas 0 22 1011 493 initialisation 0;
#X obj 8 183 s moveSpeed;
#X obj 145 183 s initLed1;
#X obj 145 142 init 1;
#X obj 217 184 s move;
#X obj 82 143 init 5;
#X obj 8 143 init 2;
#X obj 64 40 loadbang;
#X obj 66 90 t b b b;
#X msg 146 110 0;
#X msg 71 116 3;
#X obj 66 65 del 675;
#X obj 180 -28 r LedOnOff;
#X obj 272 183 s Vbloinit;
#X obj 341 180 s Vpixinit;
#X obj 581 133 init 4;
#X obj 82 208 s distanzinit;
#X obj 410 179 s Vsob1init;
#X obj 445 130 init 5;
#X obj 487 180 s Vsob2init;
#X obj 710 179 s Vthr1init;
#X obj 400 422 s Vlapinit;
#X obj 400 389 init 5;
#X msg 469 398 0.3;
#X obj 492 366 loadbang;
#X obj 531 423 s init1;
#X obj 325 422 s Vlap3init;
#X obj 325 391 init 34;
#X obj 583 423 s VBluinit;
#X obj 560 178 s Vthr2init;
#X obj 635 178 s Vthr3init;
#X obj 582 396 init 4;
#X obj 275 -28 r BloOnOff;
#X msg 247 121 1;
#X obj 354 -29 r PixOnOff;
#X msg 341 108 4;
#X obj 184 79 spigot;
#X obj 218 58 init 1;
#X obj 201 15 del 500;
#X msg 202 38 0;
#X obj 177 -5 t b b;
#X obj 282 77 spigot;
#X obj 316 56 init 1;
#X obj 299 13 del 500;
#X msg 300 36 0;
#X obj 275 -7 t b b;
#X obj 382 79 spigot;
#X obj 416 58 init 1;
#X obj 399 15 del 500;
#X msg 400 38 0;
#X obj 375 -5 t b b;
#X msg 456 97 4;
#X obj 497 68 spigot;
#X obj 531 47 init 1;
#X obj 514 4 del 500;
#X msg 515 27 0;
#X obj 490 -16 t b b;
#X obj 469 -40 r SobOnOff;
#X msg 666 126 4;
#X obj 641 70 spigot;
#X obj 675 49 init 1;
#X obj 658 6 del 500;
#X msg 659 29 0;
#X obj 634 -14 t b b;
#X obj 613 -38 r LapOnOff;
#X msg 403 354 4;
#X obj 444 325 spigot;
#X obj 478 304 init 1;
#X obj 461 261 del 500;
#X msg 462 284 0;
#X obj 437 241 t b b;
#X obj 416 217 r LapOnOff;
#X msg 322 339 31;
#X obj 593 335 spigot;
#X obj 627 314 init 1;
#X obj 610 271 del 500;
#X msg 611 294 0;
#X obj 586 251 t b b;
#X obj 565 227 r BluOnOff;
#X msg 590 370 4;
#X obj 468 423 s init2;
#X obj 718 414 s init0;
#X obj 718 389 init 0;
#X connect 2 0 1 0;
#X connect 2 0 3 0;
#X connect 2 0 12 0;
#X connect 4 0 15 0;
#X connect 5 0 0 0;
#X connect 6 0 10 0;
#X connect 7 1 9 0;
#X connect 7 2 8 0;
#X connect 8 0 1 0;
#X connect 8 0 3 0;
#X connect 9 0 0 0;
#X connect 9 0 15 0;
#X connect 10 0 7 0;
#X connect 11 0 39 0;
#X connect 14 0 13 0;
#X connect 14 0 28 0;
#X connect 14 0 29 0;
#X connect 14 0 19 0;
#X connect 17 0 16 0;
#X connect 17 0 18 0;
#X connect 21 0 20 0;
#X connect 22 0 24 0;
#X connect 22 0 79 0;
#X connect 23 0 22 0;
#X connect 26 0 25 0;
#X connect 30 0 27 0;
#X connect 31 0 44 0;
#X connect 32 0 12 0;
#X connect 33 0 49 0;
#X connect 34 0 13 0;
#X connect 35 0 7 0;
#X connect 36 0 35 1;
#X connect 37 0 38 0;
#X connect 38 0 35 1;
#X connect 39 0 35 0;
#X connect 39 1 37 0;
#X connect 40 0 32 0;
#X connect 41 0 40 1;
#X connect 42 0 43 0;
#X connect 43 0 40 1;
#X connect 44 0 40 0;
#X connect 44 1 42 0;
#X connect 45 0 34 0;
#X connect 46 0 45 1;
#X connect 47 0 48 0;
#X connect 48 0 45 1;
#X connect 49 0 45 0;
#X connect 49 1 47 0;
#X connect 50 0 16 0;
#X connect 50 0 18 0;
#X connect 51 0 50 0;
#X connect 52 0 51 1;
#X connect 53 0 54 0;
#X connect 54 0 51 1;
#X connect 55 0 51 0;
#X connect 55 1 53 0;
#X connect 56 0 55 0;
#X connect 57 0 28 0;
#X connect 57 0 29 0;
#X connect 57 0 19 0;
#X connect 58 0 57 0;
#X connect 59 0 58 1;
#X connect 60 0 61 0;
#X connect 61 0 58 1;
#X connect 62 0 58 0;
#X connect 62 1 60 0;
#X connect 63 0 62 0;
#X connect 64 0 20 0;
#X connect 65 0 64 0;
#X connect 65 0 71 0;
#X connect 65 0 22 0;
#X connect 66 0 65 1;
#X connect 67 0 68 0;
#X connect 68 0 65 1;
#X connect 69 0 65 0;
#X connect 69 1 67 0;
#X connect 70 0 69 0;
#X connect 71 0 25 0;
#X connect 72 0 78 0;
#X connect 73 0 72 1;
#X connect 74 0 75 0;
#X connect 75 0 72 1;
#X connect 76 0 72 0;
#X connect 76 1 74 0;
#X connect 77 0 76 0;
#X connect 78 0 27 0;
#X connect 81 0 80 0;
#X restore 171 -5 pd initialisation;
#X obj 316 23 cnv 15 56 22 empty empty empty 20 12 0 14 -258113 -66577
0;
#N canvas 1041 22 230 560 FRONT 1;
#X obj 6 -28 tgl 34 0 Start init0 Start 1 17 0 11 -261234 -4034 -1
0 1;
#X obj 47 -11 nbx 3 17 -1e+37 1e+37 0 0 BPM BPMstart BPM 0 -8 0 11
-204800 -1 -159808 0 256;
#X obj 9 212 cnv 15 204 68 empty empty empty 20 12 0 14 -232576 -66577
0;
#X obj 64 261 hsl 140 17 0.001 50 0 0 Vsob2 Vsob2init Width -2 -8 0
11 -261682 -1 -1 0 1;
#X obj 20 238 tgl 34 0 SobOnOff Sobgui SOBEL -3 -8 0 11 -261234 -4034
-1 0 1;
#X obj 64 227 hsl 140 17 0.001 50 0 0 Vsob1 Vsob1init Height -2 -8
0 11 -204786 -1 -1 0 1;
#X obj 8 157 cnv 15 204 51 empty empty empty 20 12 0 14 -228856 -66577
0;
#X obj 63 189 hsl 140 17 0.001 16 0 0 Vpix Vpixinit Pixelate -2 -8
0 11 -261682 -1 -1 0 1;
#X obj 18 172 tgl 34 0 PixOnOff Pixgui PIXEL -3 -8 0 11 -261234 -4034
-1 0 1;
#X obj 7 102 cnv 15 204 51 empty empty empty 20 12 0 14 -232576 -66577
0;
#X obj 60 133 hsl 140 17 -500 500 0 0 Vblo2 Vbloinit bloom -2 -8 0
11 -261682 -1 -1 0 1;
#X obj 18 117 tgl 34 0 BloOnOff Blogui BLOOM -3 -8 0 11 -261234 -4034
-1 0 1;
#X obj 7 12 cnv 15 204 85 empty empty empty 20 12 0 14 -228856 -66577
0;
#X obj 15 77 hradio 15 1 0 12 distanz distanzinit size 0 -8 0 11 -4032
-1 -1 0;
#X obj 56 28 tgl 34 0 nega initLed1 Square -3 -8 0 11 -262130 -4034
-1 0 1;
#X obj 96 28 tgl 34 0 move init0 Move 3 -8 0 11 -204786 -4034 -1 0
1;
#X obj 14 28 tgl 34 0 LedOnOff Ledgui LED -3 -8 0 11 -261234 -4034
-1 0 1;
#X obj 93 -17 hradio 15 1 0 6 SpeedSel empty speed 0 -8 0 11 -261682
-1 -1 0;
#X obj 10 283 cnv 15 204 102 empty empty empty 20 12 0 14 -228856 -66577
0;
#X obj 65 332 hsl 140 17 0.001 8 0 0 Vthr2 Vthr2init Green -2 -8 0
11 -204786 -1 -1 0 1;
#X obj 19 298 tgl 34 0 ThrOnOff Thrgui THRESH -3 -8 0 11 -261234 -4034
-1 0 1;
#X obj 65 298 hsl 140 17 0.001 8 0 0 Vthr1 Vthr1init Red -2 -8 0 11
-261234 -1 -1 0 1;
#X obj 66 365 hsl 140 17 0.001 8 0 0 Vthr3 Vthr3init Blue -2 -8 0 11
-204800 -1 -1 0 1;
#X obj 21 348 tgl 34 0 Vthrswap init0 Swap -3 -8 0 11 -262130 -4034
-1 0 1;
#X obj 11 389 cnv 15 204 68 empty empty empty 20 12 0 14 -232576 -66577
0;
#X obj 22 415 tgl 34 0 LapOnOff Lapgui Laplace -3 -8 0 9 -261234 -4034
-1 0 1;
#X obj 95 394 vsl 17 34 0 1 0 0 R1 init2 empty 0 -9 0 10 -258113 -1
-1 0 1;
#X obj 118 395 vsl 17 34 0 1 0 0 G1 init1 empty 0 -9 0 10 -4034 -1
-1 0 1;
#X obj 141 395 vsl 17 34 0 1 0 0 B1 init1 empty 0 -9 0 10 -4032 -1
-1 0 1;
#X obj 60 434 hradio 15 1 0 10 Vlap Vlapinit size 0 -8 0 11 -4032 -1
-1 0;
#X obj 165 412 tgl 17 0 vLap2 init0 Move 0 -8 0 9 -204786 -4034 -1
0 1;
#X obj 191 395 vsl 17 34 0.001 96 0 0 Vlap3 Vlap3init empty 0 -9 0
10 -257985 -1 -1 0 1;
#X obj 12 461 cnv 15 204 51 empty empty empty 20 12 0 14 -228856 -66577
0;
#X obj 67 493 hsl 140 17 0.001 7 0 0 VBlu VBluinit Blur -2 -8 0 11
-261682 -1 -1 0 1;
#X obj 22 476 tgl 34 0 BluOnOff Blugui BLUR -3 -8 0 11 -261234 -4034
-1 0 1;
#X obj 135 15 bng 17 250 50 0 VledFlash1 empty flash 17 7 0 10 -257985
-1 -1;
#X obj 136 35 bng 17 250 50 0 VledFlash2 empty flash2 17 7 0 10 -257985
-1 -1;
#X obj 137 57 bng 17 250 50 0 VledFlash3 empty flash3 17 7 0 10 -257985
-1 -1;
#X restore 318 26 pd FRONT;
#X text 380 25 < ---- ouvrir;
#X connect 0 0 5 0;
#X connect 1 0 5 0;
#X connect 2 0 0 0;
#X connect 3 0 1 0;
#X connect 4 0 8 0;
#X connect 5 0 7 0;
#X connect 8 0 11 0;
#X connect 9 0 8 1;
#X connect 10 0 8 2;
#X connect 11 0 29 0;
#X connect 12 0 10 0;
#X connect 12 0 9 0;
#X connect 13 0 4 0;
#X connect 14 0 13 0;
#X connect 15 0 4 0;
#X connect 16 0 15 0;
#X connect 17 0 4 0;
#X connect 18 0 17 0;
#X connect 19 0 4 0;
#X connect 20 0 19 0;
#X connect 22 0 21 0;
#X connect 25 0 4 0;
#X connect 26 0 25 0;
#X connect 28 0 29 3;
#X connect 29 0 5 0;
#X connect 30 0 4 0;
#X connect 31 0 30 0;
#X connect 33 0 4 0;
#X connect 34 0 33 0;
