#N canvas 439 106 675 321 10;
#X obj -28 41 gemhead;
#X msg 148 232 mode \$1;
#X msg 211 238 quality 1;
#X obj 149 212 tgl 15 0 empty empty empty 17 7 0 10 -262144 -1 -1 1
1;
#X obj 212 214 loadbang;
#X floatatom 46 -5 5 0 0 0 - - -;
#X floatatom 90 -5 5 0 0 0 - - -;
#X obj -28 167 pix_video;
#X floatatom 174 7 5 0 0 0 - - -;
#X floatatom 288 12 5 0 0 0 - - -;
#X obj -28 258 pix_texture;
#X floatatom 493 60 5 0 0 0 - - -;
#X msg 494 157 dotdistance \$1;
#X obj 494 136 * 0.1;
#X floatatom 336 13 5 0 0 0 - - -;
#X floatatom 442 11 5 0 0 0 - - -;
#X obj 514 -34 a_gemwin;
#X obj -28 98 a_shad led;
#N canvas 0 22 450 300 a_var4 0;
#X obj 50 1 inlet;
#X obj 100 1 inlet;
#X obj 50 50 * 0.1;
#X obj 100 50 * 0.1;
#X obj 50 100 t b a;
#X obj 100 100 t b a;
#X obj 100 150 symbol offset_blue;
#X obj 100 200 pack s 0 0 0 0 0 0 0;
#X obj 100 250 a_modVar;
#X obj 100 300 outlet;
#X connect 0 0 2 0;
#X connect 1 0 3 0;
#X connect 2 0 4 0;
#X connect 3 0 5 0;
#X connect 4 0 6 0;
#X connect 4 1 7 1;
#X connect 5 0 6 0;
#X connect 5 1 7 2;
#X connect 6 0 7 0;
#X connect 7 0 8 0;
#X connect 8 0 9 0;
#X restore 36 33 pd a_var4 offset_blue;
#N canvas 0 22 450 300 a_var5 0;
#X obj 50 1 inlet;
#X obj 100 1 inlet;
#X obj 50 50 * 0.1;
#X obj 100 50 * 0.1;
#X obj 50 100 t b a;
#X obj 100 100 t b a;
#X obj 100 150 symbol offset_red;
#X obj 100 200 pack s 0 0 0 0 0 0 0;
#X obj 100 250 a_modVar;
#X obj 100 300 outlet;
#X connect 0 0 2 0;
#X connect 1 0 3 0;
#X connect 2 0 4 0;
#X connect 3 0 5 0;
#X connect 4 0 6 0;
#X connect 4 1 7 1;
#X connect 5 0 6 0;
#X connect 5 1 7 2;
#X connect 6 0 7 0;
#X connect 7 0 8 0;
#X connect 8 0 9 0;
#X restore 173 31 pd a_var5 offset_red;
#N canvas 0 22 450 300 a_var6 0;
#X obj 50 1 inlet;
#X obj 100 1 inlet;
#X obj 50 50 * 0.1;
#X obj 100 50 * 0.1;
#X obj 50 100 t b a;
#X obj 100 100 t b a;
#X obj 100 150 symbol offset_green;
#X obj 100 200 pack s 0 0 0 0 0 0 0;
#X obj 100 250 a_modVar;
#X obj 100 300 outlet;
#X connect 0 0 2 0;
#X connect 1 0 3 0;
#X connect 2 0 4 0;
#X connect 3 0 5 0;
#X connect 4 0 6 0;
#X connect 4 1 7 1;
#X connect 5 0 6 0;
#X connect 5 1 7 2;
#X connect 6 0 7 0;
#X connect 7 0 8 0;
#X connect 8 0 9 0;
#X restore 334 33 pd a_var6 offset_green;
#N canvas 17 64 1174 402 dotDist_presets 0;
#X obj -48 170 line;
#X obj -48 191 outlet;
#X obj -54 -113 inlet;
#X msg 2 25 1;
#X obj -110 50 inlet;
#X msg -110 112 \$1;
#X obj -110 88 value;
#X obj -52 -55 t b b;
#X obj 4 -54 t b b;
#X obj 70 -53 t b b;
#X obj 132 -52 t b b;
#X obj 190 -50 t b b;
#X obj 243 -48 t b b;
#X obj 304 -47 t b b;
#X obj 366 -47 t b b;
#X obj 416 -44 t b b;
#X obj 474 -42 t b b;
#X obj 532 -39 t b b;
#X obj 577 -39 t b b;
#X obj 631 -39 t b b;
#X obj 679 -38 t b b;
#X obj 330 -95 sel 0 1 2 3 4 5 6 7 8 9 10 11 12 13;
#X msg 70 28 8;
#X msg 126 31 16;
#X msg 187 31 32;
#X msg 240 32 64;
#X msg 301 32 128;
#X msg 362 32 256;
#X msg 409 32 512;
#X msg 470 32 1024;
#X msg 531 32 2048;
#X msg 577 32 4096;
#X msg 629 35 8192;
#X msg 675 35 16384;
#X msg -51 25 0.5;
#X connect 0 0 1 0;
#X connect 2 0 21 0;
#X connect 3 0 0 0;
#X connect 4 0 6 0;
#X connect 5 0 0 1;
#X connect 6 0 5 0;
#X connect 7 0 34 0;
#X connect 7 1 6 0;
#X connect 8 0 3 0;
#X connect 8 1 6 0;
#X connect 9 0 22 0;
#X connect 9 1 6 0;
#X connect 10 0 23 0;
#X connect 10 1 6 0;
#X connect 11 0 24 0;
#X connect 11 1 6 0;
#X connect 12 0 25 0;
#X connect 12 1 6 0;
#X connect 13 0 26 0;
#X connect 13 1 6 0;
#X connect 14 0 27 0;
#X connect 14 1 6 0;
#X connect 15 0 28 0;
#X connect 15 1 6 0;
#X connect 16 0 29 0;
#X connect 16 1 6 0;
#X connect 17 0 30 0;
#X connect 17 1 6 0;
#X connect 18 0 31 0;
#X connect 18 1 6 0;
#X connect 19 0 32 0;
#X connect 19 1 6 0;
#X connect 20 0 33 0;
#X connect 20 1 6 0;
#X connect 21 0 7 0;
#X connect 21 1 8 0;
#X connect 21 2 9 0;
#X connect 21 3 10 0;
#X connect 21 4 11 0;
#X connect 21 5 12 0;
#X connect 21 6 13 0;
#X connect 21 7 14 0;
#X connect 21 8 15 0;
#X connect 21 9 16 0;
#X connect 21 10 17 0;
#X connect 21 11 18 0;
#X connect 21 12 19 0;
#X connect 21 13 20 0;
#X connect 22 0 0 0;
#X connect 23 0 0 0;
#X connect 24 0 0 0;
#X connect 25 0 0 0;
#X connect 26 0 0 0;
#X connect 27 0 0 0;
#X connect 28 0 0 0;
#X connect 29 0 0 0;
#X connect 30 0 0 0;
#X connect 31 0 0 0;
#X connect 32 0 0 0;
#X connect 33 0 0 0;
#X connect 34 0 0 0;
#X restore 493 37 pd dotDist_presets;
#X obj 493 -21 vsl 15 51 500 6000 0 0 empty BPM_blanche empty 0 -9
0 10 -262144 -1 -1 3782 1;
#X obj 515 16 hradio 15 1 0 12 empty distanz empty 0 -8 0 10 -262144
-1 -1 3;
#X obj -28 289 rectangle 8 6.6;
#X obj 46 -29 r Bx;
#X obj 90 -27 r By;
#X obj 174 -15 r Rx;
#X obj 288 -13 r Ry;
#X obj 336 -12 r Gx;
#X obj 442 -12 r Gy;
#N canvas 405 376 708 339 RGBtripp 0;
#X obj 32 167 s Bx;
#X obj 98 166 s By;
#X obj 163 197 s Rx;
#X obj 237 198 s Ry;
#X obj 309 166 s Gx;
#X obj 374 165 s Gy;
#X obj 135 24 i;
#X obj 166 23 + 1;
#X obj 135 53 nbx 5 14 -1e+37 1e+37 0 0 empty empty empty 0 -8 0 10
-262144 -1 -1 5122 256;
#X obj 135 -18 tgl 15 0 empty empty empty 17 7 0 10 -262144 -1 -1 1
1;
#X msg 105 2 0;
#X obj 33 143 spigot;
#X obj 68 123 tgl 15 0 empty empty empty 17 7 0 10 -262144 -1 -1 0
1;
#X obj 134 74 * -1;
#X obj 98 143 spigot;
#X obj 133 123 tgl 15 0 empty empty empty 17 7 0 10 -262144 -1 -1 0
1;
#X obj 162 174 spigot;
#X obj 200 122 tgl 15 0 empty empty empty 17 7 0 10 -262144 -1 -1 0
1;
#X obj 236 175 spigot;
#X obj 274 123 tgl 15 0 empty empty empty 17 7 0 10 -262144 -1 -1 1
1;
#X obj 309 142 spigot;
#X obj 344 122 tgl 15 0 empty empty empty 17 7 0 10 -262144 -1 -1 1
1;
#X obj 374 141 spigot;
#X obj 409 121 tgl 15 0 empty empty empty 17 7 0 10 -262144 -1 -1 1
1;
#X obj 133 97 spigot;
#X obj 168 77 tgl 15 0 empty empty empty 17 7 0 10 -262144 -1 -1 1
1;
#X obj 198 97 spigot;
#X obj 233 77 tgl 15 0 empty empty empty 17 7 0 10 -262144 -1 -1 1
1;
#X obj 265 96 spigot;
#X obj 300 76 tgl 15 0 empty empty empty 17 7 0 10 -262144 -1 -1 1
1;
#X obj 339 97 spigot;
#X obj 374 77 tgl 15 0 empty empty empty 17 7 0 10 -262144 -1 -1 0
1;
#X obj 409 96 spigot;
#X obj 444 76 tgl 15 0 empty empty empty 17 7 0 10 -262144 -1 -1 0
1;
#X obj 474 95 spigot;
#X obj 509 75 tgl 15 0 empty empty empty 17 7 0 10 -262144 -1 -1 0
1;
#X obj 184 -19 nbx 5 14 -1e+37 1e+37 0 0 empty empty empty 0 -8 0 10
-262144 -1 -1 36.4078 256;
#X obj 135 2 metro 50;
#X obj 135 -47 init 1;
#X obj 232 48 init 1;
#X obj 90 -35 inlet;
#X obj 160 146 + 20;
#X obj 98 114 + 20;
#N canvas 0 22 773 297 randomizerTrigaaaaaaaaa 0;
#X obj 182 84 random 2;
#X obj 182 151 outlet;
#X obj 239 152 outlet;
#X obj 296 86 random 2;
#X obj 296 153 outlet;
#X obj 355 154 outlet;
#X obj 411 87 random 2;
#X obj 411 154 outlet;
#X obj 468 155 outlet;
#X obj 525 89 random 2;
#X obj 525 156 outlet;
#X obj 584 157 outlet;
#X obj -47 81 random 2;
#X obj -47 148 outlet;
#X obj 10 149 outlet;
#X obj 67 83 random 2;
#X obj 67 150 outlet;
#X obj 126 151 outlet;
#X obj 145 -8 tgl 15 0 empty empty empty 17 7 0 10 -262144 -1 -1 1
1;
#X obj 145 -37 init 1;
#X obj 100 -25 inlet;
#X obj 9 122 != 1;
#X obj 125 125 != 1;
#X obj 239 127 != 1;
#X obj 355 128 != 1;
#X obj 468 128 != 1;
#X obj 584 129 != 1;
#X obj 145 12 metro 500;
#X obj 196 -13 r BPM_noire;
#X connect 0 0 1 0;
#X connect 0 0 23 0;
#X connect 3 0 4 0;
#X connect 3 0 24 0;
#X connect 6 0 7 0;
#X connect 6 0 25 0;
#X connect 9 0 10 0;
#X connect 9 0 26 0;
#X connect 12 0 13 0;
#X connect 12 0 21 0;
#X connect 15 0 16 0;
#X connect 15 0 22 0;
#X connect 18 0 27 0;
#X connect 19 0 18 0;
#X connect 20 0 18 0;
#X connect 21 0 14 0;
#X connect 22 0 17 0;
#X connect 23 0 2 0;
#X connect 24 0 5 0;
#X connect 25 0 8 0;
#X connect 26 0 11 0;
#X connect 27 0 12 0;
#X connect 27 0 15 0;
#X connect 27 0 0 0;
#X connect 27 0 3 0;
#X connect 27 0 6 0;
#X connect 27 0 9 0;
#X connect 28 0 27 1;
#X restore 334 45 pd randomizerTrigaaaaaaaaa;
#X obj 212 -44 r BPM_8croche;
#X connect 6 0 7 0;
#X connect 6 0 8 0;
#X connect 7 0 6 1;
#X connect 8 0 11 0;
#X connect 8 0 13 0;
#X connect 8 0 14 0;
#X connect 8 0 18 0;
#X connect 8 0 20 0;
#X connect 8 0 22 0;
#X connect 8 0 41 0;
#X connect 9 0 37 0;
#X connect 10 0 6 0;
#X connect 11 0 0 0;
#X connect 12 0 11 1;
#X connect 13 0 24 0;
#X connect 13 0 26 0;
#X connect 13 0 28 0;
#X connect 13 0 30 0;
#X connect 13 0 32 0;
#X connect 13 0 34 0;
#X connect 13 0 42 0;
#X connect 14 0 1 0;
#X connect 15 0 14 1;
#X connect 16 0 2 0;
#X connect 17 0 16 1;
#X connect 18 0 3 0;
#X connect 19 0 18 1;
#X connect 20 0 4 0;
#X connect 21 0 20 1;
#X connect 22 0 5 0;
#X connect 23 0 22 1;
#X connect 25 0 24 1;
#X connect 26 0 1 0;
#X connect 27 0 26 1;
#X connect 28 0 2 0;
#X connect 29 0 28 1;
#X connect 30 0 3 0;
#X connect 31 0 30 1;
#X connect 32 0 4 0;
#X connect 33 0 32 1;
#X connect 34 0 5 0;
#X connect 35 0 34 1;
#X connect 36 0 37 1;
#X connect 37 0 6 0;
#X connect 38 0 9 0;
#X connect 39 0 27 0;
#X connect 39 0 19 0;
#X connect 39 0 29 0;
#X connect 39 0 23 0;
#X connect 39 0 12 0;
#X connect 40 0 9 0;
#X connect 41 0 16 0;
#X connect 42 0 0 0;
#X connect 43 0 12 0;
#X connect 43 1 25 0;
#X connect 43 2 15 0;
#X connect 43 3 27 0;
#X connect 43 4 17 0;
#X connect 43 5 29 0;
#X connect 43 6 19 0;
#X connect 43 7 31 0;
#X connect 43 8 21 0;
#X connect 43 9 33 0;
#X connect 43 10 23 0;
#X connect 43 11 35 0;
#X connect 44 0 36 0;
#X restore 593 -6 pd RGBtripp;
#X obj -28 217 pix_contrast;
#X obj 7 195 nbx 2 14 -1e+37 1e+37 0 0 empty empty empty 0 -8 0 10
-262130 -1 -1 0.95 256;
#X obj 42 195 nbx 2 14 -1e+37 1e+37 0 0 empty empty empty 0 -8 0 10
-262130 -1 -1 1.11 256;
#N canvas 240 40 816 340 BPM 0;
#X obj -44 235 seq.tgl8_;
#X obj -44 142 timing.tempo_ 120 1 8;
#N canvas 531 56 450 300 convertt 0;
#X obj 140 62 inlet;
#X obj 140 122 /;
#X obj 140 148 * 60;
#X msg 140 99 1000 \$1;
#X obj 139 201 outlet;
#X connect 0 0 3 0;
#X connect 1 0 2 0;
#X connect 2 0 4 0;
#X connect 3 0 1 0;
#X restore 292 131 pd convertt;
#X obj 10 112 nbx 5 14 -1e+37 1e+37 0 0 empty empty empty 0 -8 0 10
-262144 -1 -1 103 256;
#X obj 274 206 f;
#X obj 274 187 bng 15 250 50 0 empty empty empty 17 7 0 10 -262144
-1 -1;
#X obj 12 202 s trig;
#X obj -73 123 tgl 15 0 empty empty empty 17 7 0 10 -262144 -1 -1 1
1;
#X obj 10 88 r BPM;
#X obj 184 287 s BPM_noire;
#X obj 274 232 nbx 5 14 -1e+37 1e+37 0 0 empty empty empty 0 -8 0 10
-262144 -1 -1 582.524 256;
#X obj 261 288 s BPM_croche;
#X obj 343 289 s BPM_2croche;
#X obj 432 290 s BPM_4croche;
#X obj 520 291 s BPM_8croche;
#X obj 261 267 / 2;
#X obj 343 266 / 4;
#X obj 432 268 / 8;
#X obj 520 268 / 16;
#X obj 465 195 s BPMtime;
#X obj 465 138 loadbang;
#X msg 465 169 1000;
#X obj -39 93 init 1;
#X obj 98 284 s BPM_blanche;
#X obj 144 254 * 8;
#X connect 1 0 0 0;
#X connect 1 0 5 0;
#X connect 1 0 6 0;
#X connect 2 0 4 1;
#X connect 3 0 2 0;
#X connect 3 0 1 1;
#X connect 4 0 10 0;
#X connect 5 0 4 0;
#X connect 7 0 1 0;
#X connect 8 0 3 0;
#X connect 10 0 9 0;
#X connect 10 0 15 0;
#X connect 10 0 16 0;
#X connect 10 0 17 0;
#X connect 10 0 18 0;
#X connect 10 0 24 0;
#X connect 15 0 11 0;
#X connect 16 0 12 0;
#X connect 17 0 13 0;
#X connect 18 0 14 0;
#X connect 20 0 21 0;
#X connect 21 0 19 0;
#X connect 22 0 7 0;
#X connect 24 0 23 0;
#X restore 553 58 pd BPM;
#X obj 494 83 spigot;
#X obj 529 64 tgl 15 0 empty nega empty 17 7 0 10 -262144 -1 -1 1 1
;
#X obj 433 75 * -1;
#X obj 437 112 spigot;
#X obj 472 93 tgl 15 0 empty empty empty 17 7 0 10 -262144 -1 -1 0
1;
#X obj 560 96 != 1;
#X obj -29 236 rotateXYZ 0 180 0;
#X obj 595 -28 tgl 15 0 empty move empty 17 7 0 10 -262144 -1 -1 1
1;
#N canvas 949 676 304 104 FRONT 1;
#X obj 3 3 tgl 51 0 Start empty Start 1 25 0 16 -261234 -4034 -1 0
1;
#X obj 5 62 hradio 15 1 0 12 distanz empty empty 0 -8 0 10 -4032 -1
-1 3;
#X obj 70 2 tgl 51 0 nega empty Square 2 25 0 14 -262130 -4034 -1 1
1;
#X obj 132 2 tgl 51 0 move empty Move 9 25 0 14 -204786 -4034 -1 1
1;
#X obj 191 26 nbx 3 51 -1e+37 1e+37 0 0 BPM empty BPM 0 -14 0 24 -204800
-1 -159808 103 256;
#X restore 603 59 pd FRONT;
#X obj 82 166 init 1;
#X connect 0 0 17 0;
#X connect 1 0 10 0;
#X connect 2 0 10 0;
#X connect 3 0 1 0;
#X connect 4 0 2 0;
#X connect 5 0 18 0;
#X connect 6 0 18 1;
#X connect 7 0 32 0;
#X connect 8 0 19 0;
#X connect 9 0 19 1;
#X connect 10 0 24 0;
#X connect 11 0 36 0;
#X connect 11 0 38 0;
#X connect 12 0 17 1;
#X connect 13 0 12 0;
#X connect 14 0 20 0;
#X connect 15 0 20 1;
#X connect 17 0 7 0;
#X connect 18 0 17 1;
#X connect 19 0 17 1;
#X connect 20 0 17 1;
#X connect 21 0 11 0;
#X connect 22 0 21 0;
#X connect 23 0 21 1;
#X connect 25 0 5 0;
#X connect 26 0 6 0;
#X connect 27 0 8 0;
#X connect 28 0 9 0;
#X connect 29 0 14 0;
#X connect 30 0 15 0;
#X connect 32 0 42 0;
#X connect 33 0 32 1;
#X connect 34 0 32 2;
#X connect 36 0 13 0;
#X connect 37 0 36 1;
#X connect 37 0 41 0;
#X connect 38 0 39 0;
#X connect 39 0 13 0;
#X connect 40 0 39 1;
#X connect 41 0 40 0;
#X connect 42 0 10 0;
#X connect 43 0 31 0;
#X connect 45 0 34 0;
#X connect 45 0 33 0;
