#N canvas 592 133 669 390 10;
#X obj 103 45 gemhead;
#X msg 235 174 mode \$1;
#X msg 232 221 quality 1;
#X obj 234 153 tgl 15 0 empty empty empty 17 7 0 10 -262144 -1 -1 1
1;
#X obj 233 197 loadbang;
#X floatatom 177 -1 5 0 0 0 - - -;
#X floatatom 221 -1 5 0 0 0 - - -;
#X obj 103 171 pix_video;
#X floatatom 305 11 5 0 0 0 - - -;
#X floatatom 419 16 5 0 0 0 - - -;
#X obj 105 204 pix_texture;
#X floatatom 349 132 5 0 0 0 - - -;
#X obj 108 235 rectangle 4 4;
#X msg 350 173 dotdistance \$1;
#X obj 350 152 * 0.1;
#X floatatom 467 17 5 0 0 0 - - -;
#X floatatom 573 15 5 0 0 0 - - -;
#X obj 2 -6 a_gemwin;
#X obj 103 102 a_shad led;
#N canvas 0 22 450 300 a_var4 0;
#X obj 50 1 inlet;
#X obj 100 1 inlet;
#X obj 50 50 * 0.1;
#X obj 100 50 * 0.1;
#X obj 50 100 t b a;
#X obj 100 100 t b a;
#X obj 100 150 symbol offset_blue;
#X obj 100 200 pack s 0 0 0 0 0 0 0;
#X obj 100 250 a_modVar;
#X obj 100 300 outlet;
#X connect 0 0 2 0;
#X connect 1 0 3 0;
#X connect 2 0 4 0;
#X connect 3 0 5 0;
#X connect 4 0 6 0;
#X connect 4 1 7 1;
#X connect 5 0 6 0;
#X connect 5 1 7 2;
#X connect 6 0 7 0;
#X connect 7 0 8 0;
#X connect 8 0 9 0;
#X restore 167 37 pd a_var4 offset_blue;
#N canvas 0 22 450 300 a_var5 0;
#X obj 50 1 inlet;
#X obj 100 1 inlet;
#X obj 50 50 * 0.1;
#X obj 100 50 * 0.1;
#X obj 50 100 t b a;
#X obj 100 100 t b a;
#X obj 100 150 symbol offset_red;
#X obj 100 200 pack s 0 0 0 0 0 0 0;
#X obj 100 250 a_modVar;
#X obj 100 300 outlet;
#X connect 0 0 2 0;
#X connect 1 0 3 0;
#X connect 2 0 4 0;
#X connect 3 0 5 0;
#X connect 4 0 6 0;
#X connect 4 1 7 1;
#X connect 5 0 6 0;
#X connect 5 1 7 2;
#X connect 6 0 7 0;
#X connect 7 0 8 0;
#X connect 8 0 9 0;
#X restore 304 35 pd a_var5 offset_red;
#N canvas 0 22 450 300 a_var6 0;
#X obj 50 1 inlet;
#X obj 100 1 inlet;
#X obj 50 50 * 0.1;
#X obj 100 50 * 0.1;
#X obj 50 100 t b a;
#X obj 100 100 t b a;
#X obj 100 150 symbol offset_green;
#X obj 100 200 pack s 0 0 0 0 0 0 0;
#X obj 100 250 a_modVar;
#X obj 100 300 outlet;
#X connect 0 0 2 0;
#X connect 1 0 3 0;
#X connect 2 0 4 0;
#X connect 3 0 5 0;
#X connect 4 0 6 0;
#X connect 4 1 7 1;
#X connect 5 0 6 0;
#X connect 5 1 7 2;
#X connect 6 0 7 0;
#X connect 7 0 8 0;
#X connect 8 0 9 0;
#X restore 465 37 pd a_var6 offset_green;
#N canvas 106 56 1174 402 dotDist_presets 0;
#X obj -48 170 line;
#X obj -48 191 outlet;
#X obj -54 -113 inlet;
#X msg 2 25 1;
#X obj -110 50 inlet;
#X msg -110 112 \$1;
#X obj -110 88 value;
#X obj -52 -55 t b b;
#X obj 4 -54 t b b;
#X obj 70 -53 t b b;
#X obj 132 -52 t b b;
#X obj 190 -50 t b b;
#X obj 243 -48 t b b;
#X obj 304 -47 t b b;
#X obj 366 -47 t b b;
#X obj 416 -44 t b b;
#X obj 474 -42 t b b;
#X obj 532 -39 t b b;
#X obj 577 -39 t b b;
#X obj 631 -39 t b b;
#X obj 679 -38 t b b;
#X obj 330 -95 sel 0 1 2 3 4 5 6 7 8 9 10 11 12 13;
#X msg -51 25 0.1;
#X msg 70 28 8;
#X msg 126 31 16;
#X msg 187 31 32;
#X msg 240 32 64;
#X msg 301 32 128;
#X msg 362 32 256;
#X msg 409 32 512;
#X msg 470 32 1024;
#X msg 531 32 2048;
#X msg 577 32 4096;
#X msg 629 35 8192;
#X msg 675 35 16384;
#X connect 0 0 1 0;
#X connect 2 0 21 0;
#X connect 3 0 0 0;
#X connect 4 0 6 0;
#X connect 5 0 0 1;
#X connect 6 0 5 0;
#X connect 7 0 22 0;
#X connect 7 1 6 0;
#X connect 8 0 3 0;
#X connect 8 1 6 0;
#X connect 9 0 23 0;
#X connect 9 1 6 0;
#X connect 10 0 24 0;
#X connect 10 1 6 0;
#X connect 11 0 25 0;
#X connect 11 1 6 0;
#X connect 12 0 26 0;
#X connect 12 1 6 0;
#X connect 13 0 27 0;
#X connect 13 1 6 0;
#X connect 14 0 28 0;
#X connect 14 1 6 0;
#X connect 15 0 29 0;
#X connect 15 1 6 0;
#X connect 16 0 30 0;
#X connect 16 1 6 0;
#X connect 17 0 31 0;
#X connect 17 1 6 0;
#X connect 18 0 32 0;
#X connect 18 1 6 0;
#X connect 19 0 33 0;
#X connect 19 1 6 0;
#X connect 20 0 34 0;
#X connect 20 1 6 0;
#X connect 21 0 7 0;
#X connect 21 1 8 0;
#X connect 21 2 9 0;
#X connect 21 3 10 0;
#X connect 21 4 11 0;
#X connect 21 5 12 0;
#X connect 21 6 13 0;
#X connect 21 7 14 0;
#X connect 21 8 15 0;
#X connect 21 9 16 0;
#X connect 21 10 17 0;
#X connect 21 11 18 0;
#X connect 21 12 19 0;
#X connect 21 13 20 0;
#X connect 22 0 0 0;
#X connect 23 0 0 0;
#X connect 24 0 0 0;
#X connect 25 0 0 0;
#X connect 26 0 0 0;
#X connect 27 0 0 0;
#X connect 28 0 0 0;
#X connect 29 0 0 0;
#X connect 30 0 0 0;
#X connect 31 0 0 0;
#X connect 32 0 0 0;
#X connect 33 0 0 0;
#X connect 34 0 0 0;
#X restore 349 109 pd dotDist_presets;
#X obj 486 93 vsl 15 51 500 6000 0 0 empty empty empty 0 -9 0 10 -262144
-1 -1 4800 1;
#X obj 349 68 hradio 15 1 0 12 empty empty empty 0 -8 0 10 -262144
-1 -1 2;
#X obj 372 95 nbx 5 14 -1e+37 1e+37 0 0 empty empty empty 0 -8 0 10
-262144 -1 -1 2 256;
#X connect 0 0 18 0;
#X connect 1 0 10 0;
#X connect 2 0 10 0;
#X connect 3 0 1 0;
#X connect 4 0 2 0;
#X connect 5 0 19 0;
#X connect 6 0 19 1;
#X connect 7 0 10 0;
#X connect 8 0 20 0;
#X connect 9 0 20 1;
#X connect 10 0 12 0;
#X connect 11 0 14 0;
#X connect 13 0 18 1;
#X connect 14 0 13 0;
#X connect 15 0 21 0;
#X connect 16 0 21 1;
#X connect 18 0 7 0;
#X connect 19 0 18 1;
#X connect 20 0 18 1;
#X connect 21 0 18 1;
#X connect 22 0 11 0;
#X connect 24 0 22 1;
#X connect 24 0 25 0;
