#N canvas 515 350 596 354 10;
#X obj 27 18 gemhead;
#X obj 27 234 rotateXYZ;
#X floatatom 57 199 5 0 0 0 - - -;
#X floatatom 101 199 5 0 0 0 - - -;
#X floatatom 143 199 5 0 0 0 - - -;
#X msg 218 246 mode \$1;
#X msg 283 246 quality 1;
#X obj 217 225 tgl 15 0 empty empty empty 17 7 0 10 -262144 -1 -1 0
1;
#X obj 284 222 loadbang;
#X floatatom 254 141 5 0 0 0 - - -;
#X floatatom 363 142 5 0 0 0 - - -;
#X obj 26 291 cube 1;
#X obj 26 263 pix_texture;
#X obj -85 -10 a_gemwin;
#X obj 27 178 a_shad vertexNoise;
#X floatatom 55 81 5 0 0 0 - - -;
#X floatatom 88 80 5 0 0 0 - - -;
#X floatatom 120 79 5 0 0 0 - - -;
#X floatatom 300 75 5 0 0 0 - - -;
#X floatatom 334 75 5 0 0 0 - - -;
#X floatatom 368 76 5 0 0 0 - - -;
#X floatatom 159 84 5 0 0 0 - - -;
#X floatatom 193 84 5 0 0 0 - - -;
#X floatatom 226 84 5 0 0 0 - - -;
#N canvas 0 22 450 300 a_var2 0;
#X obj 50 1 inlet;
#X obj 100 1 inlet;
#X obj 150 1 inlet;
#X obj 50 50 * 0.1;
#X obj 100 50 * 0.1;
#X obj 150 50 * 0.1;
#X obj 50 100 t b a;
#X obj 100 100 t b a;
#X obj 150 100 t b a;
#X obj 100 150 symbol LightPosition;
#X obj 100 200 pack s 0 0 0 0 0 0 0;
#X obj 100 250 a_modVar;
#X obj 100 300 outlet;
#X connect 0 0 3 0;
#X connect 1 0 4 0;
#X connect 2 0 5 0;
#X connect 3 0 6 0;
#X connect 4 0 7 0;
#X connect 5 0 8 0;
#X connect 6 0 9 0;
#X connect 6 1 10 1;
#X connect 7 0 9 0;
#X connect 7 1 10 2;
#X connect 8 0 9 0;
#X connect 8 1 10 3;
#X connect 9 0 10 0;
#X connect 10 0 11 0;
#X connect 11 0 12 0;
#X restore 152 106 pd a_var2 LightPosition;
#N canvas 0 22 450 300 a_var3 0;
#X obj 50 1 inlet;
#X obj 100 1 inlet;
#X obj 150 1 inlet;
#X obj 50 50 * 0.1;
#X obj 100 50 * 0.1;
#X obj 150 50 * 0.1;
#X obj 50 100 t b a;
#X obj 100 100 t b a;
#X obj 150 100 t b a;
#X obj 100 150 symbol SurfaceColor;
#X obj 100 200 pack s 0 0 0 0 0 0 0;
#X obj 100 250 a_modVar;
#X obj 100 300 outlet;
#X connect 0 0 3 0;
#X connect 1 0 4 0;
#X connect 2 0 5 0;
#X connect 3 0 6 0;
#X connect 4 0 7 0;
#X connect 5 0 8 0;
#X connect 6 0 9 0;
#X connect 6 1 10 1;
#X connect 7 0 9 0;
#X connect 7 1 10 2;
#X connect 8 0 9 0;
#X connect 8 1 10 3;
#X connect 9 0 10 0;
#X connect 10 0 11 0;
#X connect 11 0 12 0;
#X restore 300 107 pd a_var3 SurfaceColor;
#N canvas 0 22 450 300 a_var4 0;
#X obj 50 1 inlet;
#X obj 100 1 inlet;
#X obj 150 1 inlet;
#X obj 50 100 t b a;
#X obj 100 100 t b a;
#X obj 150 100 t b a;
#X obj 100 150 symbol Offset;
#X obj 100 200 pack s 0 0 0 0 0 0 0;
#X obj 100 250 a_modVar;
#X obj 100 300 outlet;
#X obj 50 48 * 0.01;
#X obj 100 50 * 0.01;
#X obj 150 50 * 0.01;
#X connect 0 0 10 0;
#X connect 1 0 11 0;
#X connect 2 0 12 0;
#X connect 3 0 6 0;
#X connect 3 1 7 1;
#X connect 4 0 6 0;
#X connect 4 1 7 2;
#X connect 5 0 6 0;
#X connect 5 1 7 3;
#X connect 6 0 7 0;
#X connect 7 0 8 0;
#X connect 8 0 9 0;
#X connect 10 0 3 0;
#X connect 11 0 4 0;
#X connect 12 0 5 0;
#X restore 47 108 pd a_var4 Offset;
#N canvas 0 22 450 300 a_var6 0;
#X obj 50 1 inlet;
#X obj 50 100 t b a;
#X obj 100 150 symbol ScaleIn;
#X obj 100 200 pack s 0 0 0 0 0 0 0;
#X obj 100 250 a_modVar;
#X obj 100 300 outlet;
#X obj 50 50 * 0.01;
#X connect 0 0 6 0;
#X connect 1 0 2 0;
#X connect 1 1 3 1;
#X connect 2 0 3 0;
#X connect 3 0 4 0;
#X connect 4 0 5 0;
#X connect 6 0 1 0;
#X restore 254 161 pd a_var6 ScaleIn;
#N canvas 0 22 450 300 a_var7 0;
#X obj 50 1 inlet;
#X obj 50 100 t b a;
#X obj 100 150 symbol ScaleOut;
#X obj 100 200 pack s 0 0 0 0 0 0 0;
#X obj 100 250 a_modVar;
#X obj 100 300 outlet;
#X obj 50 50 * 0.01;
#X connect 0 0 6 0;
#X connect 1 0 2 0;
#X connect 1 1 3 1;
#X connect 2 0 3 0;
#X connect 3 0 4 0;
#X connect 4 0 5 0;
#X connect 6 0 1 0;
#X restore 364 161 pd a_var7 ScaleOut;
#X connect 0 0 14 0;
#X connect 1 0 12 0;
#X connect 2 0 1 1;
#X connect 3 0 1 2;
#X connect 4 0 1 3;
#X connect 5 0 12 0;
#X connect 6 0 12 0;
#X connect 7 0 5 0;
#X connect 8 0 6 0;
#X connect 9 0 27 0;
#X connect 10 0 28 0;
#X connect 12 0 11 0;
#X connect 14 0 1 0;
#X connect 15 0 26 0;
#X connect 16 0 26 1;
#X connect 17 0 26 2;
#X connect 18 0 25 0;
#X connect 19 0 25 1;
#X connect 20 0 25 2;
#X connect 21 0 24 0;
#X connect 22 0 24 1;
#X connect 23 0 24 2;
#X connect 24 0 14 1;
#X connect 25 0 14 1;
#X connect 26 0 14 1;
#X connect 27 0 14 1;
#X connect 28 0 14 1;
