#N canvas 629 197 638 578 10;
#X obj 56 83 gemhead;
#X obj 56 177 rotateXYZ;
#X floatatom 73 153 5 0 0 0 - - -;
#X floatatom 117 153 5 0 0 0 - - -;
#X floatatom 159 153 5 0 0 0 - - -;
#X msg 227 237 mode \$1;
#X msg 227 280 quality 1;
#X obj 227 219 tgl 15 0 empty empty empty 17 7 0 10 -262144 -1 -1 0
1;
#X obj 225 260 loadbang;
#X obj 44 303 teapot;
#X obj 112 297 pix_texture;
#X obj 114 424 textextruded h;
#X floatatom 250 402 5 0 100 1 size - -;
#X msg 251 375 depth \$1;
#X floatatom 251 356 5 0 0 1 depth - -;
#X obj 350 367 separator;
#X obj 113 371 separator;
#X obj 349 426 textextruded O;
#X obj 5 -14 a_gemwin;
#X obj 56 126 a_shad sphereMorph;
#X floatatom 157 44 5 0 0 0 - - -;
#X floatatom 210 43 5 0 0 0 - - -;
#X floatatom 255 45 5 0 0 0 - - -;
#X obj 349 391 translateXYZ 2 0 0;
#X obj 114 400 translateXYZ -2 0 0;
#N canvas 0 22 450 300 a_var2 0;
#X obj 50 1 inlet;
#X obj 100 1 inlet;
#X obj 150 1 inlet;
#X obj 50 50 * 0.1;
#X obj 100 50 * 0.1;
#X obj 150 50 * 0.1;
#X obj 50 100 t b a;
#X obj 100 100 t b a;
#X obj 150 100 t b a;
#X obj 100 150 symbol SurfaceColor;
#X obj 100 200 pack s 0 0 0 0 0 0 0;
#X obj 100 250 a_modVar;
#X obj 100 300 outlet;
#X connect 0 0 3 0;
#X connect 1 0 4 0;
#X connect 2 0 5 0;
#X connect 3 0 6 0;
#X connect 4 0 7 0;
#X connect 5 0 8 0;
#X connect 6 0 9 0;
#X connect 6 1 10 1;
#X connect 7 0 9 0;
#X connect 7 1 10 2;
#X connect 8 0 9 0;
#X connect 8 1 10 3;
#X connect 9 0 10 0;
#X connect 10 0 11 0;
#X connect 11 0 12 0;
#X restore 154 63 pd a_var2 SurfaceColor;
#N canvas 0 22 450 300 a_var4 0;
#X obj 50 1 inlet;
#X obj 50 100 t b a;
#X obj 100 150 symbol Radius;
#X obj 100 200 pack s 0 0 0 0 0 0 0;
#X obj 100 250 a_modVar;
#X obj 100 300 outlet;
#X obj 50 50 * 0.01;
#X connect 0 0 6 0;
#X connect 1 0 2 0;
#X connect 1 1 3 1;
#X connect 2 0 3 0;
#X connect 3 0 4 0;
#X connect 4 0 5 0;
#X connect 6 0 1 0;
#X restore 393 63 pd a_var4 Radius;
#X floatatom 393 45 5 0 0 0 - - -;
#N canvas 0 22 450 300 a_var5 0;
#X obj 50 1 inlet;
#X obj 50 100 t b a;
#X obj 100 150 symbol Blend;
#X obj 100 200 pack s 0 0 0 0 0 0 0;
#X obj 100 250 a_modVar;
#X obj 100 300 outlet;
#X obj 50 50 * 0.01;
#X connect 0 0 6 0;
#X connect 1 0 2 0;
#X connect 1 1 3 1;
#X connect 2 0 3 0;
#X connect 3 0 4 0;
#X connect 4 0 5 0;
#X connect 6 0 1 0;
#X restore 295 63 pd a_var5 Blend;
#X floatatom 295 44 5 0 0 0 - - -;
#X connect 0 0 19 0;
#X connect 1 0 9 0;
#X connect 1 0 10 0;
#X connect 2 0 1 1;
#X connect 3 0 1 2;
#X connect 4 0 1 3;
#X connect 5 0 10 0;
#X connect 6 0 10 0;
#X connect 7 0 5 0;
#X connect 8 0 6 0;
#X connect 10 0 16 0;
#X connect 10 0 15 0;
#X connect 12 0 11 1;
#X connect 12 0 17 1;
#X connect 13 0 11 0;
#X connect 13 0 17 0;
#X connect 14 0 13 0;
#X connect 15 0 23 0;
#X connect 16 0 24 0;
#X connect 19 0 1 0;
#X connect 20 0 25 0;
#X connect 21 0 25 1;
#X connect 22 0 25 2;
#X connect 23 0 17 0;
#X connect 24 0 11 0;
#X connect 25 0 19 1;
#X connect 26 0 19 1;
#X connect 27 0 26 0;
#X connect 28 0 19 1;
#X connect 29 0 28 0;
