#N canvas 237 264 458 399 10;
#X obj 156 335 gemwin;
#X obj 105 177 sel 0 1;
#X msg 105 215 destroy;
#X obj 162 258 t a a;
#X obj 214 255 route destroy create;
#X msg 217 306 13;
#X obj 212 286 t b b;
#X msg 243 306 13;
#X obj 287 286 t b b;
#X msg 318 306 0;
#X msg 292 306 0;
#X msg 219 350 color \$1 \$2 \$3;
#X obj 105 125 tgl 15 0 empty Start destroy 17 7 0 10 -262144 -262144
-33289 0 1;
#X msg 230 375 label destroy;
#X msg 321 372 label created;
#X obj 219 329 pack f 0 12;
#X obj 43 198 loadbang;
#X text 101 77 created by philippe boisnard - 2011;
#X msg 162 213 dimen 1180 720 \, FSAA 4 \, frame 30 \, create \, 1
;
#X connect 1 0 2 0;
#X connect 1 1 18 0;
#X connect 2 0 3 0;
#X connect 3 0 0 0;
#X connect 3 1 4 0;
#X connect 4 0 8 0;
#X connect 4 0 13 0;
#X connect 4 1 6 0;
#X connect 4 1 14 0;
#X connect 5 0 15 0;
#X connect 6 0 5 0;
#X connect 6 1 7 0;
#X connect 7 0 15 1;
#X connect 8 0 10 0;
#X connect 8 1 9 0;
#X connect 9 0 15 1;
#X connect 10 0 15 0;
#X connect 11 0 12 0;
#X connect 12 0 1 0;
#X connect 13 0 12 0;
#X connect 14 0 12 0;
#X connect 15 0 11 0;
#X connect 16 0 2 0;
#X connect 18 0 3 0;
#X coords 0 -1 1 1 75 45 1 100 100;
