#N canvas 594 22 593 338 10;
#X obj 75 33 pix_video;
#X obj 409 -31 gemwin;
#X msg 394 -60 create \, 1;
#X msg 481 -63 destroy;
#X obj 75 64 pix_texture;
#X obj 73 -38 gemhead;
#X msg 20 36 mode 0;
#X obj 74 -3 glsl_blur;
#X floatatom 145 -42 5 0 0 0 - - -;
#X obj 75 93 rectangle 6 4;
#X msg 468 113 reset \, dimen 800 600;
#X obj 72 -58 tgl 15 0 empty empty empty 17 7 0 10 -262144 -1 -1 0
1;
#X connect 0 0 4 0;
#X connect 2 0 1 0;
#X connect 3 0 1 0;
#X connect 4 0 9 0;
#X connect 5 0 7 0;
#X connect 6 0 4 0;
#X connect 7 0 0 0;
#X connect 8 0 7 1;
#X connect 10 0 1 0;
#X connect 11 0 5 0;
