#N canvas 451 170 853 695 10;
#X obj 77 29 gemhead;
#X obj 166 296 pack 0 0;
#X obj 194 253 t b f;
#X obj 176 227 change;
#X obj 159 111 change;
#X floatatom 173 258 2 0 0 0 ID - -;
#X floatatom 158 131 2 0 0 0 ID - -;
#X obj 177 339 print linking;
#X obj 73 433 rotateXYZ;
#X floatatom 106 399 5 0 0 0 - - -;
#X floatatom 150 399 5 0 0 0 - - -;
#X floatatom 192 399 5 0 0 0 - - -;
#X obj 152 37 bng 15 250 50 0 empty empty empty 0 -6 0 8 -262144 -1
-1;
#X obj 76 100 glsl_vertex;
#X text 225 469 <- load texture;
#X msg 113 470 open img2.jpg;
#X obj 209 129 s mode;
#X obj 302 77 bng 15 250 50 0 empty empty empty 0 -6 0 8 -262144 -1
-1;
#X text 334 75 <-load an other shader;
#X text 338 89 (using rectangular texturing);
#X obj 302 139 s mode;
#X msg 302 118 1;
#X text 184 35 <- load shader;
#N canvas 87 154 247 179 Gem.init 0;
#X obj 118 46 loadbang;
#X msg 118 81 reset;
#X obj 118 113 outlet;
#X connect 0 0 1 0;
#X connect 1 0 2 0;
#X restore 694 134 pd Gem.init;
#N canvas 340 107 682 322 gemwin 0;
#X obj 102 122 tgl 15 0 \$0-gemstart \$0-gemstart empty 17 7 0 10 -262144
-1 -1 1 1;
#X obj 102 161 r \$0-gemstart;
#X obj 102 182 select 1 0;
#X msg 177 215 destroy;
#X obj 102 239 t a;
#X obj 318 54 inlet;
#X obj 318 255 gemwin;
#X obj 318 100 t a a;
#X obj 318 287 outlet;
#X obj 350 128 route create destroy;
#X obj 350 150 t b;
#X msg 350 172 1;
#X obj 390 150 t b;
#X msg 390 172 0;
#X obj 350 195 t f;
#X msg 350 219 set \$1;
#X text 118 122 rendering;
#X msg 63 214 FSAA 4 \, create \, 1;
#X connect 1 0 2 0;
#X connect 2 0 17 0;
#X connect 2 1 3 0;
#X connect 3 0 4 0;
#X connect 4 0 7 0;
#X connect 5 0 7 0;
#X connect 6 0 8 0;
#X connect 7 0 6 0;
#X connect 7 1 9 0;
#X connect 9 0 10 0;
#X connect 9 1 12 0;
#X connect 10 0 11 0;
#X connect 11 0 14 0;
#X connect 12 0 13 0;
#X connect 13 0 14 0;
#X connect 14 0 15 0;
#X connect 15 0 0 0;
#X connect 17 0 4 0;
#X coords 0 -1 1 1 85 40 1 100 100;
#X restore 664 151 pd gemwin;
#X obj 85 381 glsl_program;
#X msg 664 104 color 0 0 0;
#X obj 86 207 glsl_fragment;
#X msg 159 318 link \$1 \$2;
#X floatatom 352 318 5 0 0 0 - - -;
#X obj 87 533 pix_texture;
#X obj 86 499 pix_video;
#X obj 97 573 rectangle 4 4;
#X msg 252 567 mode \$1;
#X obj 260 513 r mode;
#X msg 338 553 quality 1;
#X obj 248 541 tgl 15 0 empty empty empty 17 7 0 10 -262144 -1 -1 1
1;
#X msg 355 375 width \$1;
#X obj 356 353 * 0.1;
#X msg 209 108 1;
#X msg 100 65 open sobel.vert;
#X msg 96 157 open sobel.frag;
#X obj 339 529 loadbang;
#X connect 0 0 13 0;
#X connect 1 0 28 0;
#X connect 2 0 1 0;
#X connect 2 1 1 1;
#X connect 3 0 5 0;
#X connect 4 0 6 0;
#X connect 5 0 1 0;
#X connect 6 0 2 0;
#X connect 8 0 31 0;
#X connect 9 0 8 1;
#X connect 10 0 8 2;
#X connect 11 0 8 3;
#X connect 12 0 40 0;
#X connect 12 0 41 0;
#X connect 12 0 39 0;
#X connect 13 0 27 0;
#X connect 13 1 4 0;
#X connect 15 0 31 0;
#X connect 17 0 40 0;
#X connect 17 0 21 0;
#X connect 21 0 20 0;
#X connect 23 0 24 0;
#X connect 25 0 8 0;
#X connect 26 0 24 0;
#X connect 27 0 25 0;
#X connect 27 1 3 0;
#X connect 28 0 7 0;
#X connect 28 0 25 0;
#X connect 29 0 38 0;
#X connect 30 0 32 0;
#X connect 31 0 30 0;
#X connect 33 0 30 0;
#X connect 34 0 36 0;
#X connect 35 0 30 0;
#X connect 36 0 33 0;
#X connect 37 0 25 0;
#X connect 38 0 37 0;
#X connect 39 0 16 0;
#X connect 40 0 13 0;
#X connect 41 0 27 0;
#X connect 42 0 35 0;
