#N canvas 704 61 571 315 10;
#X obj 68 41 gemhead;
#X msg 198 144 mode \$1;
#X msg 195 191 quality 1;
#X obj 197 123 tgl 15 0 empty empty empty 17 7 0 10 -262144 -1 -1 0
1;
#X obj 196 167 loadbang;
#X floatatom 262 84 5 0 0 0 - - -;
#X floatatom 298 84 5 0 0 0 - - -;
#X obj 68 207 pix_texture;
#X obj 68 228 rectangle 4 4;
#X floatatom 377 62 5 0 0 0 - - -;
#X floatatom 456 61 5 0 0 0 - - -;
#X msg 375 100 exposure \$1;
#X obj 68 145 pix_video;
#X msg 453 100 brightness \$1;
#X floatatom 333 83 5 0 0 0 - - -;
#X obj 376 81 * 0.1;
#X obj 455 81 * 0.1;
#X obj 4 -12 a_gemwin;
#X obj 68 117 a_shad blackandwhite;
#N canvas 0 22 450 300 a_var3 0;
#X obj 50 1 inlet;
#X obj 100 1 inlet;
#X obj 150 1 inlet;
#X obj 50 50 * 0.1;
#X obj 100 50 * 0.1;
#X obj 150 50 * 0.1;
#X obj 50 100 t b a;
#X obj 100 100 t b a;
#X obj 150 100 t b a;
#X obj 100 150 symbol lumacomponents;
#X obj 100 200 pack s 0 0 0 0 0 0 0;
#X obj 100 250 a_modVar;
#X obj 100 300 outlet;
#X connect 0 0 3 0;
#X connect 1 0 4 0;
#X connect 2 0 5 0;
#X connect 3 0 6 0;
#X connect 4 0 7 0;
#X connect 5 0 8 0;
#X connect 6 0 9 0;
#X connect 6 1 10 1;
#X connect 7 0 9 0;
#X connect 7 1 10 2;
#X connect 8 0 9 0;
#X connect 8 1 10 3;
#X connect 9 0 10 0;
#X connect 10 0 11 0;
#X connect 11 0 12 0;
#X restore 192 100 pd a_var3 lumacomponents;
#X connect 0 0 18 0;
#X connect 1 0 7 0;
#X connect 2 0 7 0;
#X connect 3 0 1 0;
#X connect 4 0 2 0;
#X connect 5 0 19 0;
#X connect 6 0 19 1;
#X connect 7 0 8 0;
#X connect 9 0 15 0;
#X connect 10 0 16 0;
#X connect 11 0 18 1;
#X connect 12 0 7 0;
#X connect 13 0 18 1;
#X connect 14 0 19 2;
#X connect 15 0 11 0;
#X connect 16 0 13 0;
#X connect 18 0 12 0;
#X connect 19 0 18 1;
