#N canvas 368 22 424 279 10;
#X obj 86 28 gemhead;
#X msg 246 106 mode \$1;
#X msg 243 153 quality 1;
#X obj 245 85 tgl 15 0 empty empty empty 17 7 0 10 -262144 -1 -1 0
1;
#X obj 244 129 loadbang;
#X obj 92 122 pix_video;
#X floatatom 225 1 5 0 0 0 - - -;
#X floatatom 269 1 5 0 0 0 - - -;
#X obj 89 163 pix_texture;
#X obj 92 194 rectangle 4 4;
#X floatatom 338 52 5 0 0 0 - - -;
#X msg 337 73 radius \$1;
#X obj 88 84 a_shad lighttunnel;
#X obj 4 -7 a_gemwin;
#N canvas 0 22 450 300 a_var2 0;
#X obj 50 1 inlet;
#X obj 100 1 inlet;
#X obj 50 100 t b a;
#X obj 100 100 t b a;
#X obj 100 150 symbol origin;
#X obj 100 200 pack s 0 0 0 0 0 0 0;
#X obj 100 250 a_modVar;
#X obj 100 300 outlet;
#X obj 100 50 * 1;
#X obj 50 50 * 1;
#X connect 0 0 9 0;
#X connect 1 0 8 0;
#X connect 2 0 4 0;
#X connect 2 1 5 1;
#X connect 3 0 4 0;
#X connect 3 1 5 2;
#X connect 4 0 5 0;
#X connect 5 0 6 0;
#X connect 6 0 7 0;
#X connect 8 0 3 0;
#X connect 9 0 2 0;
#X restore 195 62 pd a_var2 origin;
#X connect 0 0 12 0;
#X connect 1 0 8 0;
#X connect 2 0 8 0;
#X connect 3 0 1 0;
#X connect 4 0 2 0;
#X connect 5 0 8 0;
#X connect 6 0 14 0;
#X connect 7 0 14 1;
#X connect 8 0 9 0;
#X connect 10 0 11 0;
#X connect 11 0 12 1;
#X connect 12 0 5 0;
#X connect 14 0 12 1;
