#N canvas 547 56 443 328 10;
#X obj 86 28 gemhead;
#X msg 241 126 mode \$1;
#X msg 238 173 quality 1;
#X obj 240 105 tgl 15 0 empty empty empty 17 7 0 10 -262144 -1 -1 0
1;
#X obj 239 149 loadbang;
#X floatatom 219 51 5 0 0 0 - - -;
#X floatatom 263 51 5 0 0 0 - - -;
#X obj 95 111 pix_video;
#X obj 95 152 pix_texture;
#X obj 95 185 rectangle 4 4;
#X obj 1 -11 a_gemwin;
#X obj 95 87 a_shad stretch;
#N canvas 0 22 450 300 a_var2 0;
#X obj 50 1 inlet;
#X obj 100 1 inlet;
#X obj 50 100 t b a;
#X obj 100 100 t b a;
#X obj 100 150 symbol width;
#X obj 100 200 pack s 0 0 0 0 0 0 0;
#X obj 100 250 a_modVar;
#X obj 100 300 outlet;
#X obj 100 50 * 1;
#X obj 50 50 * 1;
#X connect 0 0 9 0;
#X connect 1 0 8 0;
#X connect 2 0 4 0;
#X connect 2 1 5 1;
#X connect 3 0 4 0;
#X connect 3 1 5 2;
#X connect 4 0 5 0;
#X connect 5 0 6 0;
#X connect 6 0 7 0;
#X connect 8 0 3 0;
#X connect 9 0 2 0;
#X restore 215 70 pd a_var2 width;
#N canvas 0 22 450 300 a_var3 0;
#X obj 50 1 inlet;
#X obj 100 1 inlet;
#X obj 50 100 t b a;
#X obj 100 100 t b a;
#X obj 100 150 symbol origin;
#X obj 100 200 pack s 0 0 0 0 0 0 0;
#X obj 100 250 a_modVar;
#X obj 100 300 outlet;
#X obj 100 50 * 1;
#X obj 50 50 * 1;
#X connect 0 0 9 0;
#X connect 1 0 8 0;
#X connect 2 0 4 0;
#X connect 2 1 5 1;
#X connect 3 0 4 0;
#X connect 3 1 5 2;
#X connect 4 0 5 0;
#X connect 5 0 6 0;
#X connect 6 0 7 0;
#X connect 8 0 3 0;
#X connect 9 0 2 0;
#X restore 326 70 pd a_var3 origin;
#X floatatom 330 38 5 0 0 0 - - -;
#X floatatom 374 38 5 0 0 0 - - -;
#X connect 0 0 11 0;
#X connect 1 0 8 0;
#X connect 2 0 8 0;
#X connect 3 0 1 0;
#X connect 4 0 2 0;
#X connect 5 0 12 0;
#X connect 6 0 12 1;
#X connect 7 0 8 0;
#X connect 8 0 9 0;
#X connect 11 0 7 0;
#X connect 12 0 11 1;
#X connect 13 0 11 1;
#X connect 14 0 13 0;
#X connect 15 0 13 1;
