#N canvas 447 97 414 259 10;
#X obj 86 28 gemhead;
#X msg 297 130 mode \$1;
#X msg 294 177 quality 1;
#X obj 296 109 tgl 15 0 empty empty empty 17 7 0 10 -262144 -1 -1 0
1;
#X obj 295 153 loadbang;
#X obj 86 165 pix_texture;
#X obj 86 186 rectangle 4 4;
#X obj 86 143 pix_video;
#X msg 180 85 swap \$1;
#X obj 178 63 tgl 15 0 empty empty empty 17 7 0 10 -262144 -1 -1 0
1;
#X obj 4 -10 a_gemwin;
#X obj 86 120 a_shad threshhold;
#N canvas 0 22 450 300 a_var2 0;
#X obj 50 1 inlet;
#X obj 100 1 inlet;
#X obj 150 1 inlet;
#X obj 200 1 inlet;
#X obj 50 50 * 0.1;
#X obj 100 50 * 0.1;
#X obj 150 50 * 0.1;
#X obj 200 50 * 0.1;
#X obj 50 100 t b a;
#X obj 100 100 t b a;
#X obj 150 100 t b a;
#X obj 200 100 t b a;
#X obj 100 150 symbol thresh;
#X obj 100 200 pack s 0 0 0 0 0 0 0;
#X obj 100 250 a_modVar;
#X obj 100 300 outlet;
#X connect 0 0 4 0;
#X connect 1 0 5 0;
#X connect 2 0 6 0;
#X connect 3 0 7 0;
#X connect 4 0 8 0;
#X connect 5 0 9 0;
#X connect 6 0 10 0;
#X connect 7 0 11 0;
#X connect 8 0 12 0;
#X connect 8 1 13 1;
#X connect 9 0 12 0;
#X connect 9 1 13 2;
#X connect 10 0 12 0;
#X connect 10 1 13 3;
#X connect 11 0 12 0;
#X connect 11 1 13 4;
#X connect 12 0 13 0;
#X connect 13 0 14 0;
#X connect 14 0 15 0;
#X restore 238 86 pd a_var2 thresh;
#X floatatom 223 56 5 0 0 0 - - -;
#X floatatom 267 56 5 0 0 0 - - -;
#X floatatom 303 56 5 0 0 0 - - -;
#X floatatom 347 56 5 0 0 0 - - -;
#X connect 0 0 11 0;
#X connect 1 0 5 0;
#X connect 2 0 5 0;
#X connect 3 0 1 0;
#X connect 4 0 2 0;
#X connect 5 0 6 0;
#X connect 7 0 5 0;
#X connect 8 0 11 1;
#X connect 9 0 8 0;
#X connect 11 0 7 0;
#X connect 12 0 11 1;
#X connect 13 0 12 0;
#X connect 14 0 12 1;
#X connect 15 0 12 2;
#X connect 16 0 12 3;
