#N canvas 0 22 450 300 10;
#X msg 130 76 offset \$1 \$2 \$3 \$4;
#X msg 267 76 width \$1;
#X msg 350 80 image \$1;
#X obj 130 31 inlet;
#X obj 260 29 inlet;
#X obj 350 33 inlet;
#X obj 41 90 inlet;
#X obj 39 171 pix_shader laplace;
#X obj 39 220 outlet;
#X obj 161 224 outlet;
#X connect 0 0 7 1;
#X connect 1 0 7 1;
#X connect 2 0 7 1;
#X connect 3 0 0 0;
#X connect 4 0 1 0;
#X connect 5 0 2 0;
#X connect 6 0 7 0;
#X connect 7 0 8 0;
#X connect 7 1 9 0;
